<?xml version="1.0" encoding="UTF-8"?>
<svg version="1.1" viewBox="0 0 1600 744" width="1280" height="1280" xmlns="http://www.w3.org/2000/svg">
<path transform="translate(0)" d="m0 0h1600v744h-1600v-744z" fill="#FBFCFD"/>
<path transform="translate(855 117)" d="m0 0c11.1 10.6 24.9 30.5 26 46.4-0.27 3.21-0.27 3.21-2.14 5.02-10.1 3.82-20.8 3.75-31.5 4.13-16.3 0.849-30.4 6.32-44.9 13.6-0.709 0.348-1.42 0.696-2.15 1.05-11.6 5.71-22.8 11.9-33.6 19.1-1.81 1.2-3.64 2.38-5.48 3.54-21.3 13.7-45.7 32.2-52.9 57.5-1.93 9.2-1.5 18.2 3.57 26.3 10.4 13.3 29.8 20.9 45.2 26.5 33.2 12.1 66.3 31 95.3 51.1 2.24 1.57 2.24 1.57 5.21 2.43 0.00331-0.946 0.00662-1.89 0.01-2.87 0.0809-23 0.173-46 0.277-69 0.0502-11.1 0.0966-22.2 0.134-33.4 0.0329-9.69 0.0727-19.4 0.121-29.1 0.0253-5.13 0.0471-10.3 0.0606-15.4 0.0128-4.83 0.0348-9.66 0.064-14.5 0.0091-1.78 0.0148-3.55 0.0168-5.33 0.0033-2.42 0.0187-4.83 0.0373-7.25-0.00193-0.71-0.00387-1.42-0.00586-2.15 0.0561-4.85 0.0561-4.85 2.28-7.07 2.2-0.249 2.2-0.249 4.98-0.247 1.05-0.00419 2.11-0.00839 3.19-0.0127 1.16 0.00562 2.32 0.0112 3.52 0.017 1.22-0.0019 2.44-0.0038 3.69-0.00575 3.34-0.00308 6.69 0.00282 10 0.013 3.49 0.00877 6.99 0.00702 10.5 0.00664 5.87 9.37e-4 11.7 0.00963 17.6 0.0233 6.79 0.0157 13.6 0.021 20.4 0.0203 6.53-6.09e-4 13.1 0.00449 19.6 0.0128 2.78 0.00354 5.56 0.00536 8.35 0.00589 3.88 0.00119 7.76 0.0109 11.6 0.0216 1.16-4.53e-4 2.32-9.06e-4 3.52-0.00137 1.05 0.00426 2.1 0.00853 3.18 0.0129 0.918 0.00168 1.84 0.00335 2.78 0.00508 2.07 0.129 2.07 0.129 3.07 1.13 0.0927 1.35 0.117 2.71 0.114 4.06-7.55e-5 0.861-1.51e-4 1.72-2.29e-4 2.61-0.00516 0.935-0.0103 1.87-0.0156 2.83-0.00141 0.953-0.00283 1.91-0.00429 2.89-0.00562 3.06-0.0182 6.11-0.0309 9.17-0.00501 2.07-0.00958 4.13-0.0137 6.2-0.0111 5.08-0.0283 10.2-0.0488 15.2-1.01 0.0103-2.03 0.0206-3.07 0.0312-9.52 0.0976-19 0.2-28.6 0.308-4.9 0.0553-9.79 0.109-14.7 0.158-4.72 0.0476-9.44 0.0999-14.2 0.156-1.8 0.0205-3.61 0.0392-5.42 0.0561-2.52 0.024-5.04 0.054-7.56 0.0856-0.754 0.00576-1.51 0.0115-2.28 0.0174-3.42-0.254-3.42-0.254-6.26 1.19-0.107 2.41-0.148 4.79-0.147 7.2-0.00552 1.14-0.00552 1.14-0.0111 2.31-0.0111 2.58-0.0149 5.15-0.0187 7.73-0.00626 1.84-0.0129 3.68-0.0199 5.52-0.0174 5.01-0.028 10-0.0362 15-0.00514 3.13-0.0112 6.26-0.0175 9.39-0.0191 9.79-0.0333 19.6-0.0416 29.4-0.00977 11.3-0.0361 22.6-0.0765 33.9-0.0302 8.74-0.045 17.5-0.0483 26.2-0.00235 5.22-0.0113 10.4-0.0365 15.7-0.0233 4.91-0.0275 9.83-0.0172 14.7 4.95e-4 1.8-0.00582 3.6-0.0196 5.4-0.0177 2.47-0.0106 4.93 0.00253 7.39-0.0165 1.06-0.0165 1.06-0.0332 2.14 0.0711 5.55 1.89 9.25 4.52 13.9 2.32 5.42 2.42 10.6 2.44 16.4 0.00314 0.969 0.00628 1.94 0.00952 2.94-0.148 9.02-2.33 16.3-5.45 24.7-1.22 4.6-1.13 9.1-1.11 13.8-2.19e-4 1.32-2.19e-4 1.32-4.43e-4 2.66 6.95e-4 2.89 0.00847 5.79 0.0163 8.68 0.00187 2.01 0.00329 4.02 0.00429 6.03 0.00381 5.29 0.0136 10.6 0.0247 15.9 0.0102 5.4 0.0148 10.8 0.0198 16.2 0.0107 10.6 0.0278 21.2 0.0488 31.7 1.01 0.0103 2.03 0.0206 3.07 0.0312 9.52 0.0976 19 0.2 28.6 0.308 4.9 0.0553 9.79 0.109 14.7 0.158 4.72 0.0476 9.44 0.0999 14.2 0.156 1.8 0.0205 3.61 0.0392 5.42 0.0561 2.52 0.024 5.04 0.054 7.56 0.0856 0.754 0.00576 1.51 0.0115 2.28 0.0174 5.15 0.0738 5.15 0.0738 6.26 1.19 0.0927 1.35 0.117 2.71 0.114 4.06-7.55e-5 0.861-1.51e-4 1.72-2.29e-4 2.61-0.00516 0.935-0.0103 1.87-0.0156 2.83-0.00141 0.953-0.00283 1.91-0.00429 2.89-0.00562 3.06-0.0182 6.11-0.0309 9.17-0.00501 2.07-0.00958 4.13-0.0137 6.2-0.0111 5.08-0.0283 10.2-0.0488 15.2-16.5 0.0233-33.1 0.041-49.6 0.0518-7.68 0.00516-15.4 0.0122-23 0.0236-6.69 0.00995-13.4 0.0164-20.1 0.0186-3.55 0.00131-7.09 0.00439-10.6 0.0116-3.95 0.00801-7.9 0.00826-11.9 0.0078-1.18 0.0036-2.37 0.00719-3.59 0.0109-1.07-0.00137-2.14-0.00275-3.24-0.00417-1.4 0.00138-1.4 0.00138-2.84 0.00279-2.11-0.123-2.11-0.123-3.11-1.12-0.0944-2.3-0.117-4.6-0.114-6.91-1.46e-4 -0.722-2.92e-4 -1.44-4.43e-4 -2.19 6.99e-4 -2.4 0.00849-4.79 0.0163-7.19 0.00186-1.66 0.00329-3.32 0.00429-4.97 0.00383-4.37 0.0137-8.74 0.0247-13.1 0.0102-4.46 0.0148-8.91 0.0198-13.4 0.0107-8.75 0.0278-17.5 0.0488-26.3-1.29 0.634-2.58 1.27-3.87 1.91-0.718 0.354-1.44 0.709-2.18 1.07-2.16 1.12-3.97 2.39-5.83 3.96-16.6 13.3-34.4 25.6-53.6 34.9-6.79 3.27-13.4 6.84-20.1 10.4-45.4 23.8-94.2 42.5-144 52.8-0.982 0.205-1.96 0.409-2.98 0.62-7.59 1.43-15.1 1.75-22.8 1.75-2.06 0.00438-4.11 0.0409-6.17 0.0786-18.2 0.155-32.6-6.16-46-18.4-3.83-4.21-5.97-7.38-7-13-0.571-0.00423-1.14-0.00846-1.73-0.0128-13.9-0.103-27.8-0.212-41.6-0.327-6.71-0.0553-13.4-0.109-20.1-0.158-6.47-0.0476-12.9-0.0999-19.4-0.156-2.47-0.0205-4.95-0.0392-7.42-0.0561-3.45-0.024-6.91-0.054-10.4-0.0856-1.03-0.00576-2.07-0.0115-3.13-0.0174-0.935-0.00979-1.87-0.0196-2.83-0.0297-0.818-0.00645-1.64-0.0129-2.48-0.0196-1.86-0.139-1.86-0.139-2.86-1.14-0.099-2.24-0.126-4.48-0.126-6.73-0.00145-0.715-0.00291-1.43-0.0044-2.17-0.00369-2.43-1.62e-4 -4.85 0.00326-7.28-0.00115-1.74-0.00274-3.49-0.00473-5.23-0.0042-4.82-0.0021-9.64 9.86e-4 -14.5 0.00225-5.19-0.00122-10.4-0.00398-15.6-0.00446-10.2-0.00348-20.3-5.87e-4 -30.5 0.00225-8.26 0.00257-16.5 0.00148-24.8-1.53e-4 -1.17-3.06e-4 -2.35-4.64e-4 -3.56-3.2e-4 -2.38-6.44e-4 -4.77-9.73e-4 -7.15-0.00286-22.4 4.33e-4 -44.8 0.0058-67.1 0.00447-19.2 0.00369-38.5-9.19e-4 -57.7-0.00534-22.3-0.00746-44.6-0.00439-66.9 3.19e-4 -2.38 6.33e-4 -4.75 9.43e-4 -7.13 1.54e-4 -1.17 3.09e-4 -2.34 4.68e-4 -3.54 8.65e-4 -8.26-5.98e-4 -16.5-0.00295-24.8-0.0028-10.1-0.00206-20.1 0.00328-30.2 0.00264-5.14 0.00364-10.3 3.51e-4 -15.4-0.00296-4.69-0.00137-9.39 0.00398-14.1 0.00113-1.71 5.31e-4 -3.41-0.00188-5.12-3e-3 -2.3 3.9e-5 -4.61 0.00472-6.91 1.62e-4 -1.28 3.25e-4 -2.57 4.92e-4 -3.89 0.125-2.84 0.125-2.84 1.13-3.84 1.63-0.0982 3.26-0.126 4.9-0.127 1.06-0.00282 2.12-0.00564 3.21-0.00854 1.76 0.00304 1.76 0.00304 3.55 0.00613 1.23-0.00175 2.45-0.0035 3.72-0.00531 3.38-0.00366 6.75-0.00279 10.1 3.79e-4 3.53 0.00252 7.05 1.86e-4 10.6-0.00139 5.92-0.00182 11.8 5.84e-4 17.8 0.00534 6.86 0.00544 13.7 0.00368 20.6-0.00183 5.88-0.00453 11.8-0.00518 17.6-0.00256 3.51 0.00156 7.03 0.00176 10.5-0.00154 3.92-0.00341 7.83 0.00131 11.7 0.0069 1.17-0.00202 2.35-0.00405 3.55-0.00613 1.59 0.00423 1.59 0.00423 3.21 0.00854 0.927 3.77e-4 1.85 7.54e-4 2.81 0.00114 2.09 0.126 2.09 0.126 3.09 1.13 0.102 1.47 0.135 2.95 0.14 4.42 0.00571 0.955 0.0114 1.91 0.0173 2.89 0.00168 1.58 0.00168 1.58 0.00339 3.2 0.00496 1.11 0.00993 2.21 0.015 3.35 0.0147 3.68 0.0214 7.36 0.0269 11 0.00575 2.55 0.0115 5.11 0.0173 7.66 0.00918 4.68 0.0155 9.36 0.0185 14 0.00447 6.87 0.0219 13.7 0.051 20.6 0.0243 5.96 0.0319 11.9 0.0337 17.9 0.00302 2.53 0.011 5.06 0.0242 7.59 0.0171 3.55 0.0152 7.1 0.00869 10.6 0.00921 1.04 0.0184 2.08 0.0279 3.14-0.0547 9.62-2.81 17.7-6.69 26.4-0.319 0.727-0.638 1.45-0.967 2.2-0.689 1.57-1.38 3.14-2.08 4.7-1.11 2.5-2.21 5.01-3.31 7.52-3.81 8.71-7.66 17.4-11.5 26.1-1.87 4.19-3.72 8.39-5.58 12.6-0.906 2.04-1.82 4.09-2.73 6.12-1.29 2.86-2.56 5.74-3.82 8.61-0.389 0.851-0.777 1.7-1.18 2.58-2.57 5.92-2.81 9.3-0.449 15.4l1.33 2.85c0.501 1.09 1 2.19 1.52 3.32 0.549 1.18 1.1 2.37 1.66 3.59 1.19 2.59 2.36 5.19 3.54 7.78 0.311 0.687 0.622 1.37 0.943 2.08 4.68 10.4 9.02 20.9 13.4 31.5 0.643 1.54 1.29 3.08 1.93 4.62 0.31 0.742 0.62 1.48 0.939 2.25 1.88 4.46 3.85 8.87 5.91 13.3 0.93 2.02 1.86 4.04 2.78 6.06 0.611 1.32 0.611 1.32 1.24 2.67 3.38 8.09 3.4 16.1 3.45 24.7 0.0292 2.16 0.0639 4.31 0.102 6.47 0.0324 1.94 0.0507 3.88 0.0682 5.82 0.124 2.91 0.471 5.51 1.14 8.33 0.206-0.557 0.412-1.11 0.625-1.69 1.5-2.53 3.27-3.85 5.55-5.65 3.18-2.89 5.71-6.32 8.37-9.68 3.29-4 6.86-7.68 10.5-11.4 3.21-4.25 3.09-8.95 3.09-14.1 0.00137-1.08 0.00275-2.16 0.00416-3.27-0.00359-1.18-0.00719-2.35-0.0109-3.56 2.23e-4 -1.89 2.23e-4 -1.89 4.51e-4 -3.81 2.95e-4 -3.48-0.00563-6.97-0.0126-10.5-0.00638-3.76-0.00694-7.52-0.00818-11.3-0.00289-6.51-0.00932-13-0.0181-19.5-0.0126-9.42-0.0186-18.8-0.0229-28.3-0.00707-15.3-0.0179-30.6-0.0317-45.8-8.28e-4 -0.914-0.00166-1.83-0.00251-2.77-0.0059-6.49-0.0119-13-0.018-19.5-0.00693-7.43-0.0138-14.9-0.0205-22.3-8.28e-4 -0.915-0.00166-1.83-0.00251-2.77-0.0137-15.2-0.0234-30.5-0.0304-45.7-0.00449-9.4-0.0125-18.8-0.0251-28.2-0.0084-6.43-0.0133-12.9-0.0154-19.3-0.00135-3.72-0.00439-7.43-0.0118-11.1-0.00794-4.02-0.00826-8.04-0.00778-12.1-0.00359-1.19-0.00719-2.38-0.0109-3.6 0.00137-1.07 0.00275-2.14 0.00416-3.24-0.00138-1.39-0.00138-1.39-0.00279-2.82 0.123-2.09 0.123-2.09 1.12-3.09 2.92-0.185 5.82-0.309 8.74-0.387 0.879-0.0255 1.76-0.051 2.66-0.0773 1.86-0.0521 3.73-0.102 5.59-0.148 2.86-0.0745 5.71-0.165 8.57-0.257 1.81-0.0485 3.62-0.0961 5.43-0.143 0.856-0.0291 1.71-0.0581 2.59-0.0881 6.07-0.129 6.07-0.129 9.41 2.1 0.385 2.08 0.385 2.08 0.401 4.68 0.02 1.46 0.02 1.46 0.0404 2.94 1.74e-4 1.58 1.74e-4 1.58 3.51e-4 3.19 0.0198 1.62 0.0198 1.62 0.04 3.27 0.041 3.45 0.0626 6.91 0.0811 10.4 0.0238 3.45 0.0518 6.9 0.0918 10.4 0.0244 2.15 0.0392 4.3 0.0436 6.45 0.0153 1.46 0.0153 1.46 0.0309 2.95 0.00641 1.29 0.00641 1.29 0.013 2.6 0.123 2.5 0.123 2.5 2.26 5.21 0.545-0.678 1.09-1.36 1.65-2.05 4.62-5.7 9.34-11.2 14.3-16.7 1.41-1.58 2.76-3.21 4.07-4.87 1.79-2.2 3.55-3.92 5.72-5.73 2.83-2.41 5.48-4.89 8.06-7.56 9.39-9.46 20.4-17 31.2-24.7 1.59-1.13 3.18-2.27 4.77-3.41 12.6-8.99 25.8-17.2 39.2-25 1.01-0.593 1.01-0.593 2.05-1.2 16.9-9.82 34.5-18.1 53-24.2 1.86-0.618 3.7-1.28 5.54-1.94 35.9-12.7 35.9-12.7 48.6-7.33z" fill="#EDCC05"/>
<path transform="translate(1182 188)" d="m0 0c1.03 0.00143 2.06 0.00285 3.11 0.00432 1.17-0.00308 2.33-0.00615 3.54-0.00932 1.27 0.00719 2.55 0.0144 3.86 0.0218 1.98 6.87e-4 1.98 6.87e-4 4 0.00139 2.81 0.00157 5.62 0.00987 8.43 0.0233 3.53 0.0166 7.06 0.0207 10.6 0.0202 8.68 1.2e-4 17.4 0.0677 26 0.186 1.19 0.0143 2.38 0.0286 3.61 0.0434 3.24 0.0489 6.48 0.127 9.72 0.218 1.42 0.02 1.42 0.02 2.87 0.0405 6.27 0.228 6.27 0.228 8.77 2.45 0.338 0.74 0.676 1.48 1.02 2.24 0.351 0.723 0.703 1.45 1.06 2.19 0.496 1.21 0.496 1.21 1 2.45 0.394 0.949 0.788 1.9 1.19 2.88 0.43 1.05 0.859 2.1 1.3 3.17 6.08 14.6 12.4 29.1 18.8 43.6 0.734 1.67 1.46 3.35 2.18 5.02 1.78 4.14 3.62 8.19 5.78 12.1 7.96 15.3 7.88 30.4 7.68 47.2-0.0394 4.07-0.0257 8.14-0.0189 12.2 0.00469 7.03-0.0232 14.1-0.0741 21.1-0.0736 10.2-0.0966 20.3-0.108 30.5-0.0196 16.5-0.0793 33-0.165 49.5-0.0828 16-0.146 32-0.185 48-0.00236 0.989-0.00473 1.98-0.00717 3-0.0117 4.96-0.0231 9.93-0.0343 14.9-0.0931 41.1-0.251 82.2-0.453 123-16.5 0.0233-33.1 0.041-49.6 0.0518-7.68 0.00516-15.4 0.0122-23 0.0236-6.69 0.00995-13.4 0.0164-20.1 0.0186-3.55 0.00131-7.09 0.00439-10.6 0.0116-3.95 0.00801-7.9 0.00826-11.9 0.0078-1.18 0.0036-2.37 0.00719-3.59 0.0109-1.07-0.00137-2.14-0.00275-3.24-0.00417-1.4 0.00138-1.4 0.00138-2.84 0.00279-2.11-0.123-2.11-0.123-3.11-1.12-0.0999-2.44-0.134-4.86-0.127-7.31-0.00156-0.774-0.00312-1.55-0.00473-2.35-0.00401-2.61-8.19e-4 -5.23 0.00232-7.84-0.00135-1.87-0.00313-3.73-0.00531-5.6-0.00458-5.08-0.00278-10.2 3.79e-4 -15.2 0.00252-5.31 1.86e-4 -10.6-0.00139-15.9-0.00182-8.92 5.85e-4 -17.8 0.00534-26.8 0.00544-10.3 0.00368-20.6-0.00183-31-0.00454-8.85-0.00518-17.7-0.00256-26.6 0.00156-5.29 0.00176-10.6-0.00154-15.9-0.00289-4.98-8.91e-4 -9.95 0.00489-14.9 0.00132-1.83 9.39e-4 -3.66-0.00126-5.49-0.00272-2.49 6.86e-4 -4.98 0.00568-7.48-0.00223-0.727-0.00446-1.45-0.00676-2.2 0.013-3.34 0.255-6.27 1.13-9.48-0.318-1.67-0.65-3.34-1-5 0.495-0.99 0.495-0.99 1-2 0.0972-2.33 0.13-4.67 0.125-7 0.00258-1.26 0.00516-2.52 0.00781-3.81 0.0895-3.08 0.0895-3.08-1.13-5.19-0.1-2.69-0.139-5.36-0.134-8.05-0.00227-0.842-0.00453-1.68-0.00687-2.55-0.00636-2.84-0.00551-5.67-0.00469-8.51-0.00299-2.03-0.00639-4.05-0.0102-6.08-0.00886-5.52-0.0112-11-0.0118-16.5-9.48e-4 -4.6-0.00462-9.2-0.00817-13.8-0.00815-10.8-0.0106-21.7-0.00987-32.5 6.01e-4 -11.2-0.00996-22.4-0.0257-33.6-0.0131-9.6-0.0184-19.2-0.0178-28.8 2.56e-4 -5.74-0.00263-11.5-0.0132-17.2-0.00964-5.4-0.00979-10.8-0.00248-16.2 0.00105-1.99-0.00135-3.97-0.00736-5.96-0.00765-2.7-0.00312-5.4 0.00463-8.1-0.00514-0.794-0.0103-1.59-0.0156-2.41 0.0473-7.42 0.0473-7.42 4.7-7.89z" fill="#003291"/>
<path transform="translate(438 189)" d="m0 0c1.06-0.00282 2.12-0.00564 3.21-0.00854 1.76 0.00304 1.76 0.00304 3.55 0.00613 1.23-0.00175 2.45-0.0035 3.72-0.00531 3.38-0.00366 6.75-0.00279 10.1 3.79e-4 3.53 0.00252 7.05 1.86e-4 10.6-0.00139 5.92-0.00182 11.8 5.84e-4 17.8 0.00534 6.86 0.00544 13.7 0.00368 20.6-0.00183 5.88-0.00453 11.8-0.00518 17.6-0.00256 3.51 0.00156 7.03 0.00176 10.5-0.00154 3.92-0.00341 7.83 0.00131 11.7 0.0069 1.17-0.00202 2.35-0.00405 3.55-0.00613 1.59 0.00423 1.59 0.00423 3.21 0.00854 0.927 3.77e-4 1.85 7.54e-4 2.81 0.00114 2.09 0.126 2.09 0.126 3.09 1.13 0.102 1.47 0.135 2.95 0.14 4.42 0.00571 0.955 0.0114 1.91 0.0173 2.89 0.00168 1.58 0.00168 1.58 0.00339 3.2 0.00496 1.11 0.00993 2.21 0.015 3.35 0.0147 3.68 0.0214 7.36 0.0269 11 0.00575 2.55 0.0115 5.11 0.0173 7.66 0.00918 4.68 0.0155 9.36 0.0185 14 0.00447 6.87 0.0219 13.7 0.051 20.6 0.0243 5.96 0.0319 11.9 0.0337 17.9 0.00302 2.53 0.011 5.06 0.0242 7.59 0.0171 3.55 0.0152 7.1 0.00869 10.6 0.00921 1.04 0.0184 2.08 0.0279 3.14-0.0547 9.62-2.81 17.7-6.69 26.4-0.319 0.727-0.638 1.45-0.967 2.2-0.689 1.57-1.38 3.14-2.08 4.7-1.11 2.5-2.21 5.01-3.31 7.52-3.81 8.71-7.66 17.4-11.5 26.1-1.87 4.19-3.72 8.39-5.58 12.6-0.906 2.04-1.82 4.09-2.73 6.12-1.29 2.86-2.56 5.74-3.82 8.61-0.389 0.851-0.777 1.7-1.18 2.58-2.57 5.92-2.81 9.3-0.449 15.4 0.438 0.942 0.875 1.88 1.33 2.85 0.501 1.09 1 2.19 1.52 3.32 0.549 1.18 1.1 2.37 1.66 3.59 1.19 2.59 2.36 5.19 3.54 7.78 0.311 0.687 0.622 1.37 0.943 2.08 4.68 10.4 9.02 20.9 13.4 31.5 0.643 1.54 1.29 3.08 1.93 4.62 0.31 0.742 0.62 1.48 0.939 2.25 1.88 4.46 3.85 8.87 5.91 13.3 0.929 2.02 1.86 4.04 2.78 6.06 0.405 0.865 0.811 1.73 1.23 2.62 3.27 7.76 3.49 15.4 3.61 23.7 0.0362 2.34 0.104 4.68 0.177 7.02 0.285 11-0.255 19.6-6.14 29.1-5.23 8.83-9.09 18.1-12.9 27.6-0.358 0.782-0.716 1.56-1.09 2.37-1.07 3.07-1.17 5.56-1.18 8.81-0.00258 1.17-0.00516 2.35-0.00781 3.56l0.0234 3.69c-0.00773 1.21-0.0155 2.43-0.0234 3.68 0.00387 1.76 0.00387 1.76 0.00781 3.56 0.00338 1.6 0.00338 1.6 0.00684 3.24 0.277 3.3 1.17 5.97 2.26 9.08-14.2 0.0233-28.4 0.0409-42.6 0.0518-6.59 0.00523-13.2 0.0123-19.8 0.0236-6.35 0.0108-12.7 0.0168-19.1 0.0194-2.43 0.00185-4.86 0.00548-7.29 0.0109-3.39 0.00721-6.78 0.00826-10.2 0.0078-1.02 0.0036-2.03 0.00719-3.08 0.0109-0.919-0.00137-1.84-0.00275-2.78-0.00417-0.803 9.22e-4 -1.61 0.00184-2.43 0.00279-1.83-0.123-1.83-0.123-2.83-1.12-0.099-2.24-0.126-4.48-0.126-6.73-0.00145-0.715-0.00291-1.43-0.0044-2.17-0.00369-2.43-1.62e-4 -4.85 0.00326-7.28-0.00115-1.74-0.00274-3.49-0.00473-5.23-0.0042-4.82-0.0021-9.64 9.86e-4 -14.5 0.00225-5.19-0.00122-10.4-0.00398-15.6-0.00446-10.2-0.00348-20.3-5.87e-4 -30.5 0.00225-8.26 0.00257-16.5 0.00148-24.8-1.53e-4 -1.17-3.06e-4 -2.35-4.64e-4 -3.56-3.2e-4 -2.38-6.44e-4 -4.77-9.73e-4 -7.15-0.00286-22.4 4.33e-4 -44.8 0.0058-67.1 0.00447-19.2 0.00369-38.5-9.19e-4 -57.7-0.00534-22.3-0.00746-44.6-0.00439-66.9 3.19e-4 -2.38 6.33e-4 -4.75 9.43e-4 -7.13 1.54e-4 -1.17 3.09e-4 -2.34 4.68e-4 -3.54 8.65e-4 -8.26-5.98e-4 -16.5-0.00295-24.8-0.0028-10.1-0.00206-20.1 0.00328-30.2 0.00264-5.14 0.00364-10.3 3.51e-4 -15.4-0.00296-4.69-0.00137-9.39 0.00398-14.1 0.00113-1.71 5.31e-4 -3.41-0.00188-5.12-3e-3 -2.3 3.9e-5 -4.61 0.00472-6.91 1.62e-4 -1.28 3.25e-4 -2.57 4.92e-4 -3.89 0.207-4.68 1.8-3.96 6.02-3.96z" fill="#003291"/>
<path transform="translate(224 188)" d="m0 0c1.17 0.0304 1.17 0.0304 2.36 0.0614 2.15 0.0584 4.3 0.125 6.46 0.195 1.81 0.0586 1.81 0.0586 3.65 0.118 2.68 0.211 2.68 0.211 3.68 1.21 0.126 2.51 0.186 4.99 0.205 7.5 0.00989 0.793 0.0198 1.59 0.03 2.4 0.0319 2.67 0.0566 5.34 0.0811 8.01 0.0207 1.89 0.0418 3.78 0.0632 5.67 0.0564 5.13 0.106 10.3 0.153 15.4 0.0299 3.22 0.0613 6.43 0.093 9.65 0.665 67.8 0.399 136-0.626 203-0.989 0.0251-1.98 0.0501-3 0.0759-3.66 0.0941-7.33 0.194-11 0.296-1.59 0.0434-3.17 0.085-4.76 0.125-2.28 0.0577-4.56 0.121-6.84 0.186-1.07 0.0251-1.07 0.0251-2.16 0.0506-3.75 0.063-3.75 0.063-7.26 1.27 1.25 9.09 3.01 18 5.05 27 0.9 3.94 1.78 7.89 2.67 11.8 0.279 1.24 0.279 1.24 0.564 2.51 2.13 9.53 4.18 19.1 6.21 28.6 0.759 3.56 1.52 7.11 2.28 10.7 0.186 0.873 0.373 1.75 0.565 2.65 1.73 8.08 3.48 16.2 5.23 24.2 2.82 13 5.62 26 8.39 39 0.36 1.69 0.721 3.38 1.08 5.07 0.501 2.34 0.997 4.68 1.49 7.02 0.15 0.693 0.299 1.39 0.453 2.1 0.674 3.22 1.02 5.99 1.02 9.3h-43c-3.37-7.87-3.37-7.87-4.05-11.1-0.158-0.727-0.316-1.45-0.479-2.2-0.161-0.774-0.321-1.55-0.486-2.34-0.179-0.836-0.359-1.67-0.544-2.53-0.592-2.76-1.17-5.53-1.75-8.29-0.419-1.97-0.84-3.93-1.26-5.9-1.11-5.21-2.22-10.4-3.32-15.6-1.73-8.17-3.47-16.3-5.21-24.5-0.434-2.04-0.867-4.07-1.3-6.11-3.63-17.1-7.38-34.1-11.2-51.2-2.16-9.63-4.22-19.3-6.1-29-0.153-0.786-0.307-1.57-0.465-2.38-0.133-0.69-0.266-1.38-0.403-2.09-0.422-2.06-0.422-2.06-1.41-4.85h-2c0.106 1.51 0.106 1.51 0.214 3.04 0.972 15.1 0.934 30.2 0.92 45.4-0.00257 3.78-1.73e-4 7.56 0.00139 11.3 0.00181 6.34-5.46e-4 12.7-0.00534 19-0.00546 7.3-0.00366 14.6 0.00183 21.9 0.00455 6.31 0.00517 12.6 0.00256 18.9-0.00155 3.75-0.0018 7.5 0.00154 11.2 0.00345 4.17-0.00135 8.35-0.0069 12.5 0.00202 1.22 0.00405 2.44 0.00613 3.7-0.0172 7.03-0.359 13.9-1.14 20.9-6.11 0.0246-12.2 0.0428-18.3 0.0549-2.08 0.00504-4.16 0.0119-6.24 0.0205-2.98 0.0121-5.96 0.0178-8.94 0.0222-1.4 0.00774-1.4 0.00774-2.83 0.0156-1.29 1.13e-4 -1.29 1.13e-4 -2.61 2.29e-4 -0.762 0.00222-1.52 0.00444-2.31 0.00673-1.75-0.12-1.75-0.12-2.75-1.12-0.099-2.24-0.126-4.48-0.126-6.73-0.00145-0.715-0.00291-1.43-0.0044-2.17-0.00369-2.43-1.62e-4 -4.85 0.00326-7.28-0.00115-1.74-0.00274-3.49-0.00473-5.23-0.0042-4.82-0.0021-9.64 9.86e-4 -14.5 0.00225-5.19-0.00122-10.4-0.00398-15.6-0.00446-10.2-0.00348-20.3-5.87e-4 -30.5 0.00225-8.26 0.00257-16.5 0.00148-24.8-1.53e-4 -1.17-3.06e-4 -2.35-4.64e-4 -3.56-3.2e-4 -2.38-6.44e-4 -4.77-9.73e-4 -7.15-0.00286-22.4 4.33e-4 -44.8 0.0058-67.1 0.00447-19.2 0.00369-38.5-9.19e-4 -57.7-0.00534-22.3-0.00746-44.6-0.00439-66.9 3.19e-4 -2.38 6.33e-4 -4.75 9.43e-4 -7.13 1.54e-4 -1.17 3.09e-4 -2.34 4.68e-4 -3.54 8.65e-4 -8.26-5.98e-4 -16.5-0.00295-24.8-0.0028-10.1-0.00206-20.1 0.00328-30.2 0.00264-5.14 0.00364-10.3 3.51e-4 -15.4-0.00296-4.69-0.00137-9.39 0.00398-14.1 0.00113-1.71 5.31e-4 -3.41-0.00188-5.12-3e-3 -2.3 3.9e-5 -4.61 0.00472-6.91 1.62e-4 -1.28 3.25e-4 -2.57 4.92e-4 -3.89 0.125-2.84 0.125-2.84 1.13-3.84 2.58-0.131 5.13-0.197 7.71-0.221 0.81-0.0115 1.62-0.023 2.46-0.0349 2.71-0.037 5.42-0.0665 8.13-0.0955 1.91-0.0232 3.82-0.0466 5.72-0.0702 4.03-0.0487 8.07-0.0935 12.1-0.136 4.06-0.0431 8.13-0.0914 12.2-0.146 20.5-0.273 41-0.444 61.5 0.117z" fill="#003291"/>
<path transform="translate(1070 188)" d="m0 0c1.23-0.00333 2.45-0.00666 3.72-0.0101 2.58-0.00505 5.16-0.00741 7.75-0.00725 3.96-0.0022 7.92-0.0204 11.9-0.0393 2.51-0.00293 5.02-0.00492 7.53-0.00586 1.78-0.0108 1.78-0.0108 3.6-0.0218 1.65 0.00461 1.65 0.00461 3.33 0.00932 0.967-0.00143 1.93-0.00285 2.93-0.00432 2.44 0.247 2.44 0.247 5.44 2.25 2.68 9.64 2.74 20.3 3.55 30.3 0.14 1.67 0.28 3.34 0.421 5.01 0.297 3.54 0.592 7.07 0.884 10.6 0.694 8.38 1.4 16.8 2.11 25.1 0.158 1.87 0.315 3.73 0.473 5.6 1.3 15.4 2.67 30.9 4.12 46.3 0.0977 1.04 0.195 2.08 0.296 3.16 0.398 4.25 0.796 8.49 1.2 12.7 1.34 14.3 2.65 28.6 3.95 42.9 0.0635 0.698 0.127 1.4 0.192 2.12 2.88 31.7 5.66 63.3 8.41 95 0.61 7.01 1.22 14 1.83 21 0.101 1.15 0.201 2.31 0.305 3.5 1.24 14.2 2.51 28.3 3.84 42.5 0.135 1.45 0.271 2.9 0.406 4.35 0.788 8.45 0.788 8.45 1.59 16.9 1.8 18.9 3.27 37.8 4.43 56.8-6.25 0.0253-12.5 0.0428-18.7 0.0549-2.13 0.00504-4.25 0.0119-6.38 0.0205-3.05 0.0121-6.1 0.0178-9.15 0.0222-1.44 0.00774-1.44 0.00774-2.9 0.0156-1.32 1.13e-4 -1.32 1.13e-4 -2.67 2.29e-4 -0.779 0.00222-1.56 0.00444-2.36 0.00673-1.79-0.12-1.79-0.12-2.79-1.12-0.23-1.58-0.398-3.17-0.541-4.76-0.0936-1.02-0.187-2.03-0.284-3.08-0.147-1.67-0.147-1.67-0.297-3.36-0.105-1.14-0.21-2.28-0.318-3.46-0.337-3.68-0.669-7.35-0.999-11-1.77-20.7-1.77-20.7-4.56-41.3-5.39-0.0246-10.8-0.0428-16.2-0.0549-1.84-0.00504-3.67-0.0119-5.51-0.0205-2.63-0.0121-5.27-0.0178-7.9-0.0222-0.826-0.00516-1.65-0.0103-2.5-0.0156-1.97-1.96e-4 -3.94 0.0513-5.91 0.113-2.41 2.41-1.99 7.95-2.38 11.2-0.129 1.07-0.259 2.15-0.392 3.26-1.41 12.3-2.33 24.6-3.23 37-0.0598 0.805-0.12 1.61-0.181 2.44-0.112 1.52-0.222 3.03-0.327 4.55-0.248 3.35-0.675 6.33-1.49 9.61h-44c-1.55-3.09-0.768-6.21-0.443-9.56 0.0715-0.784 0.143-1.57 0.217-2.38 0.24-2.62 0.489-5.24 0.738-7.86 0.171-1.84 0.34-3.69 0.51-5.53 0.361-3.92 0.726-7.84 1.09-11.8 0.572-6.1 1.14-12.2 1.7-18.3 0.0925-1 0.185-2.01 0.28-3.04 0.186-2.02 0.371-4.03 0.557-6.05 0.277-3 0.554-6.01 0.832-9.01 1.34-14.5 2.62-28.9 3.83-43.4 0.153-1.82 0.306-3.65 0.46-5.47 0.214-2.55 0.427-5.1 0.64-7.64 0.678-8.11 1.38-16.2 2.09-24.3 0.0589-0.671 0.118-1.34 0.179-2.03 1.05-11.9 2.18-23.7 3.32-35.6 1.52-15.9 2.94-31.8 4.28-47.6 1.09-12.8 2.2-25.7 3.32-38.5 0.26-3 0.519-5.99 0.778-8.99 1.44-16.6 2.91-33.2 4.48-49.8 0.923-9.76 1.82-19.5 2.7-29.3 0.0965-1.07 0.0965-1.07 0.195-2.15 0.588-6.49 1.17-13 1.76-19.5 0.327-3.62 0.655-7.25 0.983-10.9 0.181-2 0.36-3.99 0.54-5.99 0.31-3.42 0.627-6.84 0.951-10.3 0.133-1.41 0.133-1.41 0.268-2.84 0.611-6.04 0.611-6.04 1.73-7.16 6.56-1.31 13.2-1.16 19.8-1.17z" fill="#003291"/>
<path transform="translate(1373 188)" d="m0 0c1.15 0.00444 2.3 0.00888 3.49 0.0135 1.3 1.51e-4 2.6 3.02e-4 3.94 4.58e-4 1.43 0.0102 2.85 0.0206 4.28 0.0313 1.45 0.00373 2.91 0.00658 4.36 0.00858 3.83 0.00764 7.66 0.0273 11.5 0.0494 3.91 0.0204 7.82 0.0296 11.7 0.0397 7.67 0.0215 15.3 0.0556 23 0.0977 2.63 19.8 4.34 39.6 5.99 59.5 0.758 9.16 1.53 18.3 2.31 27.5 0.0753 0.892 0.151 1.78 0.228 2.7 1.14 13.5 2.34 27.1 3.66 40.6 0.155 1.59 0.31 3.18 0.465 4.77 0.0753 0.772 0.151 1.54 0.228 2.34 0.0744 0.763 0.149 1.53 0.225 2.31 0.0731 0.749 0.146 1.5 0.222 2.27 0.943 9.7 1.81 19.4 2.67 29.1 0.0828 0.932 0.166 1.86 0.251 2.82 1.39 15.7 2.7 31.4 4 47.2 1.39 16.8 2.88 33.7 4.43 50.5 0.126 1.37 0.126 1.37 0.254 2.77 0.127 1.39 0.127 1.39 0.257 2.8 0.677 7.39 1.34 14.8 1.99 22.2 0.153 1.72 0.153 1.72 0.309 3.48 0.419 4.72 0.838 9.45 1.26 14.2 1.16 13.1 2.35 26.2 3.61 39.3 0.111 1.16 0.223 2.31 0.337 3.51 0.222 2.3 0.443 4.6 0.665 6.91 1.9 19.8 3.61 39.5 4.64 59.3-6.09 0.0247-12.2 0.0428-18.3 0.0549-2.07 0.00504-4.14 0.0119-6.22 0.0205-2.97 0.0121-5.95 0.0178-8.92 0.0222-0.93 0.00516-1.86 0.0103-2.82 0.0156-0.861 7.55e-5 -1.72 1.51e-4 -2.61 2.29e-4 -0.759 0.00222-1.52 0.00444-2.3 0.00673-1.87-0.12-1.87-0.12-3.87-1.12-0.379-1.74-0.379-1.74-0.562-4.03-0.0735-0.86-0.147-1.72-0.223-2.6-0.0709-0.941-0.142-1.88-0.215-2.85-0.0812-0.975-0.162-1.95-0.246-2.95-0.26-3.14-0.508-6.29-0.754-9.43-0.33-4.08-0.664-8.16-1-12.2-0.0818-0.999-0.164-2-0.248-3.03-0.545-6.59-1.14-13.2-1.81-19.7-0.0793-0.796-0.159-1.59-0.24-2.41-0.366-3.98-0.366-3.98-1.7-7.7h-39c-3.06 28.7-3.06 28.7-5.4 57.5-0.0665 0.964-0.133 1.93-0.202 2.92-0.0531 0.825-0.106 1.65-0.161 2.5-0.234 2.11-0.234 2.11-1.23 5.11-5.94 0.0247-11.9 0.0428-17.8 0.0549-2.02 0.00504-4.05 0.0119-6.07 0.0205-2.9 0.0121-5.81 0.0178-8.71 0.0222-0.908 0.00516-1.82 0.0103-2.75 0.0156-0.841 7.55e-5 -1.68 1.51e-4 -2.55 2.29e-4 -1.11 0.00333-1.11 0.00333-2.25 0.00673-1.83-0.12-1.83-0.12-3.83-1.12 0.563-17.1 1.97-34.1 3.55-51.2 0.339-3.67 0.673-7.34 1.01-11 0.136-1.5 0.273-3 0.409-4.5 0.102-1.12 0.102-1.12 0.206-2.26 0.206-2.26 0.413-4.53 0.62-6.79 1.23-13.5 2.41-26.9 3.58-40.4 1.41-16.2 2.84-32.4 4.46-48.6 1.6-16.3 2.92-32.7 4.27-49.1 1.17-14 2.42-28.1 3.75-42.1 1.33-14 2.58-28 3.83-42 0.322-3.61 0.644-7.22 0.967-10.8 1.36-15.2 2.72-30.4 4.07-45.7 0.818-9.19 1.64-18.4 2.47-27.6 0.51-5.69 1.01-11.4 1.5-17.1 0.266-3.09 0.538-6.17 0.812-9.26 0.175-2 0.341-4 0.507-6 0.154-1.72 0.154-1.72 0.312-3.47 0.0834-0.974 0.167-1.95 0.253-2.95 0.643-3.46 1.66-4.21 5.13-4.52z" fill="#003291"/>
<path transform="translate(320 188)" d="m0 0c1.29-0.00144 1.29-0.00144 2.61-0.0029 1.82-6.78e-4 3.63 0.00115 5.45 0.00534 2.72 0.00529 5.44 7.62e-5 8.16-0.00635 8.51-0.00368 17 0.108 25.5 0.582 0.721 0.0387 1.44 0.0775 2.18 0.117 4.93 0.311 4.93 0.311 6.06 1.44 0.368 2.97 0.675 5.93 0.945 8.91 0.0905 0.959 0.181 1.92 0.274 2.91 0.307 3.27 0.606 6.54 0.906 9.8 0.217 2.34 0.435 4.67 0.652 7.01 2.92 31.5 5.68 63.1 8.45 94.6 0.939 10.7 1.88 21.3 2.83 32 0.0747 0.84 0.149 1.68 0.226 2.55 0.569 6.4 1.14 12.8 1.71 19.2 0.104 1.16 0.208 2.33 0.315 3.53 2.71 30.4 5.43 60.7 8.2 91.1 2.54 27.9 5.05 55.8 7.53 83.7 0.269 3.02 0.538 6.04 0.807 9.06 0.426 4.78 0.851 9.56 1.28 14.3 0.157 1.76 0.314 3.53 0.471 5.29 0.416 4.67 0.828 9.34 1.23 14 0.164 1.89 0.331 3.79 0.498 5.68 0.0921 1.1 0.184 2.19 0.279 3.32 0.117 1.37 0.117 1.37 0.236 2.76 0.235 4.75 0.161 9.51 0.161 14.3h-43c-1.47-4.41-2.29-7.28-2.67-11.7-0.0967-1.1-0.193-2.2-0.293-3.33-0.144-1.76-0.144-1.76-0.291-3.55-0.106-1.22-0.212-2.44-0.321-3.69-0.336-3.89-0.663-7.77-0.988-11.7-0.331-3.88-0.664-7.76-0.999-11.6-0.207-2.41-0.412-4.83-0.614-7.24-0.0936-1.1-0.187-2.2-0.284-3.34-0.0806-0.961-0.161-1.92-0.244-2.91-0.336-3.32-0.825-6.62-1.3-9.93-13.2 0.33-26.4 0.66-40 1-0.266 3.23-0.531 6.47-0.805 9.8-0.264 3.2-0.529 6.41-0.794 9.61-0.181 2.19-0.361 4.38-0.541 6.57-0.262 3.19-0.525 6.38-0.79 9.56-0.0772 0.947-0.154 1.89-0.234 2.87-0.823 9.88-1.85 19.7-2.84 29.6h-44c-0.991-3.96-0.957-6.38-0.598-10.4 0.0554-0.641 0.111-1.28 0.168-1.94 0.188-2.15 0.385-4.3 0.582-6.45 0.137-1.55 0.273-3.09 0.409-4.64 0.373-4.22 0.754-8.44 1.14-12.7 0.403-4.46 0.798-8.92 1.19-13.4 1.02-11.5 2.07-23 3.11-34.5 0.179-1.97 0.357-3.95 0.536-5.92 1.56-17.3 3.13-34.5 4.71-51.8 1.62-17.7 3.21-35.4 4.71-53.1 1-11.8 2.05-23.6 3.12-35.4 1.46-16.1 2.89-32.3 4.25-48.4 0.109-1.3 0.218-2.59 0.331-3.92 0.521-6.2 1.04-12.4 1.55-18.6 1.11-13.3 2.32-26.5 3.63-39.8 0.891-9.12 1.72-18.2 2.51-27.4 0.19-2.2 0.382-4.41 0.573-6.61 0.773-8.9 0.773-8.9 1.53-17.8 0.314-3.71 0.636-7.42 0.964-11.1 0.121-1.39 0.24-2.78 0.355-4.17 0.16-1.92 0.33-3.84 0.501-5.76 0.14-1.63 0.14-1.63 0.282-3.29 0.444-2.91 1.24-5.26 2.45-7.94 5.4-0.904 10.6-1.15 16.1-1.13z" fill="#003291"/>
<path transform="translate(634,338)" d="m0 0c5.67 3.78 10.2 6.89 15.1 11.3 19.1 16.5 44.9 27.5 68.5 35.9 88.2 31.3 88.2 31.3 106 61.8 3.31 6.98 2.85 14.2 0.5 21.5-6.74 16.4-22.1 29.7-36.5 39.5-0.762 0.526-1.52 1.05-2.31 1.59-16.6 11.4-33.2 21.1-51.6 29.1-2.81 1.22-5.61 2.46-8.42 3.69-14.4 6.34-28.7 12.5-43.6 17.6-1.08 0.371-2.16 0.743-3.27 1.13-3.61 1.24-7.23 2.47-10.9 3.69-1.14 0.386-2.28 0.772-3.45 1.17-16 5.32-16 5.32-23.9 5.27-1.24 0.00773-1.24 0.00773-2.5 0.0156-2.07-0.266-2.07-0.266-4.07-2.27-0.243-1.82-0.243-1.82-0.23-4.04 9.67e-4 -0.82 0.00193-1.64 0.00293-2.48 0.0132-0.878 0.0264-1.76 0.04-2.66 0.00935-0.896 0.0187-1.79 0.0283-2.72 0.0375-2.7 0.0952-5.4 0.159-8.1 0.014-0.764 0.028-1.53 0.0425-2.31 0.0448-2.02 0.125-4.04 0.208-6.06 0.0696-1.71 0.0696-1.71 0.141-3.46 0.741-3.85 2.27-6.05 4.61-9.16 0.472-0.681 0.944-1.36 1.43-2.06 3.72-4.99 7.88-9.29 12.3-13.6 6.78-6.63 12.6-13.7 18.2-21.3 0.886-1.16 0.886-1.16 1.79-2.34 3.35-4.73 4.09-8.91 3.21-14.7-2.63-2.63-10.3-1.19-13.8-1.19-1.18-0.0122-2.37-0.0245-3.58-0.0371-7.73-0.0127-15 0.688-22.6 2.22v-2h-2v-135z" fill="#FBFCFC"/>
<path transform="translate(863 188)" d="m0 0c1.38 8.17e-4 1.38 8.17e-4 2.78 0.00165 1.05-0.00419 2.11-0.00839 3.19-0.0127 1.16 0.00562 2.32 0.0112 3.52 0.017 1.22-0.0019 2.44-0.0038 3.69-0.00575 3.34-0.00308 6.69 0.00282 10 0.013 3.49 0.00877 6.99 0.00702 10.5 0.00664 5.87 9.37e-4 11.7 0.00963 17.6 0.0233 6.79 0.0157 13.6 0.021 20.4 0.0203 6.53-6.09e-4 13.1 0.00449 19.6 0.0128 2.78 0.00354 5.56 0.00536 8.35 0.00589 3.88 0.00119 7.76 0.0109 11.6 0.0216 1.74-6.8e-4 1.74-6.8e-4 3.52-0.00137 1.05 0.00426 2.1 0.00853 3.18 0.0129 0.918 0.00168 1.84 0.00335 2.78 0.00508 2.07 0.129 2.07 0.129 3.07 1.13 0.0927 1.35 0.117 2.71 0.114 4.06-7.55e-5 0.861-1.51e-4 1.72-2.29e-4 2.61-0.00516 0.935-0.0103 1.87-0.0156 2.83-0.00212 1.43-0.00212 1.43-0.00429 2.89-0.00562 3.06-0.0182 6.11-0.0309 9.17-0.00501 2.07-0.00958 4.13-0.0137 6.2-0.0111 5.08-0.0283 10.2-0.0488 15.2-1.01 0.0103-2.03 0.0206-3.07 0.0312-9.52 0.0976-19 0.2-28.6 0.308-4.9 0.0553-9.79 0.109-14.7 0.158-4.72 0.0476-9.44 0.0999-14.2 0.156-1.8 0.0205-3.61 0.0392-5.42 0.0561-2.52 0.024-5.04 0.054-7.56 0.0856-0.754 0.00576-1.51 0.0115-2.28 0.0174-3.42-0.254-3.42-0.254-6.26 1.19-0.11 2.37-0.155 4.7-0.158 7.07-0.00494 0.748-0.00988 1.5-0.015 2.27-0.0155 2.53-0.0238 5.05-0.0321 7.58-0.00957 1.8-0.0196 3.61-0.03 5.41-0.0271 4.91-0.0481 9.82-0.068 14.7-0.0218 5.13-0.0492 10.3-0.0761 15.4-0.05 9.71-0.0949 19.4-0.138 29.1-0.0493 11.1-0.104 22.1-0.16 33.2-0.114 22.8-0.221 45.5-0.323 68.3-4.5-2.89-7.77-5.82-11.1-10-6.53-7.97-13.8-16.1-22.8-21.3-9.85-5.8-9.85-5.8-12-10.6-1.34-5.42-1.05-10.9-0.88-16.5 9.58e-4 -1.84-0.00468-3.68-0.0164-5.52-0.0128-4.97 0.0668-9.94 0.164-14.9 0.0867-5.21 0.0893-10.4 0.102-15.6 0.0321-8.73 0.118-17.5 0.244-26.2 0.177-12.3 0.256-24.6 0.316-37 0.0496-9.57 0.123-19.1 0.203-28.7 0.00855-1.03 0.0171-2.05 0.0259-3.11 0.0511-5.89 0.115-11.8 0.196-17.7 0.0235-1.79 0.0437-3.57 0.0603-5.36 0.0235-2.43 0.0594-4.86 0.0988-7.29 0.00441-0.714 0.00881-1.43 0.0134-2.16 0.14-6.85 0.14-6.85 4.52-7.35z" fill="#003291"/>
<path transform="translate(1232 231)" d="m0 0c1.22-0.0748 2.45-0.15 3.71-0.227 3.74 0.915 4.1 1.09 6.09 4.1 3.02 5.59 5.42 11.5 7.83 17.4 0.965 2.32 1.93 4.64 2.89 6.95 0.458 1.11 0.917 2.21 1.39 3.35 2.03 4.87 4.14 9.7 6.26 14.5 1.57 3.9 2.15 7.2 2.17 11.4 0.00671 0.984 0.0134 1.97 0.0203 2.98 0.00234 1.08 0.00468 2.16 0.0071 3.27 0.00635 1.15 0.0127 2.29 0.0192 3.48 0.0166 3.19 0.0287 6.37 0.039 9.56 0.0121 3.43 0.0299 6.87 0.0469 10.3 0.0323 6.73 0.0591 13.5 0.0838 20.2 0.0201 5.47 0.0417 10.9 0.0643 16.4 0.0641 15.5 0.124 31 0.179 46.5 0.00295 0.836 0.00589 1.67 0.00893 2.53 0.00295 0.837 0.0059 1.67 0.00894 2.54 0.0481 13.6 0.106 27.1 0.169 40.7 0.0641 13.9 0.121 27.9 0.17 41.8 0.0276 7.82 0.0582 15.6 0.097 23.5 0.0329 6.66 0.0589 13.3 0.0759 20 0.00884 3.4 0.0209 6.79 0.0418 10.2 0.0209 3.68 0.0294 7.36 0.0348 11 0.00903 1.08 0.0181 2.15 0.0274 3.26-0.00112 0.986-0.00223 1.97-0.00338 2.99 0.00488 1.27 0.00488 1.27 0.00986 2.57-0.277 2.76-1.11 4.9-2.24 7.42-5.25 0.0246-10.5 0.0428-15.8 0.0549-1.79 0.00504-3.58 0.0119-5.36 0.0205-2.56 0.0121-5.13 0.0178-7.69 0.0222-1.21 0.00774-1.21 0.00774-2.44 0.0156-1.92 1.96e-4 -3.84-0.0513-5.75-0.113-1.72-1.72-1.13-4-1.13-6.35-0.00322-1.17-0.00645-2.34-0.00977-3.54 0.00155-1.3 0.0031-2.6 0.00469-3.94-0.00187-1.38-0.00417-2.76-0.00687-4.14-0.00615-3.81-0.00598-7.63-0.00481-11.4 2.03e-4 -4.11-0.00531-8.21-0.0101-12.3-0.00832-8.05-0.0111-16.1-0.0116-24.2-4.74e-4 -6.54-0.00252-13.1-0.0057-19.6-0.00881-18.5-0.0134-37-0.0127-55.6 4e-5 -1 7.99e-5 -2 1.21e-4 -3.03 4.09e-5 -1 8.18e-5 -2 1.24e-4 -3.03 4.07e-4 -16.2-0.00917-32.5-0.0233-48.7-0.0143-16.6-0.0213-33.3-0.0204-49.9 3.33e-4 -9.35-0.00245-18.7-0.0132-28.1-0.00908-7.96-0.0113-15.9-0.00449-23.9 0.00328-4.06 0.00327-8.13-0.00535-12.2-0.0078-3.72-0.0065-7.43 0.00228-11.1 0.00229-1.99-0.00534-3.98-0.0132-5.98 0.0069-1.76 0.0069-1.76 0.0139-3.55-2.17e-4 -1.02-4.35e-4 -2.03-6.59e-4 -3.08 0.56-5.37 4.54-4.84 9.06-5.02z" fill="#FBFDFD"/>
<path transform="translate(628 188)" d="m0 0c3.2 0.136 3.2 0.136 6.2 2.14 0.453 2.33 0.453 2.33 0.559 5.3 0.0456 1.11 0.0912 2.22 0.138 3.36 0.0315 1.21 0.063 2.42 0.0954 3.66 0.0369 1.25 0.0738 2.49 0.112 3.78 0.0711 2.65 0.135 5.3 0.188 7.95 0.0566 2.69 0.139 5.38 0.248 8.07 0.626 16.2 0.569 28.2-8.34 41.9-4.42 9.12-6.43 18.9-7 29-0.0645 0.679-0.129 1.36-0.195 2.06-0.719 12.7 4.41 28.2 12.8 37.7 1.83 2.82 1.8 4.64 1.82 7.99 0.0125 1.18 0.0251 2.37 0.038 3.59-0.00144 1.29-0.00287 2.59-0.00435 3.92 0.00902 1.38 0.0193 2.76 0.0309 4.14 0.0276 3.74 0.0369 7.49 0.0429 11.2 0.00938 3.91 0.0356 7.83 0.06 11.7 0.0437 7.41 0.0722 14.8 0.0953 22.2 0.027 8.44 0.071 16.9 0.116 25.3 0.0929 17.4 0.165 34.7 0.222 52.1-0.912 0.404-0.912 0.404-1.84 0.816-0.803 0.356-1.61 0.712-2.43 1.08-1.19 0.528-1.19 0.528-2.41 1.07-10.3 4.63-19.6 9.86-28.6 16.8-0.71 0.549-1.42 1.1-2.15 1.66-0.926 0.741-0.926 0.741-1.87 1.5-1.69 1.07-1.69 1.07-4.69 1.07-1.26-2.51-1.13-4.22-1.13-7.04-0.00261-1.07-0.00522-2.15-0.0079-3.25 0.00223-1.19 0.00446-2.38 0.00676-3.6-0.00156-1.25-0.00312-2.51-0.00473-3.8-0.00419-3.49-0.0021-6.99 9.86e-4 -10.5 0.00225-3.76-0.00123-7.53-0.00398-11.3-0.00446-7.38-0.00348-14.8-5.87e-4 -22.1 0.00225-5.99 0.00257-12 0.00148-18-1.53e-4 -0.851-3.06e-4 -1.7-4.64e-4 -2.58-3.2e-4 -1.73-6.44e-4 -3.46-9.73e-4 -5.19-0.00285-16.2 4.32e-4 -32.5 0.0058-48.7 0.00447-13.9 0.00369-27.9-9.19e-4 -41.8-0.00535-16.2-0.00746-32.3-0.00439-48.5 3.19e-4 -1.72 6.33e-4 -3.45 9.43e-4 -5.17 1.54e-4 -0.848 3.09e-4 -1.7 4.68e-4 -2.57 8.65e-4 -5.99-5.98e-4 -12-0.00295-18-0.0028-7.29-0.00206-14.6 0.00328-21.9 0.00264-3.72 0.00364-7.45 3.51e-4 -11.2-0.00351-4.03 6.65e-4 -8.06 0.00568-12.1-0.00223-1.19-0.00446-2.38-0.00676-3.61 0.00261-1.07 0.00522-2.14 0.0079-3.24 1.62e-4 -0.931 3.25e-4 -1.86 4.92e-4 -2.82 0.125-2.09 0.125-2.09 1.13-3.09 2.36-0.16 4.7-0.259 7.07-0.316 0.714-0.0208 1.43-0.0416 2.17-0.063 2.3-0.0656 4.59-0.124 6.89-0.183 1.53-0.0432 3.05-0.0868 4.58-0.131 5.37-0.15 10.7-0.251 16.1-0.443z" fill="#003291"/>
<path transform="translate(902,482)" d="m0 0h2c0.33 28.7 0.66 57.4 1 87 26.6 0.289 26.6 0.289 53.2 0.568 5.14 0.059 5.14 0.059 7.54 0.0878 1.68 0.0193 3.37 0.0366 5.05 0.0524 2.55 0.0242 5.09 0.0546 7.64 0.0864 0.755 0.00577 1.51 0.0115 2.29 0.0175 5.15 0.0738 5.15 0.0738 6.26 1.19 0.0927 1.35 0.117 2.71 0.114 4.06-7.55e-5 0.861-1.51e-4 1.72-2.29e-4 2.61-0.00516 0.935-0.0103 1.87-0.0156 2.83-0.00212 1.43-0.00212 1.43-0.00429 2.89-0.00562 3.06-0.0182 6.11-0.0309 9.17-0.00501 2.07-0.00958 4.13-0.0137 6.2-0.0111 5.08-0.0283 10.2-0.0488 15.2-16.5 0.0233-33.1 0.041-49.6 0.0518-7.68 0.00516-15.4 0.0122-23 0.0236-6.69 0.00995-13.4 0.0164-20.1 0.0186-3.55 0.00131-7.09 0.00439-10.6 0.0116-3.95 0.00801-7.9 0.00826-11.9 0.0078-1.18 0.0036-2.37 0.00719-3.59 0.0109-1.07-0.00137-2.14-0.00275-3.24-0.00417-1.4 0.00138-1.4 0.00138-2.84 0.00279-2.11-0.123-2.11-0.123-3.11-1.12-0.116-2.35-0.168-4.66-0.177-7.01-0.00657-0.733-0.0131-1.47-0.0199-2.22-0.0198-2.44-0.0314-4.88-0.0414-7.31-0.00408-0.831-0.00815-1.66-0.0124-2.52-0.0209-4.4-0.0352-8.8-0.0445-13.2-0.0111-4.55-0.0454-9.09-0.0852-13.6-0.0262-3.5-0.0345-6.99-0.0381-10.5-0.00487-1.68-0.0165-3.35-0.035-5.03-0.0244-2.35-0.0234-4.7-0.0165-7.04-0.0192-1.04-0.0192-1.04-0.0388-2.09 0.0787-7.31 4.64-10.6 9.51-15.4 10.8-11.7 20.1-24.1 28.4-37.6 1.71-2.62 3.5-5.05 5.57-7.4z" fill="#003291"/>
<path transform="translate(168 232)" d="m0 0c0.77 4.58e-4 1.54 9.16e-4 2.33 0.00139 1.63 0.00302 3.25 0.0109 4.88 0.0233 2.5 0.0183 4.99 0.0205 7.49 0.0203 1.58 0.00491 3.16 0.0107 4.73 0.0176 1.13 0.00167 1.13 0.00167 2.28 0.00337 5.26 0.0485 5.26 0.0485 6.37 1.16 0.0969 2.11 0.122 4.23 0.12 6.35 8.54e-4 0.671 0.00171 1.34 0.00259 2.03 0.00166 2.26-0.00387 4.53-0.00932 6.79-2.82e-4 1.62-1.24e-4 3.23 4.43e-4 4.85 2.88e-4 4.4-0.00561 8.8-0.0126 13.2-0.00623 4.59-0.00684 9.19-0.00803 13.8-0.00311 8.71-0.0113 17.4-0.0213 26.1-0.0112 9.91-0.0167 19.8-0.0217 29.7-0.0105 20.4-0.0281 40.8-0.0503 61.2-1.59 0.333-3.19 0.661-4.78 0.988-0.888 0.183-1.78 0.367-2.69 0.556-3.71 0.669-7.09 1.17-10.5-0.544-1.51-0.14-3.02-0.225-4.54-0.281-0.891-0.0374-1.78-0.0748-2.7-0.113-1.89-0.0705-3.78-0.141-5.66-0.211-0.89-0.0374-1.78-0.0748-2.7-0.113-0.82-0.0303-1.64-0.0606-2.48-0.0918-1.92-0.189-1.92-0.189-2.92-1.19-0.103-2.08-0.135-4.17-0.14-6.26-0.00297-0.661-0.00594-1.32-9e-3 -2-0.00872-2.23-0.0102-4.46-0.0117-6.69-0.00463-1.59-0.00965-3.19-0.015-4.78-0.0131-4.34-0.0196-8.68-0.024-13-0.00293-2.71-0.00703-5.41-0.0115-8.12-0.0137-8.46-0.0233-16.9-0.0272-25.4-0.00448-9.79-0.022-19.6-0.051-29.4-0.0216-7.55-0.0317-15.1-0.033-22.7-0.00105-4.52-0.00702-9.03-0.0248-13.5-0.0164-4.25-0.0187-8.49-0.00986-12.7 7.74e-4 -1.56-0.00362-3.12-0.0135-4.69-0.0126-2.13-0.00691-4.25 0.00358-6.38-0.00147-1.19-0.00293-2.38-0.00444-3.61 0.123-0.915 0.245-1.83 0.372-2.77 3.73-2.48 6.6-2.27 10.9-2.23z" fill="#FBFDFD"/>
<path transform="translate(47.3 739)" d="m0 0c0.868-0.00235 1.74-0.00471 2.63-0.00713 0.952 0.00251 1.9 0.00502 2.88 0.0076 1.02-0.00128 2.04-0.00256 3.09-0.00387 3.45-0.00309 6.89 0.00101 10.3 0.00502 2.49-7.39e-4 4.99-0.00192 7.48-0.0035 5.46-0.00244 10.9-0.00174 16.4 0.00166 8.17 0.00507 16.3 0.00437 24.5 0.00253 13.9-0.00297 27.8-0.00119 41.7 0.00314 14.1 0.00437 28.2 0.00657 42.3 0.0061 0.89-2.87e-5 1.78-5.74e-5 2.7-8.69e-5 4.54-1.56e-4 9.08-3.48e-4 13.6-5.53e-4 32.9-0.00141 65.7 0.00203 98.6 0.00802 32.6 0.00592 65.1 0.00977 97.7 0.0109 1.52 5.16e-5 1.52 5.16e-5 3.06 1.04e-4 9.23 3.13e-4 18.5 6.01e-4 27.7 8.58e-4 22.9 6.39e-4 45.9 0.0016 68.8 0.00278 1.57 8e-5 1.57 8e-5 3.17 1.62e-4 50.9 0.00262 102 0.00893 153 0.0155 17.7 0.00229 35.3 0.00457 53 0.00677 1.64 2.05e-4 1.64 2.05e-4 3.32 4.15e-4 50.9 0.00634 102 0.0101 153 0.0131 3.3 1.98e-4 6.6 3.97e-4 9.91 5.97e-4 21.9 0.00132 43.8 0.00259 65.7 0.00384 43.5 0.00248 87.1 0.00522 131 0.00814 2.07 1.39e-4 4.15 2.78e-4 6.22 4.17e-4 93.4 0.00625 187 0.0156 280 0.0263 0.875 9.99e-5 1.75 2e-4 2.65 3.03e-4 43.7 5e-3 87.5 0.0102 131 0.0156v4c-44.6 0.0055-89.2 0.0108-134 0.0159-1.31 1.5e-4 -1.31 1.5e-4 -2.65 3.02e-4 -93.5 0.0107-187 0.0199-281 0.0262-2.08 1.39e-4 -4.15 2.79e-4 -6.23 4.18e-4 -43.6 0.00292-87.2 0.00564-131 0.00812-21.9 0.00125-43.8 0.00253-65.7 0.00385-3.3 1.99e-4 -6.61 3.97e-4 -9.91 5.95e-4 -50.9 0.00306-102 0.00697-153 0.0133-1.09 1.37e-4 -2.19 2.74e-4 -3.32 4.15e-4 -17.6 0.00221-35.3 0.0045-52.9 0.00679-50.8 0.0066-102 0.0127-152 0.0153-1.04 5.35e-5 -2.09 1.07e-4 -3.16 1.62e-4 -22.9 0.00117-45.8 0.00206-68.8 0.0027-9.22 2.62e-4 -18.4 5.62e-4 -27.7 8.76e-4 -1.51 5.01e-5 -1.51 5.01e-5 -3.06 1.01e-4 -32.6 0.0011-65.1 0.00537-97.7 0.0113-32.8 0.00596-65.6 0.00882-98.3 0.00734-4.52-2.03e-4 -9.05-3.7e-4 -13.6-5.16e-4 -0.887-2.99e-5 -1.77-5.98e-5 -2.69-9.05e-5 -14.1-3.81e-4 -28.1 0.00261-42.2 0.00699-13.8 0.00423-27.6 0.00494-41.5 0.00182-8.11-0.00172-16.2-6.69e-4 -24.3 0.00439-6.01 0.00344-12 0.00173-18-0.00208-2.43-7.2e-4 -4.86 2.71e-4 -7.28 0.0031-3.28 0.00357-6.55 0.00107-9.83-0.00304-0.952 0.00251-1.9 0.00502-2.88 0.0076-0.868-0.00235-1.74-0.00471-2.63-0.00713-1.12 9.6e-5 -1.12 9.6e-5 -2.26 1.94e-4 -2.13-0.129-4.02-0.54-6.07-1.12v-2c2.85-0.812 5.38-1.12 8.34-1.12z" fill="#FCFDFF"/>
<path transform="translate(487 232)" d="m0 0c0.77 4.58e-4 1.54 9.16e-4 2.33 0.00139 1.63 0.00302 3.25 0.0109 4.88 0.0233 2.5 0.0183 4.99 0.0205 7.49 0.0203 1.58 0.00491 3.16 0.0107 4.73 0.0176 1.13 0.00167 1.13 0.00167 2.28 0.00337 5.26 0.0485 5.26 0.0485 6.37 1.16 0.158 2.21 0.244 4.43 0.304 6.65 0.0194 0.696 0.0388 1.39 0.0589 2.11 0.171 6.53 0.266 13.1 0.341 19.6 0.0507 4.37 0.124 8.74 0.256 13.1 0.662 22.4-0.7 39.5-11.4 59.5-2.76 5.33-5.08 10.9-7.46 16.4-0.907 2.05-1.82 4.11-2.73 6.16-2 4.55-3.86 9.14-5.65 13.8-2.7 6.92-6.07 13.3-9.75 19.8-2.24-3.36-2.29-4.64-2.41-8.59-0.0377-1.14-0.0754-2.29-0.114-3.47-0.0301-1.24-0.0602-2.49-0.0911-3.77-0.0375-1.3-0.0749-2.59-0.114-3.93-0.389-14-0.457-28.1-0.477-42.1-0.00275-1.35-0.00561-2.7-0.00857-4.06-0.0135-6.32-0.0233-12.6-0.0272-19-0.00453-7.25-0.0224-14.5-0.051-21.7-0.0216-5.66-0.0317-11.3-0.033-17-0.00105-3.36-0.00692-6.72-0.0248-10.1-0.0169-3.71-0.0152-7.43-0.00869-11.1-0.00921-1.11-0.0184-2.21-0.0279-3.35 0.00557-1 0.0111-2.01 0.0169-3.04-0.00147-0.875-0.00293-1.75-0.00444-2.65 0.123-0.694 0.245-1.39 0.372-2.1 3.73-2.48 6.6-2.27 10.9-2.23z" fill="#FBFDFD"/>
<path transform="translate(477,413)" d="m0 0h2c1.07 2.08 2.13 4.16 3.19 6.25 0.592 1.16 1.18 2.32 1.79 3.52 2.11 4.3 3.91 8.71 5.73 13.1 1.58 3.8 3.24 7.55 4.91 11.3 0.91 2.05 1.81 4.11 2.7 6.17 2.54 5.88 5.17 11.6 8.08 17.4 10.1 20.5 11.3 38.6 10.5 61.2-0.136 4.32-0.193 8.64-0.258 13-0.137 8.39-0.357 16.8-0.635 25.1-5.39 0.0246-10.8 0.0428-16.2 0.0549-1.84 0.00504-3.67 0.0119-5.51 0.0205-2.63 0.0121-5.27 0.0178-7.9 0.0222-1.24 0.00774-1.24 0.00774-2.5 0.0156-1.97 1.96e-4 -3.94-0.0513-5.91-0.113-1.96-1.96-1.13-4.98-1.14-7.59 0.00202-0.953 0.00405-1.91 0.00613-2.89-0.00175-0.999-0.0035-2-0.00531-3.03-0.00444-3.34-0.00146-6.69 0.00189-10-6.75e-4 -2.35-0.00165-4.71-0.0029-7.06-0.00148-4.98 6.84e-4 -9.96 0.00534-14.9 0.00556-6.24 0.00242-12.5-0.00345-18.7-0.0245-30.9 0.294-61.8 1.13-92.7z" fill="#FBFDFD"/>
<path transform="translate(1084,325)" d="m0 0c0.746 2.71 1.16 5.21 1.28 8.01 0.0374 0.759 0.0748 1.52 0.113 2.3 0.0522 1.18 0.0522 1.18 0.105 2.38 0.0703 1.55 0.143 3.09 0.219 4.64 0.0303 0.682 0.0606 1.36 0.0918 2.07 0.162 2.23 0.387 4.43 0.641 6.65 0.644 5.66 1.12 11.3 1.6 17 0.204 2.39 0.408 4.78 0.612 7.18 0.106 1.25 0.212 2.49 0.321 3.78 1.64 19.3 3.32 38.7 5.14 58 0.162 1.73 0.324 3.46 0.487 5.19 0.235 2.51 0.47 5.01 0.706 7.52 0.755 8.05 1.51 16.1 2.23 24.1 0.131 1.44 0.264 2.89 0.398 4.33 0.709 7.63 1.26 15.2 1.05 22.8-4.54 0.0247-9.08 0.0428-13.6 0.0549-1.55 0.00504-3.09 0.0119-4.64 0.0205-2.22 0.0121-4.43 0.0178-6.65 0.0222-1.04 0.00774-1.04 0.00774-2.11 0.0156-1.66 1.96e-4 -3.33-0.0514-4.99-0.113-0.33-0.33-0.66-0.66-1-1 0.0469-2.46 0.161-4.88 0.328-7.34 0.0486-0.761 0.0972-1.52 0.147-2.31 0.537-8.09 1.27-16.2 2.02-24.2 0.447-4.77 0.885-9.54 1.33-14.3 0.094-1.02 0.188-2.03 0.285-3.08 1.07-11.6 2.1-23.3 3.13-34.9 1.47-16.5 2.93-33 4.51-49.5 0.115-1.22 0.231-2.44 0.35-3.7 0.106-1.09 0.213-2.19 0.322-3.31 0.0886-0.916 0.177-1.83 0.269-2.78 0.31-2.52 0.31-2.52 0.826-5.08 0.459-2.32 0.681-4.51 0.8-6.87 0.0628-1.19 0.0628-1.19 0.127-2.41 0.059-1.22 0.059-1.22 0.119-2.47 0.0432-0.836 0.0864-1.67 0.131-2.53 0.105-2.05 0.207-4.1 0.307-6.15 0.99-0.33 1.98-0.66 3-1v-3z" fill="#FBFDFD"/>
<path transform="translate(335,327)" d="m0 0c3 2 3 2 3.58 4.01 0.146 1.25 0.146 1.25 0.295 2.52 0.173 1.43 0.173 1.43 0.35 2.9 0.11 1.05 0.22 2.1 0.334 3.19 0.124 1.1 0.249 2.21 0.377 3.35 1.08 10.1 1.73 20.2 2.24 30.3 0.542 10.2 1.55 20.3 2.59 30.4 1.02 9.96 1.94 19.9 2.81 29.9 0.0642 0.738 0.128 1.48 0.194 2.23 0.39 4.5 0.778 8.99 1.16 13.5 0.264 3.07 0.531 6.14 0.797 9.21 0.324 3.73 0.646 7.46 0.969 11.2 0.0592 0.684 0.118 1.37 0.179 2.07 0.681 7.88 1.32 15.7 1.85 23.6 0.187 2.71 0.187 2.71 1.27 5.6-4.68 0.0247-9.36 0.0428-14 0.0549-1.59 0.00504-3.19 0.0119-4.78 0.0205-2.29 0.0121-4.57 0.0178-6.86 0.0222-0.717 0.00516-1.43 0.0103-2.17 0.0156-1.72 1.96e-4 -3.43-0.0514-5.14-0.113-0.33-0.33-0.66-0.66-1-1 0.0125-2.89 0.103-5.74 0.25-8.62 0.0466-0.937 0.0933-1.87 0.141-2.84 0.501-9.07 1.4-18.1 2.31-27.1 1.27-12.6 2.29-25.2 3.3-37.8 1.24-15.5 2.54-31 4.05-46.4 0.692-7.11 1.25-14.2 1.68-21.3 0.27-2.77 0.27-2.77 1.27-4.77 0.21-2.73 0.375-5.45 0.5-8.19 0.25-5.33 0.661-10.5 1.5-15.8z" fill="#FBFDFD"/>
<path transform="translate(1401,325)" d="m0 0c0.66 0.33 1.32 0.66 2 1 0.435 2.37 0.723 4.65 0.945 7.04 0.0798 0.784 0.16 1.57 0.242 2.37 0.285 2.86 0.551 5.72 0.813 8.58 0.105 1.14 0.21 2.27 0.318 3.44 0.812 8.87 1.59 17.7 2.36 26.6 0.331 3.8 0.664 7.59 0.997 11.4 0.531 6.05 1.06 12.1 1.59 18.2 0.887 10.2 1.78 20.3 2.68 30.5 0.161 1.82 0.322 3.64 0.482 5.46 0.784 8.88 1.59 17.8 2.48 26.6 0.108 1.08 0.108 1.08 0.218 2.18 0.327 3.26 0.661 6.52 1.01 9.78 0.79 7.74 0.863 15 0.863 22.9h-32c-0.807-4.04-1.06-6.31-0.702-10.2 0.0906-1.03 0.181-2.05 0.275-3.11 0.105-1.1 0.21-2.21 0.318-3.35 0.104-1.15 0.209-2.31 0.316-3.5 0.341-3.75 0.692-7.5 1.04-11.3 0.237-2.58 0.473-5.17 0.708-7.75 1.26-13.7 2.58-27.5 4.01-41.2 1.21-11.9 2.08-23.8 2.94-35.8 0.566-7.81 1.22-15.6 2.12-23.4 0.0814-0.722 0.163-1.44 0.247-2.19 0.602-5.02 0.602-5.02 1.73-7.27 0.0468-1.77 0.0375-3.54 0-5.31-0.147-17.4-0.147-17.4 2-21.7z" fill="#FBFDFD"/>
<path transform="translate(633,538)" d="m0 0c0.66 0.33 1.32 0.66 2 1v32c-10-5-10-5-12-7-0.835-6.03-0.214-10.8 3-16 0.856-1.6 1.71-3.21 2.56-4.81 2.18-4.06 2.18-4.06 4.44-5.19z" fill="#003291"/>
<path transform="translate(1401,325)" d="m0 0c0.66 0.33 1.32 0.66 2 1 0.528 2.63 0.904 5.15 1.19 7.81 0.086 0.792 0.172 1.58 0.261 2.4 0.588 6.25 0.6 12.4 0.302 18.7-0.0384 0.849-0.0769 1.7-0.116 2.57-0.251 4.07-0.62 6.93-2.63 10.6-0.541-4.39-1.05-8.79-1.56-13.2-0.151-1.23-0.303-2.45-0.459-3.72-2.22-19.6-2.22-19.6 1.02-26.1z" fill="#FCFDFF"/>
<path transform="translate(1084,325)" d="m0 0c3.78 13.6 2.21 29.2 0 43h-1c-0.133-1.26-0.266-2.53-0.402-3.83-0.178-1.66-0.357-3.32-0.535-4.98-0.087-0.833-0.174-1.67-0.264-2.53-0.131-1.2-0.131-1.2-0.264-2.43-0.0786-0.738-0.157-1.48-0.238-2.24-0.269-2.2-0.269-2.2-1.3-4.99-0.0217-1.99-0.0217-1.99 0.121-4.23 0.0483-0.802 0.0967-1.6 0.146-2.43 0.0561-0.833 0.112-1.67 0.17-2.53 0.0783-1.27 0.0783-1.27 0.158-2.56 0.13-2.08 0.266-4.17 0.404-6.25 0.99-0.33 1.98-0.66 3-1v-3z" fill="#FCFDFF"/>
<path transform="translate(335,327)" d="m0 0c3 2 3 2 3.69 5.19 0.997 11.3 0.281 22.6-0.688 33.8h-1c-0.66-4.95-1.32-9.9-2-15h-1c-0.0272-2.69-0.0469-5.37-0.0625-8.06-0.00838-0.752-0.0168-1.5-0.0254-2.28-0.0202-4.66 0.312-9.06 1.09-13.7z" fill="#FCFDFF"/>
<path transform="translate(157,446)" d="m0 0h2c6.17 9.25 4.2 22.4 4 33h-1c-0.99-4.62-1.98-9.24-3-14h-1c-0.84-4.35-1.11-8.44-1.06-12.9 0.00902-1.15 0.018-2.3 0.0273-3.49 0.0116-0.869 0.0232-1.74 0.0352-2.63z" fill="#FCFDFF"/>
<path transform="translate(477,413)" d="m0 0h2c3.72 6.27 4.53 10.8 4 18-4.41-6.61-6.56-10-6-18z" fill="#FCFDFF"/>
<path transform="translate(482,374)" d="m0 0h1c0.543 6.66-0.227 10.5-4 16-2.24-3.35-2.17-3.91-1.62-7.69 0.111-0.808 0.222-1.62 0.336-2.45 0.0954-0.615 0.191-1.23 0.289-1.86h2c0.66-1.32 1.32-2.64 2-4z" fill="#FCFDFF"/>
<path transform="translate(634,549)" d="m0 0h2c0.949 6.86 0.949 13.1 0 20h-2v-20z" fill="#FBFDFE"/>
<path transform="translate(634,338)" d="m0 0 6 4c-0.33 0.99-0.66 1.98-1 3-0.99-0.33-1.98-0.66-3-1v4h-2v-10z" fill="#FBFDFE"/>
</svg>
