<svg xmlns="http://www.w3.org/2000/svg" version="1.1" viewBox="0 0 1600 248">
<path transform="translate(0)" d="m0 0h1600v248h-1600v-248z" fill="#FBFDFF"/>
<path transform="translate(1354 34.8)" d="m0 0c0.762-0.00807 1.52-0.0161 2.31-0.0245 1.6-0.0137 3.2-0.0245 4.8-0.0324 1.62-0.0115 3.23-0.032 4.85-0.0615 9.7-0.177 17.9 0.0335 26.8 4.36 0.683 0.309 1.37 0.618 2.07 0.937 1.79 0.832 3.55 1.73 5.31 2.63 1.14 0.579 2.28 1.16 3.46 1.75 4.19 2.23 7.9 4.21 11.2 7.68 1.18 1.01 2.37 2 3.56 3 12.5 11 21.6 23.3 24.4 40 0.66 0.99 1.32 1.98 2 3 0.963-1.56 1.92-3.12 2.88-4.69 0.534-0.87 1.07-1.74 1.62-2.64 1.57-2.63 1.57-2.63 2.58-5.45 0.93-2.23 0.93-2.23 2.93-3.23 0.299-0.617 0.598-1.23 0.906-1.87 1.23-2.39 2.5-3.53 4.59-5.19 2.44-1.95 3.72-3.27 5.5-5.94 1.32-0.684 2.66-1.35 4-2 1.01-0.993 2.01-1.99 3-3 4.67-3.87 9.57-7 14.9-9.85 2.28-1.21 2.28-1.21 5.02-3.21 8.05-5.09 17.8-8.53 27.4-6.43 1.97 0.712 3.8 1.54 5.67 2.49 1.01 0.433 2.02 0.866 3.06 1.31 6.87 3.95 11.5 9.21 15.9 15.7 0.432 0.593 0.864 1.19 1.31 1.8 6.83 9.95 9.63 21.7 10.2 33.6 0.201 4.21 0.451 8.3 1.08 12.5 0.42 3.17 0.0234 5.05-0.988 8.04-0.758 2.71-1.05 5.39-1.41 8.18-2.17 14.7-8.56 27.4-17.4 39.1-0.655 0.866-0.655 0.866-1.32 1.75-1.09 1.4-2.25 2.73-3.43 4.06h-2c-0.268 0.639-0.536 1.28-0.812 1.94-1.19 2.06-1.19 2.06-4.19 3.06-0.268 0.598-0.536 1.2-0.812 1.81-3.61 6.65-12.5 8.2-19.2 10.2-14 4.1-26.3 1.41-39-5-0.831-0.416-1.66-0.833-2.52-1.26-4.58-2.41-8.02-4.83-11.5-8.74-0.663-0.683-1.33-1.37-2.01-2.07-4.25-4.49-6.95-7.79-7.99-13.9h-2c-3.17-6.37-5.6-11.8-6-19h-3c-0.228 0.69-0.456 1.38-0.691 2.09-1.61 3.57-3.81 6.44-6.25 9.47-0.483 0.608-0.966 1.22-1.46 1.84-4.15 5.16-8.55 10.1-13.1 14.9-1.77 1.92-3.45 3.83-5.1 5.85-1.94 2.31-3.81 4.3-6.1 6.24-0.581 0.503-1.16 1.01-1.76 1.52-1.55 1.1-1.55 1.1-3.55 1.1-0.33 0.99-0.66 1.98-1 3-4.45 3.02-9.26 5.47-14 8-0.64 0.348-1.28 0.696-1.94 1.05-9.72 5.25-19.6 9.12-30.1 12.3-1.67 0.513-3.33 1.05-4.99 1.6-5.33 1.72-10.4 2.71-16 3-1.28 0.0877-2.56 0.175-3.88 0.266-12.1 0.609-12.1 0.609-16.6-2.52-2.64-2.94-2.95-5.49-3.06-9.38 0.61-9.74 2.66-19 5.1-28.4 1.29-5.03 2.18-10.1 2.96-15.2 0.653-3.58 1.73-6.96 2.84-10.4 0.648-2.3 0.98-4.46 1.22-6.83 0.438-3.5 0.438-3.5 2.44-5.5 0.615-2.27 0.615-2.27 1-4.9 0.165-0.973 0.33-1.95 0.5-2.95 0.165-1.02 0.33-2.04 0.5-3.09 0.327-2.01 0.66-4.02 1-6.03 0.144-0.893 0.289-1.79 0.438-2.71 0.562-2.33 0.562-2.33 2.56-5.33 0.545-2.07 1.01-4.15 1.44-6.25 0.259-1.25 0.518-2.49 0.785-3.78 0.526-2.63 1.01-5.27 1.46-7.91 2.56-14.3 2.56-14.3 7.32-20.1 2.94-0.98 4.83-1.12 7.89-1.1 0.938 0.00322 1.88 0.00645 2.84 0.00977 1.46 0.0126 1.46 0.0126 2.96 0.0254 1.48 0.00677 1.48 0.00677 2.99 0.0137 2.44 0.0118 4.88 0.0282 7.32 0.0488v2h2c-1.49 8.31-3.05 16.5-5.18 24.7-1.23 4.9-2.3 9.84-3.37 14.8-1.06 4.86-2.23 9.67-3.45 14.5-1.89 7.76-3.52 15.5-4.94 23.4-0.605 3.31-1.26 6.55-2.18 9.79-1.41 6.13-1.88 12.5-1.88 18.8 0.818-0.273 0.818-0.273 1.65-0.551 1.13-0.377 1.13-0.377 2.29-0.762 1.22-0.41 1.22-0.41 2.46-0.828 1.72-0.568 3.44-1.12 5.16-1.66 0.803-0.253 1.61-0.505 2.43-0.766 0.743-0.228 1.48-0.456 2.25-0.691 1.95-0.609 1.95-0.609 2.75-2.75 1.91-0.974 3.83-1.94 5.76-2.88 7.81-3.9 13.9-9.13 20.2-15.1 1.29-1.18 1.29-1.18 2.61-2.38 6.25-5.9 10.7-11.9 14.4-19.6 0.581-1.17 1.16-2.35 1.76-3.56 4.08-9.16 4.8-18 4.86-27.9 0.0109-1.19 0.0218-2.39 0.033-3.62-0.187-11.5-3.86-19.5-11.7-27.9-15.1-14.3-33.1-17.2-53-17.1-1.02-0.00387-2.03-0.00773-3.08-0.0117-11.5-0.479-11.5-0.479-21.9 3.14-6.24 1.19-12.7 1.1-19 1 0-3 0-3 1.38-4.69 1.62-1.31 1.62-1.31 3.62-1.31v-2c3.33-1.33 6.67-2.67 10-4 0.744-0.342 1.49-0.683 2.25-1.04 3.92-1.38 7.9-1.91 12-2.53 5.3-0.358 5.3-0.358 9.75-2.44 5.44-0.84 10.8-1.18 16.3-1.24z" fill="#65C3E8"/>
<path transform="translate(75.8 34.7)" d="m0 0c0.79 0.00405 1.58 0.0081 2.39 0.0123 0.811-0.00191 1.62-0.00383 2.46-0.0058 1.72-0.00136 3.43 0.00234 5.15 0.0107 2.63 0.0107 5.26 1.13e-4 7.89-0.0127 1.67 0.00132 3.33 0.00388 5 0.00781 0.788-0.00405 1.58-0.0081 2.39-0.0123 3.84 0.0329 5.66 0.0996 8.93 2.28 1.93 0.575 3.87 1.11 5.81 1.62 12.1 3.61 22.4 10.4 31.2 19.4 0.61 0.565 1.22 1.13 1.85 1.71 11.1 10.4 18.9 24.6 19.4 40 0.00854 1.58 0.00309 3.17-0.0156 4.75-0.00677 0.833-0.0135 1.67-0.0205 2.52-0.222 13.2-3.54 24.8-12.7 34.6-10.5 9.81-25.9 12.7-39.5 15.4-0.964 0.193-1.93 0.387-2.92 0.586-0.686 0.137-1.37 0.273-2.08 0.414 0.398 6.64 2.42 12.2 4.74 18.4 1.13 3.23 2 6.38 2.76 9.71 1.48 6.28 3.93 12 6.5 17.9 1.08 2.71 2.15 5.42 3.2 8.14 0.651 1.84 0.651 1.84 1.8 2.86 0.0406 1.67 0.0427 3.33 0 5-3.56 1.89-6.73 2.49-10.8 1.87-10.1-3.9-19-16.6-23.2-26.1-1.77-4.13-3.44-8.3-5.07-12.5-0.894-2.26-0.894-2.26-1.99-4.36-0.938-1.91-0.938-1.91-1.81-5.09-1.13-3.84-2.62-7.28-4.32-10.9-0.805-1.92-0.805-1.92-0.805-3.92-4.62 0.33-9.24 0.66-14 1-2.3 6.8-4.43 13.6-6.5 20.5-5.81 19.3-5.81 19.3-8.62 25.4-0.333 0.731-0.665 1.46-1.01 2.21-0.606 1.29-1.23 2.57-1.87 3.85-2.21 0.0817-4.42 0.139-6.63 0.188-1.23 0.0348-2.46 0.0696-3.73 0.105-3.99-0.321-6.3-1.11-9.65-3.29-1.92-2.98-2.2-4.96-1.79-8.45 0.138-1.27 0.138-1.27 0.279-2.57 0.108-0.88 0.215-1.76 0.326-2.67 0.096-0.86 0.192-1.72 0.291-2.61 0.194-1.72 0.393-3.45 0.6-5.17 0.196-1.68 0.378-3.36 0.544-5.04 0.117-1.18 0.117-1.18 0.237-2.38 0.0654-0.694 0.131-1.39 0.198-2.1 0.346-2.2 0.979-4.12 1.75-6.2 1.87-5.14 2.42-10.4 3.04-15.8 0.527-3.04 0.527-3.04 2.53-6.04 0.51-1.97 0.51-1.97 0.781-4.12 0.18-1.18 0.18-1.18 0.363-2.39 0.117-0.82 0.235-1.64 0.355-2.48 0.233-1.63 0.472-3.25 0.719-4.88 0.102-0.719 0.205-1.44 0.311-2.18 0.471-1.95 0.471-1.95 2.47-4.95 0.568-2.84 1.07-5.64 1.5-8.5 1.23-8.09 1.23-8.09 3.5-11.5 0.568-2.84 1.07-5.64 1.5-8.5 1.23-8.09 1.23-8.09 3.5-11.5 0.82-3.53 1.46-7.08 2.12-10.7 0.852-3.24 1.55-4.98 3.88-7.35 4.32-1.44 8.48-1.18 13-1.19 1.37-0.0184 1.37-0.0184 2.77-0.0371 0.879-0.00193 1.76-0.00387 2.66-0.00586 0.803-0.00411 1.61-0.00822 2.43-0.0125 2.13 0.243 2.13 0.243 5.13 2.24-1.53 10.6-4.11 20.9-6.86 31.2-1.64 6.29-2.79 12.5-3.62 19-0.527 2.81-0.527 2.81-1.55 4.83-1.28 2.59-1.4 4.86-1.61 7.73-0.0748 0.985-0.15 1.97-0.227 2.98-0.049 0.748-0.098 1.5-0.148 2.27 7.63 2.14 15.6 0.938 23.4 0.125 0.785-0.0784 1.57-0.157 2.38-0.238 3.84-0.431 6.87-0.892 10.2-2.89 1.62-0.613 3.25-1.22 4.87-1.81 9.42-3.74 14.7-10.5 19.1-19.5 1.35-3.52 1.72-6.78 1.92-10.5 0.117-2.17 0.117-2.17 0.742-4.67 1.8-12-3.9-22-10.6-31.5-0.567-0.561-1.13-1.12-1.72-1.7-1.28-1.3-1.28-1.3-1.28-3.3-0.969-0.289-1.94-0.578-2.94-0.875-3.06-1.12-3.06-1.12-4.06-3.12-20.9-11.1-43.8-12.2-67-9-0.614 0.33-1.23 0.66-1.86 1-3.47 1.62-7.11 1.47-10.9 1.62-0.793 0.0387-1.59 0.0773-2.4 0.117-1.95 0.0939-3.9 0.177-5.85 0.258-0.33-1.32-0.66-2.64-1-4 1.65-0.66 3.3-1.32 5-2v-2c1.03-0.398 1.03-0.398 2.08-0.805l2.73-1.07c0.893-0.348 1.79-0.696 2.71-1.05 2.66-1.06 2.66-1.06 5.48-3.07 1.92-0.344 1.92-0.344 4.19-0.5 4.78-0.404 9.55-0.882 14.3-1.44 0.707-0.0748 1.41-0.15 2.14-0.227 5.17-0.611 7.85-3.07 13.1-3.11z" fill="#65C2E8"/>
<path transform="translate(1281 34.4)" d="m0 0c3.87 2.01 5.44 4.61 7 8.56 0.503 2.96 0.475 5.82 0.375 8.81-0.0136 0.816-0.0272 1.63-0.0413 2.47-0.56 22.2-0.56 22.2-3.33 27.7-0.285 2.73-0.52 5.45-0.719 8.18-0.0628 0.811-0.126 1.62-0.19 2.46-0.201 2.6-0.397 5.2-0.591 7.8-0.256 3.42-0.517 6.83-0.781 10.2-0.0573 0.788-0.115 1.58-0.174 2.39-0.244 3.16-0.539 5.91-1.55 8.93-0.208 2.27-0.367 4.55-0.5 6.83-0.0406 0.667-0.0812 1.33-0.123 2.02-0.129 2.13-0.254 4.27-0.377 6.4-0.124 2.12-0.249 4.24-0.377 6.36-0.117 1.93-0.23 3.87-0.342 5.8-0.187 2.39-0.454 4.77-0.802 7.14-0.806 5.8-0.664 11.6-0.667 17.5-0.0122 1.25-0.0245 2.49-0.0371 3.77-0.00986 6.17 0.173 11.4 2.22 17.2 0.188 3.37 0.188 3.37 0 6-1 1-1 1-4 1.44-7.04-0.144-12.5-5.64-17.1-10.4-4.83-5.66-7.81-12.3-10.9-19-5.12 1.75-8.53 4.75-12.6 8.22-2.4 1.78-2.4 1.78-4.65 2.34-0.579 0.146-1.16 0.291-1.75 0.441-0.33 0.99-0.66 1.98-1 3-6.89 3.69-15.2 6.95-23 5-8.61-3.81-12.1-11.8-15.3-20.1-1.14-3.27-1.91-6.56-2.67-9.93-0.18-0.784-0.36-1.57-0.546-2.38-0.495-2.86-0.583-5.54-0.587-8.44-0.00129-1.09-0.00258-2.19-0.00391-3.31 0.00387-1.13 0.00773-2.26 0.0117-3.43-0.00387-1.14-0.00773-2.27-0.0117-3.44 0.00129-1.09 0.00258-2.18 0.00391-3.31 0.00113-0.995 0.00226-1.99 0.00342-3.01 0.116-2.4 0.482-4.37 1.13-6.67 0.254-2.55 0.44-5.1 0.621-7.66 0.379-2.34 0.379-2.34 2.38-5.34 0.513-2.1 0.513-2.1 0.781-4.42 0.12-0.861 0.24-1.72 0.363-2.61 0.117-0.897 0.235-1.79 0.355-2.72 1.25-9.43 1.25-9.43 2.55-13.8 1.24-4.55 1.49-8.93 1.7-13.6 0.0554-0.88 0.111-1.76 0.168-2.67 0.322-6.34 0.322-6.34-1.92-12.2-1.85-1.05-1.85-1.05-4-2-1.69-1.64-3.35-3.31-5-5-1.86-1.58-3.74-3.13-5.64-4.67-0.447-0.44-0.895-0.879-1.36-1.33v-2c-1.32-0.66-2.64-1.32-4-2 0.188-2.88 0.188-2.88 1-6 4.72-3.02 10.4-2.13 15.8-1.88 0.951 0.0232 1.9 0.0464 2.88 0.0703 9.35 0.41 16.6 3.25 23.4 9.8v2h2c6.11 9.7 7.48 18.7 7.31 30.1 0.00322 1.12 0.00645 2.24 0.00977 3.39-0.0369 5.71-0.4 11-1.81 16.5-0.651 2.59-1.05 5.21-1.45 7.85-1.35 8.91-3.18 17.7-5.12 26.5-0.257 1.17-0.515 2.35-0.78 3.56-0.249 1.11-0.498 2.22-0.755 3.37-0.222 0.99-0.444 1.98-0.672 3-0.73 2.76-0.73 2.76-1.79 5.38-1.36 3.45-1.4 6.92-1.56 10.6-0.058 1.09-0.058 1.09-0.117 2.19-0.132 2.54-0.258 5.07-0.258 7.62 7.32 0.578 14.3-1.45 20-6 0.959-0.402 0.959-0.402 1.94-0.812 3.08-1.78 4.98-4.37 7.06-7.19 0.437-0.577 0.874-1.16 1.32-1.75 3.38-4.87 4.77-9.65 6-15.4 0.676-2.83 0.676-2.83 1.7-5.24 1.24-3.27 1.58-6.37 1.98-9.84 0.511-4.27 1.08-8.45 2.12-12.6 0.934-3.81 1.01-7.36 0.848-11.3 0.0273-1.85 0.0273-1.85 1.03-3.85 0.248-2.47 0.429-4.9 0.562-7.38 0.067-1.15 0.067-1.15 0.135-2.33 0.26-5.19 0.312-10.4 0.259-15.5-0.0117-1.25-0.0234-2.5-0.0354-3.79-0.0308-2.49-0.0752-4.99-0.134-7.48-0.0224-1.73-0.0224-1.73-0.0452-3.5-0.0221-1.03-0.0442-2.06-0.0669-3.13 0.469-4.12 2.14-6.76 5.16-9.55 3.93-2.83 7.74-5.29 12.2-7.3 0.66-0.433 1.32-0.866 2-1.31 2-0.688 2-0.688 5-0.25z" fill="#64C3E8"/>
<path transform="translate(1100,32)" d="m0 0c2.66 0.354 5.25 0.607 7.92 0.781 1.17 0.0885 1.17 0.0885 2.36 0.179 2.49 0.188 4.98 0.365 7.47 0.54 2.48 0.175 4.95 0.353 7.43 0.54 1.54 0.116 3.08 0.226 4.62 0.327 4.63 0.348 8.74 1.26 13.2 2.63 2.51 0.348 5.03 0.618 7.56 0.812 1.26 0.11 2.52 0.219 3.82 0.332 3.99-0.159 6.18-1.19 9.62-3.14h2c3.8 9.98 3.3 16-0.613 26-1.24 2.66-2.52 4.74-4.39 6.99-1.18-0.296-2.36-0.593-3.58-0.898-6.65-1.48-13.4-2.06-20.2-2.73-1.3-0.134-2.6-0.268-3.94-0.406-7.64-0.788-7.64-0.788-15.3-0.969-2.22 8.21-3.76 16.3-4.94 24.8-1.28 8.73-2.83 17.2-5.12 25.7-0.954 3.6-1.75 7.2-2.5 10.8-0.826 3.98-1.76 7.86-2.94 11.8-1.58 5.69-2.37 11.4-3.16 17.2-1.26 9.24-2.64 18.5-4.05 27.7-0.274 1.79-0.547 3.59-0.818 5.38-0.385 2.54-0.774 5.09-1.16 7.63-0.175 1.16-0.175 1.16-0.353 2.35-0.837 5.41-0.837 5.41-1.95 7.64-0.196 1.52-0.344 3.05-0.465 4.58-0.078 0.914-0.156 1.83-0.236 2.77-0.156 1.92-0.31 3.84-0.461 5.76-0.424 4.91-0.983 9.27-2.84 13.9-4.07-0.239-6.45-0.591-9.75-3.06-4.27-5.58-5.31-11.1-6.25-17.9-0.66-0.99-1.32-1.98-2-3-0.335-2.62-0.335-2.62-0.449-5.8-0.044-1.19-0.088-2.38-0.133-3.6-0.052-1.93-0.052-1.93-0.105-3.91-0.02-0.665-0.0399-1.33-0.0605-2.02-0.398-13.6 0.0101-27.1 0.595-40.7 0.177-4.39 0.278-8.78 0.375-13.2 0.0365-1.53 0.0731-3.06 0.11-4.6 0.0536-2.24 0.105-4.48 0.146-6.71 0.0388-2.06 0.0895-4.12 0.143-6.18 0.0376-1.77 0.0376-1.77 0.0759-3.58 0.303-2.78 0.303-2.78 2.3-4.78 0.448-2.34 0.448-2.34 0.598-5.06 0.0793-1.03 0.159-2.05 0.24-3.11 0.0741-1.08 0.148-2.16 0.225-3.27 0.157-2.1 0.315-4.21 0.473-6.31 0.233-3.12 0.463-6.23 0.675-9.35 0.0736-0.969 0.147-1.94 0.223-2.94 0.0611-0.861 0.122-1.72 0.185-2.61 0.401-2.48 1.19-4.16 2.38-6.36 0.434-1.8 0.806-3.61 1.12-5.44 0.168-0.927 0.335-1.85 0.508-2.81 0.35-2.62 0.434-5.11 0.367-7.75-5.68-2.33-11.3-2.58-17.4-3-11.2-0.779-11.2-0.779-15.8-2.03-4.88-1.24-9.53-1.38-14.5-1.54-4.73-0.198-8.76-0.964-13.3-2.43 1.33-3.98 2.83-6.26 6-9 13.9-6.4 30.8-6.2 45.9-6.57 5.45-0.168 10.5-0.756 15.9-1.98 5.24-1.02 9.78-1.44 14.3 1.56z" fill="#65C1E7"/>
<path transform="translate(814,92)" d="m0 0c6.13 0.408 10.3 2.89 14.5 7.29 5.13 6.03 9.79 12.2 12.5 19.7 3.44-0.562 4.8-1.53 6.94-4.25 0.519-0.632 1.04-1.26 1.57-1.91 0.491-0.606 0.982-1.21 1.49-1.84 4.59-5.35 10.4-9.13 17.4-10.5 5.25-0.251 9.63 0.872 13.6 4.45 4.31 5.2 9 11 9 18h2v2c1.95-0.195 1.95-0.195 4-1 0.46-0.92 0.46-0.92 0.93-1.86 2.83-5.66 10.4-10.8 16.2-12.9 5.85-1.65 9.57-0.937 14.9 1.79 1.18 0.557 2.35 1.11 3.56 1.69 9.89 5.95 16.7 18.4 22.5 28 3.85 6.36 8.2 11.6 13.4 16.8 2.16 2.16 4.29 4.33 6.38 6.56 0.616 0.651 1.23 1.3 1.87 1.97 1.26 1.96 1.26 1.96 0.953 4.21-0.229 0.579-0.459 1.16-0.695 1.75-10.4 1.81-21.6 1.55-30.8-4.06-8.54-6.14-15.6-13.1-22.1-21.4-2.22-2.71-4.6-5.13-7.11-7.58-0.536-0.577-1.07-1.16-1.62-1.75-2.72-2.47-5.59-2.36-9.06-2.31-0.808 0.00902-1.62 0.018-2.45 0.0273-0.615 0.0116-1.23 0.0232-1.86 0.0352-0.193 0.736-0.387 1.47-0.586 2.23-0.391 1.46-0.391 1.46-0.789 2.96-0.383 1.44-0.383 1.44-0.773 2.92-0.852 2.89-0.852 2.89-1.9 5.34-1.52 4.07-1.73 8.29-2.2 12.6-0.758 2.96-0.758 2.96-2.39 4.69-8.73 4.68-19.4 8.13-29.4 6.27-3.25-1.81-3.25-1.81-5-5-1.36-7.42 0.629-14.1 3.03-21.1 1.46-4.43 2.11-8.41 2.1-13.1 0.00258-0.848 0.00516-1.7 0.00781-2.57-0.0415-2.47-0.0415-2.47-1.13-5.3-1.16 0.541-1.16 0.541-2.34 1.09-1 0.464-2.01 0.928-3.04 1.41-0.998 0.464-2 0.928-3.02 1.41-2.6 1.09-2.6 1.09-4.6 1.09-3.53 9.77-3.53 9.77-5.14 20-0.243 3.34-0.587 5.94-1.86 9.04-5.44 4.45-12.3 6.5-19.2 7.58-2.16 0.382-2.16 0.382-4.84 2.42-5.57-0.124-8.13-2.31-12-6-1.32-2.65-0.954-4.37-0.688-7.31 0.0786-0.945 0.157-1.89 0.238-2.86 0.449-2.82 0.449-2.82 1.43-5.27 1.61-4.03 1.9-8.21 2.46-12.5 0.562-3.06 0.562-3.06 1.58-4.92 1.59-3.46 1.5-7.06 1.67-10.8 0.0398-0.809 0.0796-1.62 0.121-2.45 0.288-6.83-0.318-13.1-1.5-19.8-0.103-1.01-0.206-2.02-0.312-3.06 0.66-0.66 1.32-1.32 2-2z" fill="#64C4E9"/>
<path transform="translate(1337 69.9)" d="m0 0c0.958 0.00524 1.92 0.0105 2.9 0.0159 1.55 0.00483 1.55 0.00483 3.13 0.00977 1.09 0.00838 2.18 0.0168 3.3 0.0254 1.64 0.00677 1.64 0.00677 3.31 0.0137 2.71 0.0118 5.42 0.0283 8.13 0.0488v2h2c-1.49 8.31-3.05 16.5-5.18 24.7-1.23 4.9-2.3 9.84-3.37 14.8-1.06 4.86-2.23 9.67-3.45 14.5-1.92 7.89-3.58 15.8-5 23.8-0.899 5-0.899 5-2 7.21h-4c-2.73 1.92-2.73 1.92-5 4 0.66 0.66 1.32 1.32 2 2-0.66 0.99-1.32 1.98-2 3 0.324 1.34 0.657 2.67 1 4-0.99 0.99-0.99 0.99-2 2 0.66 0.99 1.32 1.98 2 3v4c1.48 0.495 1.48 0.495 3 1 1.67 0.66 3.34 1.33 5 2-0.33 0.66-0.66 1.32-1 2-1.65-0.33-3.3-0.66-5-1 0.33 1.32 0.66 2.64 1 4 0.855-0.0116 1.71-0.0232 2.59-0.0352 1.1-0.00902 2.21-0.018 3.35-0.0273 1.1-0.0116 2.2-0.0232 3.34-0.0352 2.72 0.0977 2.72 0.0977 3.72 1.1 1.35 0.231 2.7 0.412 4.06 0.562 1.3 0.144 2.6 0.289 3.94 0.438v-2h6c-0.33-0.99-0.66-1.98-1-3 0.66-0.33 1.32-0.66 2-1 0.99 0.495 0.99 0.495 2 1v-2c3.96-0.99 7.92-1.98 12-3h-3c-1.67-0.311-3.34-0.641-5-1 3.17-3.54 5.17-5.59 10-6v-2c1.09-0.371 2.19-0.742 3.31-1.12 4.07-1.73 4.81-3.89 6.69-7.88 1.69-1.61 3.47-3.03 5.3-4.48 1.99-1.64 1.99-1.64 3.89-4.83 1.81-2.69 1.81-2.69 4.06-3.56 0.578-0.0412 1.15-0.0825 1.75-0.125v-2l6-3v-5c0.66-0.33 1.32-0.66 2-1v2c2.64 0.33 5.28 0.66 8 1 1 3 1 3 0 6-2.97-0.33-5.94-0.66-9-1v2c1.65 0.33 3.3 0.66 5 1 1 3 1 3 0.0625 5.19-0.351 0.598-0.701 1.2-1.06 1.81h-2c0.309 1.33 0.309 1.33 0.625 2.69 0.418 3.69-5.86e-4 5.04-1.62 8.31-1.77 2.06-1.77 2.06-3.81 4-1.07 1.03-1.07 1.03-2.16 2.08-0.669 0.634-1.34 1.27-2.03 1.92-0.908 0.908-1.82 1.82-2.75 2.75-0.743 0.742-1.48 1.49-2.25 2.25-0.722 0.763-1.44 1.53-2.19 2.31-1.81 1.69-1.81 1.69-3.81 1.69-0.495 1.49-0.495 1.49-1 3-4.45 3.02-9.26 5.47-14 8-0.64 0.348-1.28 0.696-1.94 1.05-9.72 5.25-19.6 9.12-30.1 12.3-1.67 0.513-3.33 1.05-4.99 1.6-5.33 1.72-10.4 2.71-16 3-1.28 0.0877-2.56 0.175-3.88 0.266-12.1 0.609-12.1 0.609-16.6-2.52-2.64-2.94-2.95-5.49-3.06-9.38 0.61-9.74 2.66-19 5.1-28.4 1.29-5.03 2.18-10.1 2.96-15.2 0.653-3.58 1.73-6.96 2.84-10.4 0.648-2.3 0.98-4.46 1.22-6.83 0.438-3.5 0.438-3.5 2.44-5.5 0.615-2.27 0.615-2.27 1-4.9 0.165-0.973 0.33-1.95 0.5-2.95 0.165-1.02 0.33-2.04 0.5-3.09 0.327-2.01 0.66-4.02 1-6.03 0.144-0.893 0.289-1.79 0.438-2.71 0.562-2.33 0.562-2.33 2.56-5.33 0.545-2.07 1.01-4.15 1.44-6.25 0.389-1.87 0.389-1.87 0.785-3.78 0.526-2.63 1.01-5.27 1.46-7.91 3.72-20.8 3.72-20.8 10.5-21.2z" fill="#65C1E7"/>
<path transform="translate(285,33)" d="m0 0h10c5.94 10.7 5.41 24.1 5 36-0.0247 0.754-0.0493 1.51-0.0747 2.28-0.957 26.8-0.957 26.8-3.93 32.7-0.0712 2.37-0.0841 4.75-0.0625 7.12 0.00902 1.28 0.018 2.56 0.0273 3.88 0.0116 0.987 0.0232 1.97 0.0352 2.99 0.629-0.447 1.26-0.895 1.91-1.36 27.4-19.4 27.4-19.4 44.6-17.2 5.72 2.55 9.8 7.32 12.7 12.9 2.53 8.55 1.97 18.5-1.95 26.5-7.71 13.6-21.5 23.3-35.2 30.2-0.988 0.555-0.988 0.555-2 1.12-9.47 4.89-26 7.32-36.2 4.2-1.96-0.824-1.96-0.824-4.77-2.32 0.6-3.61 0.899-3.92 4.06-6.31 4.09-2.41 8.39-4.21 12.8-6.06 15.4-6.52 27.9-16.2 35.2-31.6 0.34-3.54 0.123-5.63-1-9-7.86-0.655-12.9 0.838-19.1 5.65-3.75 3.17-6.82 6.49-9.86 10.4h-2c-0.242 0.721-0.485 1.44-0.734 2.18-3.04 6.76-9.54 13.6-16.3 16.8-3.69 0.562-3.69 0.562-7 0-2.74-3.54-3.35-6.03-3.11-10.4 0.0503-1.01 0.101-2.03 0.152-3.07 0.102-1.57 0.102-1.57 0.207-3.17 0.0529-1.06 0.106-2.12 0.16-3.21 0.428-7.78 0.428-7.78 1.59-10.1 0.233-3.75 0.395-7.5 0.518-11.3 0.191-4.4 0.726-7.66 2.48-11.7 0.242-2.08 0.401-4.16 0.5-6.25 0.368-6.34 1.02-12.6 1.84-18.9 0.387-3.07 0.657-6.01 0.594-9.11 0.0723-3 0.749-4.12 2.07-6.75 0.594-2.88 0.967-5.78 1.38-8.69 1.01-6.7 2.39-12.3 5.62-18.3z" fill="#65C3E8"/>
<path transform="translate(1531 75.1)" d="m0 0c4.54 6.67 5.48 11.9 5.38 19.8 0.0116 0.847 0.0232 1.69 0.0352 2.57-0.0278 6.04-1.23 10.9-3.41 16.6-0.526 1.54-0.526 1.54-1.06 3.11-0.309 0.871-0.619 1.74-0.938 2.64-0.309 0.882-0.619 1.76-0.938 2.67-2.03 4.92-5.11 9.17-8.06 13.6-0.755 1.18-1.51 2.36-2.25 3.54-0.38 0.599-0.759 1.2-1.15 1.81-0.779 1.23-1.55 2.46-2.33 3.7-1.88 2.95-3.7 5.57-6.27 7.95-1.02 1.25-2.04 2.5-3.06 3.75-5.33 6.11-11.6 11.6-19.9 12.2-8.61-3.78-13.1-10.7-17-19-3.83-11.4-0.838-27.9 3-39 0.777-3.12 1.5-6.25 2.22-9.39 0.781-2.61 0.781-2.61 2.78-4.61 0.289-1.07 0.578-2.14 0.875-3.25 1.84-6.13 4.83-10.2 10.1-13.8 3.4-1.3 6.86-2.25 10.4-3.19 0.92-0.26 1.84-0.519 2.79-0.787 21.6-5.96 21.6-5.96 28.8-0.963z" fill="#FBFDFF"/>
<path transform="translate(1354 34.8)" d="m0 0c0.762-0.00807 1.52-0.0161 2.31-0.0245 1.6-0.0137 3.2-0.0245 4.8-0.0324 1.62-0.0115 3.23-0.032 4.85-0.0615 9.68-0.176 17.9 0.0221 26.8 4.36 0.801 0.379 1.6 0.758 2.43 1.15 1.88 0.914 3.73 1.88 5.57 2.85v2c-2.64-0.33-5.28-0.66-8-1 1.32 0.33 2.64 0.66 4 1v3c2.31 0.99 4.62 1.98 7 3v9c1.32-0.33 2.64-0.66 4-1 1.48 0.495 1.48 0.495 3 1v3h-5c0.186 0.619 0.371 1.24 0.562 1.88 0.438 2.12 0.438 2.12-0.562 4.12 1.67-0.0619 1.67-0.0619 3.38-0.125 3.62 0.125 3.62 0.125 5.62 2.12-0.33 0.33-0.66 0.66-1 1 0.66 0.66 1.32 1.32 2 2h-3v2h-2v6h2c0.103 1.05 0.206 2.1 0.312 3.19 0.681 3.77 1.72 5.62 3.69 8.81 1.36 5.48 0.908 10.8 0.562 16.4-0.0522 0.927-0.104 1.85-0.158 2.81-0.129 2.27-0.264 4.54-0.404 6.82 1.13 0.451 2.26 0.902 3.42 1.37 3.74 1.7 4.15 2.07 5.58 5.63 0.99 0.33 1.98 0.66 3 1-0.33 0.66-0.66 1.32-1 2h2v2c-0.99 0.33-1.98 0.66-3 1-0.66-0.66-1.32-1.32-2-2 0.33 1.32 0.66 2.64 1 4 1.98-0.66 3.96-1.32 6-2v-2c3.25 0.0625 3.25 0.0625 7 1 2.25 2.58 4 5.49 4 9 0.99 0.33 1.98 0.66 3 1 1.19 3.06 1.19 3.06 2 6 0.33-1.65 0.66-3.3 1-5 2.26 3.59 2.21 6.57 2.12 10.8-0.018 1.17-0.0361 2.34-0.0547 3.55-0.0232 0.892-0.0464 1.78-0.0703 2.7 0.66 0.33 1.32 0.66 2 1 1.63 2.79 3.08 5.66 4.56 8.53 1.2 2.58 1.2 2.58 3.44 3.47 0.33 0.99 0.66 1.98 1 3 0.99 0.33 1.98 0.66 3 1 0.688 2.06 0.688 2.06 1 4 0.606-0.0348 1.21-0.0696 1.84-0.105 6.43-0.208 12.2 0.491 18.2 3.11 0.33 0.66 0.66 1.32 1 2 0.949 0.309 1.9 0.619 2.88 0.938 2.97 1.01 4.19 1.69 6.12 4.06-4.67 2.34-11 0.816-16 0-4.57-1.61-8.75-3.7-13-6l-2.64-1.33c-4.54-2.37-7.93-4.8-11.4-8.67-0.663-0.683-1.33-1.37-2.01-2.07-4.25-4.49-6.95-7.79-7.99-13.9h-2c-3.17-6.37-5.6-11.8-6-19h-3c-0.22 0.681-0.441 1.36-0.668 2.06-1.71 3.78-4.05 6.72-6.64 9.94-0.474 0.603-0.947 1.21-1.44 1.83-2.89 3.63-5.91 6.96-9.25 10.2v-9c0.66-0.33 1.32-0.66 2-1 0.656-2.53 0.656-2.53 1-5-1.65-0.66-3.3-1.32-5-2v-2c2.97 0.33 5.94 0.66 9 1v-6c-1.3-0.144-2.6-0.289-3.94-0.438-3.94-0.438-3.94-0.438-5.06-1.56v6c-3.46 0.99-3.46 0.99-7 2v2c-0.743 0.412-1.48 0.825-2.25 1.25-3.33 2.12-4.59 4.47-6.75 7.75-1.01 0.825-2.02 1.65-3.06 2.5-3.12 2.66-4.29 4.8-5.94 8.5-2 2-2 2-4.62 2.12-0.784-0.0412-1.57-0.0825-2.38-0.125v2c0.66 0.33 1.32 0.66 2 1-1.07 0.103-2.14 0.206-3.25 0.312-3.61 0.662-5.11 1.26-7.75 3.69 1.98 0.99 1.98 0.99 4 2 0.33-0.66 0.66-1.32 1-2 1.48 0.99 1.48 0.99 3 2-4.62 2.22-7.77 3.38-13 3v2c-0.99 0.33-1.98 0.66-3 1v2h-6v2c-7.75 0.125-7.75 0.125-10-1-1.87-0.0703-3.75-0.0843-5.62-0.0625-1 0.00902-2.01 0.018-3.04 0.0273-0.771 0.0116-1.54 0.0232-2.34 0.0352-0.495-2.48-0.495-2.48-1-5h5v-1c-0.784-0.124-1.57-0.248-2.38-0.375-2.62-0.625-2.62-0.625-4.62-2.62-0.598-1.52-1.14-3.07-1.62-4.62-0.391-1.23-0.391-1.23-0.789-2.48l-0.586-1.9h2c-0.495-2.48-0.495-2.48-1-5h2c-0.66-1.65-1.32-3.3-2-5 0.784-0.454 1.57-0.908 2.38-1.38 2.66-1.51 2.66-1.51 4.62-3.62 2 2 2 2 2.14 4.15-0.0524 0.869-0.105 1.74-0.159 2.63-0.0516 0.941-0.103 1.88-0.156 2.85l-0.195 2.98c-0.0851 1.49-0.0851 1.49-0.172 3.01-0.142 2.46-0.293 4.91-0.453 7.37 0.592-0.198 1.18-0.397 1.79-0.601 4.8-1.61 9.62-3.16 14.5-4.65 1.95-0.609 1.95-0.609 2.75-2.75 1.91-0.974 3.83-1.94 5.76-2.88 7.81-3.9 13.9-9.13 20.2-15.1 1.29-1.18 1.29-1.18 2.61-2.38 6.25-5.9 10.7-11.9 14.4-19.6 0.581-1.17 1.16-2.35 1.76-3.56 4.08-9.16 4.8-18 4.86-27.9 0.0109-1.19 0.0218-2.39 0.033-3.62-0.187-11.5-3.86-19.5-11.7-27.9-15.1-14.3-33.1-17.2-53-17.1-1.02-0.00387-2.03-0.00773-3.08-0.0117-11.5-0.479-11.5-0.479-21.9 3.14-6.24 1.19-12.7 1.1-19 1 0-3 0-3 1.38-4.69 1.62-1.31 1.62-1.31 3.62-1.31v-2c3.33-1.33 6.67-2.67 10-4 0.744-0.342 1.49-0.683 2.25-1.04 3.92-1.38 7.9-1.91 12-2.53 5.3-0.358 5.3-0.358 9.75-2.44 5.44-0.84 10.8-1.18 16.3-1.24z" fill="#64C3E8"/>
<path transform="translate(779,86)" d="m0 0c2.63 2.09 2.63 2.09 5.12 4.38 0.828 0.75 1.66 1.5 2.51 2.27 4.84 4.81 9.69 10.4 10.9 17.3-1.78 10.9-10.2 19.5-18.5 26.1-0.601 0.487-1.2 0.975-1.82 1.48-5.22 4-10.5 5.93-17.2 5.52-1.14-1.72-1.14-1.72-2-4 0.828-2.22 0.828-2.22 2.25-4.5 0.688-1.13 0.688-1.13 1.39-2.28 0.449-0.732 0.897-1.46 1.36-2.22 0.345-0.732 0.691-1.46 1.05-2.22 0.953-1.78 0.953-1.78 2.95-2.78 1.04-1.98 2.03-3.98 3-6 0.536-0.825 1.07-1.65 1.62-2.5 3.07-5.59 2.61-11.4 1.38-17.5-0.92-3.04-0.92-3.04-3-5-3.46-1.08-3.46-1.08-7-1-3.38 2.25-3.75 3.25-5.12 6.94-0.333 0.875-0.665 1.75-1.01 2.65-5.16 14.3-8.09 34.8-2.87 49.4 1.51 2.83 1.51 2.83 3 5v2c0.619 0.144 1.24 0.289 1.88 0.438 2.12 0.562 2.12 0.562 4.12 1.56 15-0.0542 15-0.0542 29.1-4.06 2.37-1.16 4.06-1.14 6.68-1.07 0.799 0.018 1.6 0.0361 2.42 0.0547 0.603 0.0232 1.21 0.0464 1.83 0.0703v5h-2c-0.0412 0.577-0.0825 1.16-0.125 1.75-1.31 3.38-3.87 4.5-6.88 6.25-0.873 0.539-1.75 1.08-2.64 1.63-9.39 5.69-19.1 11.3-30.4 11.4-1.31 0.0348-1.31 0.0348-2.65 0.0703-8.55-0.216-14.1-3.85-20.1-9.8-3.27-3.72-3.27-3.72-3.27-6.27h-2c-8.04-16.2-9.92-35.2-4.95-52.7 1.92-4.73 4.89-8.82 7.82-13 0.657-0.941 1.31-1.88 1.99-2.85 2.2-2.6 4.16-3.92 7.13-5.52 0.474-0.495 0.949-0.99 1.44-1.5 2.26-2.17 4.71-3.21 7.56-4.5 0.588-0.282 1.18-0.565 1.78-0.855 7.91-3.45 15.7-3.54 23.2 0.855z" fill="#64C4E9"/>
<path transform="translate(252,101)" d="m0 0c2 3 2 3 1.91 5.06-0.91 1.94-0.91 1.94-2.91 3.1-0.844 0.298-1.69 0.596-2.56 0.902-0.905 0.33-1.81 0.66-2.74 1-0.889 0.309-1.78 0.619-2.7 0.938-1.4 0.517-2.79 1.04-4.19 1.56-0.643 0.24-1.29 0.48-1.95 0.727-14.4 5.48-27.4 12.4-35.9 25.7-1.39 3.64-2 7.07-2 11 5.79 2.4 9.97 2.14 15.8-0.0625 7.18-4.36 13.2-9.61 18.5-16.1 2.16-2.45 4.55-4.5 7.08-6.56 1.61-1.3 1.61-1.3 3.04-2.85 2.73-2.61 6.01-4.19 9.54-5.47 2.94 0.125 2.94 0.125 5 1 4.28 8.56 0.275 21.7-1.69 30.4-0.244 1.1-0.487 2.21-0.739 3.35-1.61 6.76-3.82 12.4-7.57 18.3-4.19-0.292-6.82-1.03-9.7-4.19-2.88-4-5.07-8.43-7.3-12.8-5.28 1.82-9.37 3.82-14 7-4.89 2.77-9.85 4.74-15.2 6.39-1.79 0.467-1.79 0.467-2.79 1.61-7.52 0.854-14.3 1.21-20.8-3.12-3.53-2.87-5.51-5.22-6.19-9.88h-2c-2.13-6.39-2.2-13.9 0.199-20.2 1.48-2.72 3.07-5.28 4.8-7.84 0.66-1.09 1.32-2.19 2-3.31 3.04-4.08 6.05-8.04 11-9.69 0.66-0.99 1.32-1.98 2-3 1.66-0.688 3.32-1.36 5-2 0.33-0.66 0.66-1.32 1-2 1.68-0.895 1.68-0.895 3.88-1.81 2.6-1.1 5.17-2.21 7.71-3.45 13.7-6.67 29.9-10.1 44.4-3.73z" fill="#65C4E8"/>
<path transform="translate(669,101)" d="m0 0c0.688 2.31 0.688 2.31 1 5-2.24 2.99-4.98 3.98-8.41 5.27-1.07 0.414-2.15 0.829-3.25 1.26-2.24 0.848-4.48 1.69-6.72 2.54-6.31 2.44-12 5.13-17.7 8.81-1.93 1.13-1.93 1.13-3.93 1.13v2c-0.928 0.124-0.928 0.124-1.88 0.25-2.82 0.997-2.86 2.1-4.12 4.75-1.47 2.04-3.01 4.02-4.56 6-3.05 4.24-3.84 7.8-4.44 13 7.02 2.52 12.1 1.84 19-1 2.41-1.48 3.96-2.96 6-5 5-5 5-5 7.38-6.81 2.34-1.95 4.15-3.88 6.12-6.19 2.62-3.06 5.2-5.65 8.5-8 0.784-0.578 1.57-1.16 2.38-1.75 3.42-1.63 5.89-1.67 9.62-1.25 4.48 6.72 1.47 16.5 0 24-0.476 2.26-0.975 4.52-1.5 6.77-0.553 2.48-0.987 4.97-1.43 7.48-0.753 3.8-1.74 6.59-4.06 9.75-0.454 0.763-0.908 1.53-1.38 2.31-1.62 1.69-1.62 1.69-4.06 2.19-3.4-0.663-4.28-1.91-6.56-4.5-1.48-2.23-2.89-4.45-4.25-6.75-0.364-0.602-0.727-1.2-1.1-1.82-0.888-1.47-1.77-2.95-2.65-4.43-4.22 1.78-8.1 3.62-12 6-5.18 2.8-10.5 5.06-16 7.17-1.97 0.667-1.97 0.667-3 1.83-9.32 1.07-16.1 0.734-23.8-5.02-5.01-4.54-6.28-8.21-7.06-14.9-0.47-9.7 2.33-16.1 7.88-24.1 0.97-1.03 1.97-2.03 3-3 1.18-1.24 1.18-1.24 2.38-2.5 2.43-2.32 4.74-3.82 7.62-5.5 0.33-0.66 0.66-1.32 1-2 3.06-1.63 6.18-3.08 9.31-4.56 2.79-1.16 2.79-1.16 3.69-3.44 2.21-0.781 2.21-0.781 4.94-1.5 3.95-0.995 3.95-0.995 7.06-3.5 12.8-3.85 24.3-4.2 37 0z" fill="#64C3E8"/>
<path transform="translate(1426 79.9)" d="m0 0c2.38 0.125 2.38 0.125 4.38 1.12v2h2c0.121 0.782 0.242 1.56 0.367 2.37 0.168 1.01 0.335 2.02 0.508 3.07 0.244 1.51 0.244 1.51 0.492 3.06 0.209 0.826 0.418 1.65 0.633 2.5 0.66 0.33 1.32 0.66 2 1 0.363 1.99 0.692 4 1 6 0.639 1.68 1.3 3.35 2 5 1.14 3.31 1 5.63 0 9-0.99 0.495-0.99 0.495-2 1 0.33 1.32 0.66 2.64 1 4h2c0.33-0.99 0.66-1.98 1-3 2.06-0.688 2.06-0.688 4-1 0.66 1.98 1.32 3.96 2 6l2-1v2h2v-2c0.66-0.33 1.32-0.66 2-1v-5c6.95-0.445 11.6-0.673 17 4-0.998 2.99-1.75 3.95-4 6 0.49 0.561 0.979 1.12 1.48 1.7 1.76 2.67 1.86 3.95 1.77 7.11-0.0142 0.912-0.0284 1.82-0.043 2.76-0.0445 1.42-0.0445 1.42-0.0898 2.87-0.0436 1.87-0.0828 3.75-0.117 5.62-0.0365 1.24-0.0365 1.24-0.0737 2.51-0.00892 2.49-0.00892 2.49 0.655 5.11 0.411 2.32 0.411 2.32-1.03 4.45-0.516 0.619-1.03 1.24-1.56 1.88v3h2c0.495 3.96 0.495 3.96 1 8 2.64 0.33 5.28 0.66 8 1 0.33 1.32 0.66 2.64 1 4 1.98 0.495 1.98 0.495 4 1 0.33-1.65 0.66-3.3 1-5 1.64 0.278 1.64 0.278 3.31 0.562 3.62 0.695 3.62 0.695 6.69-0.562v-2c2.87 0.573 3.86 0.861 6 3h4v-4c1.65-0.33 3.3-0.66 5-1v-2c2.64-0.33 5.28-0.66 8-1-0.33-0.99-0.66-1.98-1-3 1.32-0.33 2.64-0.66 4-1-0.0619-0.784-0.124-1.57-0.188-2.38 0.0619-0.866 0.124-1.73 0.188-2.62 0.99-0.66 1.98-1.32 3-2 0.289-0.846 0.578-1.69 0.875-2.56 0.371-0.804 0.743-1.61 1.12-2.44 2.62-0.812 2.62-0.812 5-1 0.33 0.99 0.66 1.98 1 3-0.33 0.66-0.66 1.32-1 2h2v-5h2c0.33 1.32 0.66 2.64 1 4h2v-3h2v-3c-1.48-0.495-1.48-0.495-3-1 6.4-1.23 6.4-1.23 9.44-0.0625 0.516 0.351 1.03 0.701 1.56 1.06-1.13 8.79-3.7 15.1-9.06 22.1-0.448 0.585-0.896 1.17-1.36 1.77-1.14 1.43-2.35 2.81-3.58 4.17h-2c-0.268 0.639-0.536 1.28-0.812 1.94-1.19 2.06-1.19 2.06-4.19 3.06-0.402 0.897-0.402 0.897-0.812 1.81-3.61 6.65-12.5 8.2-19.2 10.2-3.45 0.947-6.4 1.3-10 1-2-1.38-2-1.38-4-3-1.98-0.724-3.98-1.4-6-2v-2c-6.65-1.46-13.2-2.45-20-3-0.33-1.32-0.66-2.64-1-4-1.32-0.33-2.64-0.66-4-1v-3c-0.583-0.197-1.17-0.394-1.77-0.598-3.12-1.96-4.4-4.63-5.98-7.84-0.311-0.62-0.621-1.24-0.942-1.88-2.61-5.58-3.1-10.6-2.31-16.7-0.66 0.99-1.32 1.98-2 3-1-3-1-3-1-6-0.866-0.278-0.866-0.278-1.75-0.562-2.85-1.82-3.75-3.8-5.22-6.78-1.54-2.48-3.45-3.49-6.21-4.28-0.897-0.186-0.897-0.186-1.81-0.375v2c-2.31 0.99-4.62 1.98-7 3-0.495-1.49-0.495-1.49-1-3 0.33-0.66 0.66-1.32 1-2-0.66-0.33-1.32-0.66-2-1 3.11 0 4.35 0.539 7 2v-2h-2v-2c-3.44-3.65-7.16-6.53-12-8 0.14-1.65 0.287-3.29 0.438-4.94 0.122-1.37 0.122-1.37 0.246-2.78 0.316-2.29 0.316-2.29 1.32-3.29-0.0412-0.928-0.0825-1.86-0.125-2.81 0.138-3.53 0.782-4.65 3.12-7.19-0.66-0.99-1.32-1.98-2-3-0.165-1.01-0.33-2.02-0.5-3.06-0.228-3.05-0.228-3.05-2.5-4.94 2.44-6.72 2.44-6.72 4.88-7.94 1.58-0.0466 3.17-0.112 4.75-0.188z" fill="#65C1E7"/>
<path transform="translate(1100,32)" d="m0 0c2.66 0.354 5.25 0.607 7.92 0.781 1.17 0.0885 1.17 0.0885 2.36 0.179 2.49 0.188 4.98 0.365 7.47 0.54 2.48 0.175 4.95 0.353 7.43 0.54 1.54 0.116 3.08 0.226 4.62 0.327 4.63 0.348 8.74 1.26 13.2 2.63 2.51 0.348 5.03 0.618 7.56 0.812 1.26 0.11 2.52 0.219 3.82 0.332 3.99-0.159 6.18-1.19 9.62-3.14h2c3.8 9.98 3.3 16-0.613 26-1.24 2.66-2.52 4.74-4.39 6.99-1.15-0.289-2.31-0.578-3.5-0.875-7.08-1.59-14.3-2.29-21.5-3.12v-1l1.76 0.0703c8.11 0.198 8.11 0.198 15-3.7 0.412-0.454 0.825-0.908 1.25-1.38h2c0.33-3.3 0.66-6.6 1-10h-4c0.99 0.33 1.98 0.66 3 1v4l-6.15 0.586c-0.61 0.137-1.22 0.273-1.85 0.414-0.33 0.66-0.66 1.32-1 2h-4v-2h2c-0.33-1.65-0.66-3.3-1-5h-12c0.33-1.65 0.66-3.3 1-5h-8c0.495 1.48 0.495 1.48 1 3-0.33 0.66-0.66 1.32-1 2h3v2c-3.04 0.108-6.08 0.188-9.12 0.25-0.856 0.0335-1.71 0.067-2.59 0.102-5.69 0.0875-8.7-0.673-13.3-4.35-2.23-0.769-2.23-0.769-4-1-0.144 0.598-0.289 1.2-0.438 1.81-0.876 3.41-1.28 4.94-4 7.31-2.95 3.31-3.43 5.38-4.16 9.63-0.406 2.25-0.406 2.25-1.59 5.56-1.01 4.56-0.513 8.41 0.0938 13 0.0938 2.67 0.0938 2.67-1.91 5.67h-2c-0.0606 0.771-0.121 1.54-0.184 2.34-0.126 1.5-0.126 1.5-0.254 3.04-0.0812 0.998-0.162 2-0.246 3.02-0.316 2.6-0.316 2.6-1.32 4.6-0.0402 2.33-0.0432 4.67 0 7h-2c-0.848 4.71-0.815 8.32 0 13-0.125 2.63-0.125 2.63-1 5-0.795 0.539-1.59 1.08-2.41 1.63-3.5 3.19-3.98 6.09-4.9 10.6-0.168 0.745-0.336 1.49-0.51 2.26-0.41 1.83-0.796 3.66-1.18 5.49h-2c0.0934-4.66 0.2-9.33 0.317-14 0.0383-1.59 0.0732-3.17 0.104-4.76 0.0456-2.28 0.104-4.56 0.164-6.84 0.0116-0.712 0.0231-1.42 0.035-2.16 0.151-5.03 0.151-5.03 2.38-7.26 0.448-2.34 0.448-2.34 0.598-5.06 0.0793-1.03 0.159-2.05 0.24-3.11 0.0741-1.08 0.148-2.16 0.225-3.27 0.157-2.1 0.315-4.21 0.473-6.31 0.233-3.12 0.463-6.23 0.675-9.35 0.0736-0.969 0.147-1.94 0.223-2.94 0.0611-0.861 0.122-1.72 0.185-2.61 0.401-2.48 1.19-4.16 2.38-6.36 0.434-1.8 0.806-3.61 1.12-5.44 0.168-0.927 0.335-1.85 0.508-2.81 0.35-2.62 0.434-5.11 0.367-7.75-5.68-2.33-11.3-2.58-17.4-3-11.2-0.779-11.2-0.779-15.8-2.03-4.88-1.24-9.53-1.38-14.5-1.54-4.73-0.198-8.76-0.964-13.3-2.43 1.33-3.98 2.83-6.26 6-9 13.9-6.4 30.8-6.2 45.9-6.57 5.45-0.168 10.5-0.756 15.9-1.98 5.24-1.02 9.78-1.44 14.3 1.56z" fill="#64C4E9"/>
<path transform="translate(440 93.9)" d="m0 0c1.24-0.00258 2.48-0.00516 3.76-0.00781 2.93 0.0502 5.79 0.3 8.7 0.637 6.67 0.715 13.3 0.603 20 0.559 1.29-0.00451 2.58-0.00902 3.91-0.0137 3.15-0.0117 6.31-0.0281 9.46-0.0488 0.625 3.36 0.625 3.36 1 7-3.34 3.86-7.15 4.81-12 6-0.66 0.33-1.32 0.66-2 1-1.38 0.127-2.76 0.202-4.14 0.246-0.824 0.0329-1.65 0.0657-2.5 0.0996-1.73 0.0606-3.45 0.118-5.18 0.172-4.75 0.196-8.72 0.68-13.2 2.48-0.502 3.29-0.502 3.29 0 7 1.81 2.04 3.78 3.38 6 5v2c0.866 0.381 0.866 0.381 1.75 0.77 6.28 3.44 11.5 9.67 14.2 16.2 1.09 6.9-0.124 12.2-4 18-6.23 8.55-15.2 13-24.3 18-1.53 0.853-3.05 1.72-4.57 2.59-5.38 2.92-9.02 4.26-15.1 3.37-4.59-1.66-9.19-3.9-12-8-0.475-3.73-0.361-6.16 1.12-9.62 3.97-5.03 9.14-8.29 14.4-11.8 3.45-2.28 6.83-4.63 10.2-7.02 1.75-1.24 3.52-2.45 5.3-3.65 2.58-2.58 2.86-4.33 2.94-7.94-0.77-2.52-1.31-3.62-3.62-4.9-3.9-1.8-7.8-3.6-11.7-5.36-10.8-4.95-10.8-4.95-12.7-8.74-0.431-5.5 0.583-9.07 3-14 0.284-0.673 0.567-1.35 0.859-2.04 1.37-2.36 2.69-3.26 5.02-4.65 0.678-0.416 1.36-0.833 2.05-1.26 4.38-2.22 8.32-2.19 13.2-2.18z" fill="#64C4E9"/>
<path transform="translate(561 92.7)" d="m0 0c1.21-0.0374 2.42-0.0748 3.66-0.113 3.82 0.497 4.93 1.46 7.28 4.43-1.39 3.39-2.76 4.77-5.94 6.56-2.77 1.58-4.85 3.14-7.06 5.44-2.73 1.93-5.44 3.69-8.37 5.31-9.16 5.14-14.4 11.8-19.6 20.7-0.557 0.825-1.11 1.65-1.69 2.5-2.62 4.98-4.1 10.9-3.31 16.5 2.05 1.95 3.42 2.91 6.23 3.36 7.66-0.536 12.5-3.89 17.8-9.36 1.04-1.64 2.05-3.31 3-5 0.981-1.02 1.98-2.02 3-3 0.495-0.99 0.495-0.99 1-2 3.7-2.04 6.79-3.31 10.9-2.25 2.06 1.25 2.06 1.25 3.06 2.25 0.471 2.59 0.384 4.34-0.955 6.64-1.35 1.84-2.77 3.6-4.23 5.36-0.483 0.603-0.966 1.21-1.46 1.83-4.24 5.24-8.42 9.84-14.3 13.2-1.05 0.722-2.1 1.44-3.19 2.19-2.81 1.81-2.81 1.81-4.81 1.81-0.495 1.49-0.495 1.49-1 3-2.43 1.34-4.78 2.51-7.31 3.62-1.02 0.468-1.02 0.468-2.05 0.945-6.18 2.8-11.8 4.56-18.6 3.43-7.66-3.4-12-7.72-16-15-2.46-7.35-2.25-18.1 1.02-25.2 0.322-0.601 0.645-1.2 0.977-1.82 0.364-0.724 0.727-1.45 1.1-2.2 2.8-5.34 6.14-10.1 9.9-14.8 0.438-0.574 0.877-1.15 1.33-1.74 11.7-14.7 30.8-26.2 49.7-26.6z" fill="#64C3E8"/>
<path transform="translate(75.8 34.7)" d="m0 0c0.79 0.00405 1.58 0.0081 2.39 0.0123 0.811-0.00191 1.62-0.00383 2.46-0.0058 1.72-0.00136 3.43 0.00234 5.15 0.0107 2.63 0.0107 5.26 1.13e-4 7.89-0.0127 1.67 0.00132 3.33 0.00388 5 0.00781 0.788-0.00405 1.58-0.0081 2.39-0.0123 3.84 0.0329 5.66 0.0996 8.93 2.28 1.93 0.575 3.87 1.11 5.81 1.62 12.1 3.61 22.4 10.4 31.2 19.4 0.61 0.565 1.22 1.13 1.85 1.71 11.1 10.4 18.9 24.6 19.4 40 0.0082 1.58 0.00278 3.17-0.0156 4.75-0.00798 1.24-0.00798 1.24-0.0161 2.51-0.184 11.8-0.184 11.8-2.23 17.1-0.99 0.495-0.99 0.495-2 1 0.875-5.75 0.875-5.75 2-8h-2v-5h1c0.33-2.31 0.66-4.62 1-7h-6v-6h3c-0.66-0.99-1.32-1.98-2-3-0.165-1.03-0.33-2.06-0.5-3.12-0.165-0.949-0.33-1.9-0.5-2.88-0.66-0.33-1.32-0.66-2-1v-4c-1.07-0.124-2.15-0.248-3.25-0.375-3.13-0.521-5.08-1.03-7.75-2.62-0.495 0.99-0.495 0.99-1 2-0.33-0.66-0.66-1.32-1-2-0.33 1.98-0.66 3.96-1 6 1.98 0.495 1.98 0.495 4 1v2h-2c0.495 1.98 0.495 1.98 1 4h-3c-0.33 2.97-0.66 5.94-1 9-0.66-0.66-1.32-1.32-2-2-0.99 1.98-0.99 1.98-2 4h-2c0.33 0.99 0.66 1.98 1 3-0.33 0.66-0.66 1.32-1 2-0.206 4.44 0.299 8.62 1 13-1.49 0.495-1.49 0.495-3 1v2h-2c-0.33 1.65-0.66 3.3-1 5-1.32 0.33-2.64 0.66-4 1v2h-5c-0.248 0.804-0.495 1.61-0.75 2.44-1.25 2.56-1.25 2.56-3.38 3.38-0.928 0.0928-0.928 0.0928-1.88 0.188 0.33-0.66 0.66-1.32 1-2-1.65-0.66-3.3-1.32-5-2v2c-2.96 1.48-5.74 1.06-9 1 0.495-1.49 0.495-1.49 1-3 1.97-0.526 3.95-1.04 5.94-1.48 7.55-1.92 13.5-8.27 17.4-14.7 2.87-5.26 4.24-9.66 4.56-15.6 0.117-2.17 0.117-2.17 0.742-4.67 1.8-12-3.9-22-10.6-31.5-0.567-0.561-1.13-1.12-1.72-1.7-1.28-1.3-1.28-1.3-1.28-3.3-0.969-0.289-1.94-0.578-2.94-0.875-3.06-1.12-3.06-1.12-4.06-3.12-20.9-11.1-43.8-12.2-67-9-0.614 0.33-1.23 0.66-1.86 1-3.47 1.62-7.11 1.47-10.9 1.62-0.793 0.0387-1.59 0.0773-2.4 0.117-1.95 0.0939-3.9 0.177-5.85 0.258-0.33-1.32-0.66-2.64-1-4 1.65-0.66 3.3-1.32 5-2v-2c1.03-0.398 1.03-0.398 2.08-0.805l2.73-1.07c0.893-0.348 1.79-0.696 2.71-1.05 2.66-1.06 2.66-1.06 5.48-3.07 1.92-0.344 1.92-0.344 4.19-0.5 4.78-0.404 9.55-0.882 14.3-1.44 0.707-0.0748 1.41-0.15 2.14-0.227 5.17-0.611 7.85-3.07 13.1-3.11z" fill="#64C3E8"/>
<path transform="translate(1337 69.9)" d="m0 0c0.958 0.00524 1.92 0.0105 2.9 0.0159 1.55 0.00483 1.55 0.00483 3.13 0.00977 1.09 0.00838 2.18 0.0168 3.3 0.0254 1.64 0.00677 1.64 0.00677 3.31 0.0137 2.71 0.0118 5.42 0.0283 8.13 0.0488v2h2c-1.53 8.56-3.14 17-5.35 25.4-0.637 2.5-1.16 5.01-1.65 7.55h-1c0.0722-1.16 0.144-2.32 0.219-3.51 0.0938-1.54 0.188-3.08 0.281-4.62 0.0477-0.761 0.0954-1.52 0.145-2.3 0.431-6.28 0.431-6.28 0.355-12.6-0.66-0.66-1.32-1.32-2-2h-2c-1.05 1.64-2.04 3.31-3 5-2.01 2.97-3.98 5.05-7 7h-2c0.247 0.722 0.495 1.44 0.75 2.19 0.345 3.88-1.35 4.85-3.75 7.81-0.395 2.32-0.722 4.66-1 7-0.676 1.99-1.46 3.92-2.24 5.87-1.09 3.05-1.66 6.16-2.23 9.34-0.174 0.589-0.348 1.18-0.527 1.79-0.99 0.495-0.99 0.495-2 1-1.54 6.56-2.29 13.3-2 20v4h-3v2c0.66 0.33 1.32 0.66 2 1v3h2c0.33-0.66 0.66-1.32 1-2v2h2v6h-7c0.99-0.99 0.99-0.99 2-2h-2c-1.33 3-1.33 3 0 6 1.48 0.495 1.48 0.495 3 1v3h-6c-0.33 1.32-0.66 2.64-1 4h2c0.762 4.32 1.16 7.74 0 12 1.65 0.33 3.3 0.66 5 1v4c0.66 0.33 1.32 0.66 2 1 1.3 2.54 2.44 5.14 3.59 7.75 1.2 2.42 1.2 2.42 3.58 3.06 0.606 0.0619 1.21 0.124 1.84 0.188v3c1.65 0.33 3.3 0.66 5 1-0.33 0.66-0.66 1.32-1 2-9.11 2.42-22.4 4.36-31.6 1.08-2.23-1.54-3.25-2.63-4.43-5.08-2-11.2 1.73-23.3 4.54-34.1 1.29-5.03 2.18-10.1 2.96-15.2 0.653-3.58 1.73-6.96 2.84-10.4 0.648-2.3 0.98-4.46 1.22-6.83 0.438-3.5 0.438-3.5 2.44-5.5 0.615-2.27 0.615-2.27 1-4.9 0.165-0.973 0.33-1.95 0.5-2.95 0.165-1.02 0.33-2.04 0.5-3.09 0.327-2.01 0.66-4.02 1-6.03 0.144-0.893 0.289-1.79 0.438-2.71 0.562-2.33 0.562-2.33 2.56-5.33 0.545-2.07 1.01-4.15 1.44-6.25 0.389-1.87 0.389-1.87 0.785-3.78 0.526-2.63 1.01-5.27 1.46-7.91 3.72-20.8 3.72-20.8 10.5-21.2z" fill="#64C4E8"/>
<path transform="translate(1283,64)" d="m0 0h3c0.0743 3.34 0.0655 5.8-1 9-0.125 1.5-0.201 3.01-0.246 4.52-0.0316 0.911-0.0632 1.82-0.0957 2.76-0.0316 0.981-0.0632 1.96-0.0957 2.97-0.321 8.52-0.826 17-1.56 25.5-0.0831 0.981-0.166 1.96-0.252 2.97-0.62 6.89-0.62 6.89-1.75 10.3-0.208 2.27-0.367 4.55-0.5 6.83-0.0406 0.667-0.0812 1.33-0.123 2.02-0.129 2.13-0.254 4.27-0.377 6.4-0.124 2.12-0.249 4.24-0.377 6.36-0.117 1.93-0.23 3.87-0.342 5.8-0.188 2.4-0.452 4.79-0.793 7.17-0.459 3.22-0.687 6.33-0.805 9.58-0.0419 1.11-0.0838 2.21-0.127 3.35-0.0393 1.13-0.0786 2.27-0.119 3.44-0.0432 1.16-0.0864 2.32-0.131 3.52-0.105 2.85-0.208 5.7-0.307 8.54-1.48 0.495-1.48 0.495-3 1-0.103-0.784-0.206-1.57-0.312-2.38-0.463-2.96-0.463-2.96-3.69-4.62-1.48 0.495-1.48 0.495-3 1-2.19-0.438-2.19-0.438-4-1-0.124-0.639-0.247-1.28-0.375-1.94-0.206-0.681-0.412-1.36-0.625-2.06-0.66-0.33-1.32-0.66-2-1 0.495-0.495 0.495-0.495 1-1-0.66-0.66-1.32-1.32-2-2 0.66-0.99 1.32-1.98 2-3-1.32-0.66-2.64-1.32-4-2v-2h-3v-2c-0.66-0.33-1.32-0.66-2-1-0.307-5.23 0.293-7.63 3-12 1.23-3.99 2.02-7.82 1.94-12 0.075-3.6 1.06-6.38 2.27-9.75 0.732-2.07 1.35-4.14 1.92-6.25 0.875-3 0.875-3 1.88-4 0.133-1.45 0.203-2.91 0.246-4.37 0.0329-0.886 0.0657-1.77 0.0996-2.68 0.0609-1.87 0.118-3.75 0.172-5.62 0.0342-0.888 0.0683-1.78 0.104-2.69 0.0251-0.816 0.0501-1.63 0.0759-2.47 0.303-2.16 0.303-2.16 2.3-5.16h3c0.144-0.969 0.289-1.94 0.438-2.94 0.562-3.06 0.562-3.06 1.56-4.06-0.66 0.33-1.32 0.66-2 1v5h-3v-7c0.639-0.103 1.28-0.206 1.94-0.312 0.681-0.227 1.36-0.454 2.06-0.688 0.33-0.99 0.66-1.98 1-3-0.33-0.33-0.66-0.66-1-1 0.252-1.53 0.576-3.05 0.938-4.56 0.195-0.826 0.389-1.65 0.59-2.5 0.156-0.638 0.312-1.28 0.473-1.93 0.969-0.124 1.94-0.248 2.94-0.375 1.01-0.206 2.02-0.412 3.06-0.625 0.33-0.66 0.66-1.32 1-2v2h3c0.33-2.31 0.66-4.62 1-7z" fill="#65C1E7"/>
<path transform="translate(369,89)" d="m0 0c2.79 0.114 5.58 0.24 8.38 0.375 0.794 0.0309 1.59 0.0619 2.41 0.0938 5.99 0.305 5.99 0.305 8.22 2.53 2.96 0.836 5.95 1.47 8.96 2.12 4.06 1.17 7.12 2.53 9.54 6.07 0.609 3.43-0.453 5.26-1.7 8.42-1.5 4.48-2 9.16-2.68 13.8-1.48 9.51-3.56 18.5-6.51 27.6-1.01 3.16-1.94 6.35-2.86 9.54-0.315 1.06-0.629 2.13-0.953 3.23-0.853 3.37-1.35 6.7-1.8 10.1-0.309 1.34-0.629 2.68-1 4-2.25 0-2.25 0-5-1-1.78-2.46-2.86-5.2-4-8-0.352-0.828-0.704-1.66-1.07-2.51-1.97-4.76-3.68-9.49-4.93-14.5-0.197-0.643-0.394-1.29-0.598-1.95-1.63-6.2-1.44-12.2-1.15-18.6 0.0384-0.897 0.0769-1.79 0.116-2.72 0.0492-0.845 0.0985-1.69 0.149-2.56 0.0442-0.764 0.0883-1.53 0.134-2.31 0.351-1.9 0.351-1.9 2.35-3.9 1.57-6.07 3.12-13 1-19-2.46-2.62-5.13-4.85-8-7 0.33-1.32 0.66-2.64 1-4z" fill="#65C1E7"/>
<path transform="translate(1217,71)" d="m0 0c0.66 1.32 1.32 2.64 2 4 0.66-0.66 1.32-1.32 2-2v4h-2v2c0.99-0.33 1.98-0.66 3-1v2h2c-0.33 0.99-0.66 1.98-1 3h-1c-0.33 1.98-0.66 3.96-1 6h3c0.741 15.5-2.76 30.2-6.06 45.3-0.257 1.18-0.515 2.35-0.78 3.56-0.249 1.11-0.499 2.22-0.755 3.36-0.222 0.99-0.444 1.98-0.672 3-0.714 2.7-1.67 5.18-2.73 7.76-0.369 2.03-0.369 2.03-0.5 4-0.348 3.33-1.26 5.89-2.5 9-0.45 2.66-0.726 5.31-1 8h-4c-1.55 0.0928-1.55 0.0928-3.12 0.188-0.949-0.0619-1.9-0.124-2.88-0.188-2.43-3.64-2.16-5.71-2-10h-2c-0.027-3.06-0.0469-6.12-0.0625-9.19-0.00838-0.864-0.0168-1.73-0.0254-2.62-0.0162-4.24 0.176-8.04 1.09-12.2-0.317-2.34-0.648-4.67-1-7 0.33-0.66 0.66-1.32 1-2 0.131-2.33 0.23-4.67 0.312-7 0.327-6.39 1.15-12.5 4.69-18 1.48-0.495 1.48-0.495 3-1v5c0.495-0.495 0.495-0.495 1-1v-3h2c-0.66-0.66-1.32-1.32-2-2-0.125-3.62-0.125-3.62 0-7 0.66 0.33 1.32 0.66 2 1-0.33-0.99-0.66-1.98-1-3-0.0685-1.89-0.0848-3.79-0.0625-5.69 0.00902-0.994 0.018-1.99 0.0273-3.01 0.0116-0.759 0.0232-1.52 0.0352-2.3 1.32 0.33 2.64 0.66 4 1 0.648-2.41 1.05-4.56 1.25-7.06 0.75-2.94 0.75-2.94 3.31-4.81 1.21-0.557 1.21-0.557 2.44-1.12z" fill="#65C1E7"/>
<path transform="translate(517,126)" d="m0 0c0.99 0.33 1.98 0.66 3 1h3 6c0.33 2.31 0.66 4.62 1 7h-2c-0.0909 0.909-0.0909 0.909-0.184 1.84-0.0838 0.838-0.168 1.68-0.254 2.54-0.0851 0.906-0.17 1.81-0.258 2.75-0.2 1.89-0.444 3.78-0.734 5.66-0.126 0.875-0.253 1.75-0.383 2.65-0.13 0.803-0.26 1.61-0.395 2.43 1.89e-5 2.28 1.89e-5 2.28 1.91 3.9 3.41 1.82 5.8 1.56 9.56 1.07 7.09-2.18 12.2-7.53 15.7-13.8 0.981-1.02 1.98-2.02 3-3 0.33-0.66 0.66-1.32 1-2 3.7-2.04 6.79-3.31 10.9-2.25 2.06 1.25 2.06 1.25 3.06 2.25 0.471 2.59 0.384 4.34-0.955 6.64-1.35 1.84-2.77 3.6-4.23 5.36-0.483 0.603-0.966 1.21-1.46 1.83-4.24 5.24-8.42 9.84-14.3 13.2-1.05 0.722-2.1 1.44-3.19 2.19-2.81 1.81-2.81 1.81-4.81 1.81-0.33 0.99-0.66 1.98-1 3-5.24 2.89-9.07 3.31-15 3v-3h-4c0.99 0.66 1.98 1.32 3 2-4.95 0.495-4.95 0.495-10 1v-2c-0.99-0.33-1.98-0.66-3-1-0.495-1.49-0.495-1.49-1-3-1.33-0.343-2.66-0.676-4-1-2.28-3.42-2.22-4.68-2.12-8.69 0.018-0.994 0.0361-1.99 0.0547-3.01 0.0232-0.759 0.0464-1.52 0.0703-2.3-0.66 0.33-1.32 0.66-2 1v-9h2c1.61-3.65 2.45-7.05 3-11 0.619-0.0619 1.24-0.124 1.88-0.188 1.05-0.402 1.05-0.402 2.12-0.812 0.702-1.65 1.37-3.32 2-5 0.99-0.33 1.98-0.66 3-1v-2z" fill="#65C1E7"/>
<path transform="translate(824,114)" d="m0 0h9v2c0.928 0.155 0.928 0.155 1.88 0.312 2.12 0.688 2.12 0.688 4.12 3.69v4h5c2.39 4.63 2.13 8.52 1.75 13.6-0.0595 0.796-0.119 1.59-0.18 2.41-0.126 1.6-0.258 3.2-0.397 4.8-0.151 1.95-0.217 3.91-0.27 5.86-0.221 3.2-0.509 5.47-1.9 8.36-5.51 4.42-12.3 6.5-19.2 7.58-2.16 0.382-2.16 0.382-4.84 2.42-5.57-0.124-8.13-2.31-12-6-1.32-2.65-0.954-4.37-0.688-7.31 0.0786-0.945 0.157-1.89 0.238-2.86 0.449-2.82 0.449-2.82 1.43-5.28 1.19-2.98 1.56-5.73 1.95-8.92 0.718-5.06 1.74-9.09 4.06-13.6 2.97 0.495 2.97 0.495 6 1-0.33 1.32-0.66 2.64-1 4h2c-0.0619-0.949-0.124-1.9-0.188-2.88 0.0619-1.03 0.124-2.06 0.188-3.12 0.99-0.66 1.98-1.32 3-2 0.363-1.98 0.363-1.98 0.188-4.12-0.0619-1.28-0.124-2.56-0.188-3.88z" fill="#65C1E7"/>
<path transform="translate(748,120)" d="m0 0c-0.33 0.99-0.66 1.98-1 3h3c1.11 6.61 2.05 13.1 2.38 19.8 0.366 5.7 1.76 9.29 4.62 14.2v2c0.619 0.144 1.24 0.289 1.88 0.438 2.12 0.562 2.12 0.562 4.12 1.56 15-0.0542 15-0.0542 29.1-4.06 2.37-1.16 4.06-1.14 6.68-1.07 0.799 0.018 1.6 0.0361 2.42 0.0547 0.603 0.0232 1.21 0.0464 1.83 0.0703v5h-2c-0.0412 0.577-0.0825 1.16-0.125 1.75-1.31 3.38-3.87 4.5-6.88 6.25-0.873 0.539-1.75 1.08-2.64 1.63-18 10.9-18 10.9-26.4 10.4 0.33-0.99 0.66-1.98 1-3-1.49-0.495-1.49-0.495-3-1 0.33-0.99 0.66-1.98 1-3-3.3-0.33-6.6-0.66-10-1v2c-5.5-1.47-5.5-1.47-7.88-4-1.12-2-1.12-2-1.12-4-0.92-0.141-0.92-0.141-1.86-0.285-2.68-0.894-3.13-1.67-4.39-4.15-2.24-4.82-2.13-9.35-1.75-14.6h-2c-1.84-8.19-2.22-16.6 1.66-24.2 2.91-3.87 6.67-5.34 11.3-3.79z" fill="#65C2E7"/>
<path transform="translate(440 93.9)" d="m0 0c1.24-0.00258 2.48-0.00516 3.76-0.00781 2.93 0.0502 5.79 0.3 8.7 0.637 6.67 0.715 13.3 0.603 20 0.559 1.29-0.00451 2.58-0.00902 3.91-0.0137 3.15-0.0117 6.31-0.0281 9.46-0.0488 0.625 3.36 0.625 3.36 1 7-3.34 3.86-7.15 4.81-12 6-0.66 0.33-1.32 0.66-2 1-1.38 0.127-2.76 0.202-4.14 0.246-0.824 0.0329-1.65 0.0657-2.5 0.0996-1.73 0.0606-3.45 0.118-5.18 0.172-4.75 0.196-8.72 0.68-13.2 2.48-0.244 5.8-0.244 5.8 2 11-0.99-0.33-1.98-0.66-3-1-0.99 0.99-1.98 1.98-3 3-0.33-0.33-0.66-0.66-1-1-0.33 0.99-0.66 1.98-1 3h-2c-0.66-0.66-1.32-1.32-2-2 0.398 2.89 0.79 3.82 3.06 5.75 0.959 0.619 0.959 0.619 1.94 1.25-0.33 0.99-0.66 1.98-1 3v-2c-4.37-2.24-8.86-4.24-13.3-6.26-10.8-4.95-10.8-4.95-12.7-8.74-0.431-5.5 0.583-9.07 3-14 0.284-0.673 0.567-1.35 0.859-2.04 1.37-2.36 2.69-3.26 5.02-4.65 0.678-0.416 1.36-0.833 2.05-1.26 4.38-2.22 8.32-2.19 13.2-2.18z" fill="#64C4E9"/>
<path transform="translate(294,71)" d="m0 0 4 1c-0.153 1.08-0.307 2.16-0.465 3.27-0.68 5.46-0.887 10.9-1.1 16.4-0.0432 1.06-0.0864 2.12-0.131 3.21-0.255 6.61-0.387 13.2-0.244 19.8-0.0625 2.29-0.0625 2.29-1.06 5.29 1.98-0.495 1.98-0.495 4-1 0.553 2.08 1 3.84 1 6 2.48-0.495 2.48-0.495 5-1-1.35 2.94-2.9 5.29-5 7.75-0.516 0.614-1.03 1.23-1.56 1.86-1.44 1.39-1.44 1.39-3.44 1.39-0.186 0.66-0.371 1.32-0.562 2-2.07 4.32-4.71 7.96-8.44 11-3.44 0-3.44 0-6-1v-3c-1.32-0.33-2.64-0.66-4-1 0.33-2.64 0.66-5.28 1-8 2.48-0.495 2.48-0.495 5-1v-2c-0.99-0.33-1.98-0.66-3-1-0.66-0.66-1.32-1.32-2-2-0.99-0.33-1.98-0.66-3-1 0.547-3.37 1.05-5.08 3-8-0.66-0.33-1.32-0.66-2-1-0.25-2.25-0.25-2.25 0-5 0.639-0.557 1.28-1.11 1.94-1.69 3.23-3.62 2.8-7.61 3.06-12.3 0.174-1.54 0.36-3.09 0.562-4.62 0.144-1.11 0.289-2.23 0.438-3.38h2c-0.0206-1.22-0.0412-2.43-0.0625-3.69-0.00574-3.23 0.275-6.16 1.06-9.31 1.98-0.33 3.96-0.66 6-1v-2h3c0.33-1.65 0.66-3.3 1-5z" fill="#65C1E7"/>
<path transform="translate(776,86)" d="m0 0c0.66 0.66 1.32 1.32 2 2h3c7.19 5.12 15 12.9 16.5 21.9-1.78 10.9-10.2 19.5-18.5 26.1-0.601 0.487-1.2 0.975-1.82 1.48-5.22 4-10.5 5.93-17.2 5.52-1.14-1.72-1.14-1.72-2-4 0.828-2.22 0.828-2.22 2.25-4.5 0.459-0.753 0.918-1.51 1.39-2.28 0.449-0.732 0.897-1.46 1.36-2.22 0.345-0.732 0.691-1.46 1.05-2.22 0.953-1.78 0.953-1.78 2.95-2.78 1.04-1.98 2.03-3.98 3-6 0.516-0.825 1.03-1.65 1.56-2.5 1.58-2.75 2.52-5.47 3.44-8.5h1c-0.0116-0.976-0.0232-1.95-0.0352-2.96-0.00902-1.27-0.018-2.54-0.0273-3.86-0.0116-1.26-0.0232-2.53-0.0352-3.83 0.0977-3.36 0.0977-3.36 1.1-6.36-0.99-0.33-1.98-0.66-3-1 0.66-0.33 1.32-0.66 2-1v-3z" fill="#64C3E8"/>
<path transform="translate(80.7 142)" d="m0 0c1.49 0.0271 1.49 0.0271 3.01 0.0547 0.759 0.0232 1.52 0.0464 2.3 0.0703-0.33 0.99-0.66 1.98-1 3h-6c1.03 1.26 1.03 1.26 3.29 1.1 0.917-0.0116 1.83-0.0232 2.78-0.0352 0.919-0.00902 1.84-0.018 2.79-0.0273 0.71-0.0116 1.42-0.0232 2.15-0.0352 1.71 4.98 0.00886 8.43-2 13-0.33-0.66-0.66-1.32-1-2h-2v3c1.32 0.33 2.64 0.66 4 1v2h2v2h2c0.33 1.98 0.66 3.96 1 6 0.99 0.33 1.98 0.66 3 1 0.0606 0.652 0.121 1.3 0.184 1.98 0.452 4.71 0.958 9.37 1.82 14h2v2c1.32 0.66 2.64 1.32 4 2v2c1.32 0.66 2.64 1.32 4 2 0.0823 3.04-0.0239 5.07-1 8 0.33 0.66 0.66 1.32 1 2h5c-0.66-0.99-1.32-1.98-2-3 0.784 0.0412 1.57 0.0825 2.38 0.125 2.79 0.162 2.79 0.162 4.62-2.12v3h2v-7c2.15 3.23 3.58 6.56 5.06 10.1 1.5 4.24 1.5 4.24 3.94 7.88 0.0406 1.67 0.0427 3.33 0 5-3.56 1.89-6.73 2.49-10.8 1.87-10.1-3.9-19-16.6-23.2-26.1-1.77-4.13-3.44-8.3-5.07-12.5-0.894-2.26-0.894-2.26-1.99-4.36-0.938-1.91-0.938-1.91-1.81-5.09-1.13-3.84-2.62-7.28-4.32-10.9-0.805-1.92-0.805-1.92-0.805-3.92h-13c-0.369-7.51-0.369-7.51 1.5-10 0.495-0.33 0.99-0.66 1.5-1 0.66 0.33 1.32 0.66 2 1v-3h-2v-2c3.42-2.28 4.68-2.22 8.69-2.12z" fill="#64C4E9"/>
<path transform="translate(369,89)" d="m0 0c2.79 0.114 5.58 0.24 8.38 0.375 0.794 0.0309 1.59 0.0619 2.41 0.0938 5.99 0.305 5.99 0.305 8.22 2.53 2.96 0.836 5.95 1.47 8.96 2.12 4.06 1.17 7.12 2.53 9.54 6.07 0.602 3.39-0.29 5.37-1.63 8.48-1.6 4.29-2.17 8.83-2.87 13.3h-1v-9c-0.66-0.33-1.32-0.66-2-1-0.764-3.44-1-6.47-1-10-0.613-1.69-1.27-3.36-2-5-2.31-0.33-4.62-0.66-7-1v6c0.33-0.66 0.66-1.32 1-2h2c0.288 3.05 0.438 5.96 0 9-2.3 1.98-4.27 2.72-7.07 3.79-2.52 1.58-2.82 2.82-3.62 5.65-0.231 0.782-0.461 1.56-0.699 2.37-0.202 0.723-0.405 1.45-0.613 2.19-0.33 0.99-0.66 1.98-1 3-0.0827 1.92-0.107 3.84-0.0977 5.76 0.00322 1.12 0.00645 2.24 0.00977 3.39 0.00838 1.17 0.0168 2.33 0.0254 3.54 0.00451 1.18 0.00902 2.36 0.0137 3.57 0.0118 2.91 0.0283 5.83 0.0488 8.74h2c0.99 3.46 0.99 3.46 2 7 2.64 0.66 5.28 1.32 8 2 0.66-1.32 1.32-2.64 2-4-0.133 0.641-0.266 1.28-0.402 1.94-1.02 5.01-1.89 9.99-2.6 15.1-0.309 1.34-0.629 2.68-1 4-2.25 0-2.25 0-5-1-1.78-2.46-2.86-5.2-4-8-0.352-0.828-0.704-1.66-1.07-2.51-1.97-4.76-3.68-9.49-4.93-14.5-0.197-0.643-0.394-1.29-0.598-1.95-1.63-6.2-1.44-12.2-1.15-18.6 0.0384-0.897 0.0769-1.79 0.116-2.72 0.0492-0.845 0.0985-1.69 0.149-2.56 0.0442-0.764 0.0883-1.53 0.134-2.31 0.351-1.9 0.351-1.9 2.35-3.9 1.57-6.07 3.12-13 1-19-2.46-2.62-5.13-4.85-8-7 0.33-1.32 0.66-2.64 1-4z" fill="#64C4E9"/>
<path transform="translate(928,110)" d="m0 0c13.6 6.11 21.8 21.9 29.1 34 1.66 2.58 3.35 4.81 5.4 7.09 2.5 2.88 2.5 2.88 2.5 5.88h2c2 4.88 2 4.88 2 6-0.615-0.0348-1.23-0.0696-1.86-0.105-1.21-0.0406-1.21-0.0406-2.45-0.082-0.801-0.0348-1.6-0.0696-2.43-0.105-2.78 0.36-3.4 1.3-5.26 3.29-2.69-0.312-2.69-0.312-5-1-0.33-0.99-0.66-1.98-1-3 0.33-0.33 0.66-0.66 1-1-0.784-0.103-1.57-0.206-2.38-0.312-2.62-0.688-2.62-0.688-4.62-3.69-0.681-0.165-1.36-0.33-2.06-0.5-0.639-0.165-1.28-0.33-1.94-0.5-1.16-3.47-1.07-6.36-1-10-0.784-0.0825-1.57-0.165-2.38-0.25-2.62-0.75-2.62-0.75-3.88-2.56-0.75-2.19-0.75-2.19-1.19-4.12-0.992-3.64-2.92-6.42-5.56-9.06 0.356-3.38 1.36-6.04 3-9-0.66-0.33-1.32-0.66-2-1-0.309-0.66-0.619-1.32-0.938-2-0.952-2.35-0.952-2.35-4.06-3-1.19-2.06-1.19-2.06-2-4 2.7-1.35 3.97-1.4 7-1z" fill="#65C3E8"/>
<path transform="translate(343,118)" d="m0 0c2.97 0.495 2.97 0.495 6 1 0.495 2.97 0.495 2.97 1 6 0.99 0.33 1.98 0.66 3 1 1.36 7.24 1.13 11.8-3 18-6.57 9.61-18.9 19.5-30 23-3.44 0.188-3.44 0.188-6 0-0.812-3.19-0.812-3.19-1-7 2.25-2.62 2.25-2.62 5-5 1.02-1.66 2.02-3.32 3-5 0.66-0.33 1.32-0.66 2-1v-4c0.66-0.412 1.32-0.825 2-1.25 2.19-1.53 2.19-1.53 2.27-3.71-0.0142-2.01-0.134-4.03-0.266-6.04 0.897-0.0619 0.897-0.0619 1.81-0.125 3.28-1.31 3.73-3.77 5.19-6.88 0.99-0.66 1.98-1.32 3-2 0.733-3.07 0.733-3.07 1-6 1.32 0.33 2.64 0.66 4 1 0.33-0.66 0.66-1.32 1-2z" fill="#65C1E7"/>
<path transform="translate(62,127)" d="m0 0h2c0.33 1.98 0.66 3.96 1 6l-2 1c-0.656 2.53-0.656 2.53-1 5 0.784 0.124 1.57 0.248 2.38 0.375 3.72 0.887 4.51 2.46 6.62 5.62 0.188 2.62 0.188 2.62 0 5-0.33 0.33-0.66 0.66-1 1-0.225 2.03-0.448 4.06-0.621 6.09-0.379 1.91-0.379 1.91-2.38 3.91-0.672 2.19-1.26 4.4-1.81 6.62-2.09 8.23-4.6 16.3-7.19 24.4-3.29 0.8-4.71 1.1-8 0v-5h5c0.33-0.99 0.66-1.98 1-3-2.48 0.495-2.48 0.495-5 1-0.66-0.99-1.32-1.98-2-3-0.99-0.33-1.98-0.66-3-1 0.33-2.31 0.66-4.62 1-7h2v4c0.495-2.97 0.495-2.97 1-6h2c-0.206-0.598-0.413-1.2-0.625-1.81-0.375-2.19-0.375-2.19 1.62-5.19-0.329-0.547-0.657-1.09-0.996-1.66-1.2-2.81-1.17-4.8-1.07-7.84 0.108-3.42-0.0298-6.21-0.938-9.5 0.271-2.99 0.74-3.78 3.06-5.75 0.959-0.619 0.959-0.619 1.94-1.25-0.33-2.31-0.66-4.62-1-7 0.949-0.268 1.9-0.536 2.88-0.812 3.38-0.937 3.38-0.937 5.12-4.19z" fill="#65C1E7"/>
<path transform="translate(462,144)" d="m0 0c-0.33 0.66-0.66 1.32-1 2 1.32 0.33 2.64 0.66 4 1 0.545 4.08 1 7.87 1 12h-2c-0.0928 1.08-0.0928 1.08-0.188 2.19-1.96 6.78-9.16 10.2-14.8 13.8l-1.86 1.27c-4.61 2.99-7.83 3.36-13.1 2.73-0.66-0.99-1.32-1.98-2-3-0.99-0.33-1.98-0.66-3-1v-2c-1.32-0.66-2.64-1.32-4-2v-5c0.763-0.227 1.53-0.454 2.31-0.688 3.23-1.58 4.1-3.15 5.69-6.31 1.98 0.33 3.96 0.66 6 1 0.268-0.639 0.536-1.28 0.812-1.94 1.19-2.06 1.19-2.06 4.19-3.06 1.23-3.01 1.23-3.01 2-6h3v-2c8.26-4.78 8.26-4.78 13-3z" fill="#65C1E7"/>
<path transform="translate(1435,132)" d="m0 0c2.38 0.188 2.38 0.188 5 1 1.25 2.38 1.25 2.38 2 5 0.33 0.99 0.66 1.98 1 3 0.99 0.33 1.98 0.66 3 1 1.19 3.06 1.19 3.06 2 6 0.33-1.65 0.66-3.3 1-5 2.26 3.59 2.21 6.57 2.12 10.8-0.018 1.17-0.0361 2.34-0.0547 3.55-0.0232 0.892-0.0464 1.78-0.0703 2.7 0.66 0.33 1.32 0.66 2 1 1.63 2.79 3.08 5.66 4.56 8.53 1.2 2.58 1.2 2.58 3.44 3.47 0.33 0.99 0.66 1.98 1 3 1.48 0.495 1.48 0.495 3 1 0.688 2.06 0.688 2.06 1 4 0.909-0.0522 0.909-0.0522 1.84-0.105 6.43-0.208 12.2 0.491 18.2 3.11 0.33 0.66 0.66 1.32 1 2 0.949 0.309 1.9 0.619 2.88 0.938 2.97 1.01 4.19 1.69 6.12 4.06-4.67 2.34-11 0.816-16 0-4.57-1.61-8.75-3.7-13-6-0.87-0.44-1.74-0.879-2.64-1.33-4.54-2.37-7.93-4.8-11.4-8.67-0.663-0.683-1.33-1.37-2.01-2.07-4.25-4.49-6.95-7.79-7.99-13.9h-2c-3.17-6.37-5.6-11.8-6-19-0.99-0.33-1.98-0.66-3-1 0.99-2.31 1.98-4.62 3-7z" fill="#64C4E9"/>
<path transform="translate(607 131)" d="m0 0c1.18-0.00773 1.18-0.00773 2.38-0.0156 2.06 0.266 2.06 0.266 4.06 2.27v3c0.99 0.33 1.98 0.66 3 1 0.0541 2.58 0.0937 5.17 0.125 7.75 0.0168 0.73 0.0335 1.46 0.0508 2.21 0.0353 3.89-0.06 6.73-2.18 10-0.33 0.866-0.66 1.73-1 2.62-1 2.38-1 2.38-3 4.38-3.44 0.75-3.44 0.75-7 1-0.99-0.66-1.98-1.32-3-2-0.188-2.62-0.188-2.62 0-5-2.48-0.99-2.48-0.99-5-2v-7h-2v-7h2c0.103-0.557 0.206-1.11 0.312-1.69 1.8-6.06 4.73-9.61 11.2-9.56z" fill="#65C2E7"/>
<path transform="translate(209,120)" d="m0 0h2c1.25 2.85 0.953 4.16 0.0625 7.19-1.51 3.31-3.62 5.58-6.12 8.19-3.9 4.21-5.84 7.82-5.94 13.6 0.665 2.88 0.665 2.88 2 5 0.33 0.66 0.66 1.32 1 2h-2v3c-1.32-0.33-2.64-0.66-4-1h2v-2h-10c-0.0619-1.11-0.0619-1.11-0.125-2.25-1.22-3.85-3.47-4.79-6.88-6.75 0.186-0.557 0.371-1.11 0.562-1.69 0.613-2.34 0.613-2.34-0.188-4.75-0.375-2.56-0.375-2.56 0.625-5.06 2.59-3.24 5.25-5.67 9-7.5 3.94-0.312 3.94-0.312 7 0 0.33-1.65 0.66-3.3 1-5 2.02 0.0977 4.04 0.195 6.05 0.293 0.642-0.0967 1.28-0.193 1.95-0.293 0.66-0.99 1.32-1.98 2-3z" fill="#65C1E7"/>
<path transform="translate(882,132)" d="m0 0h6c0.33 0.66 0.66 1.32 1 2 1.9 0.465 1.9 0.465 4.06 0.625 1.3 0.124 2.6 0.248 3.94 0.375 0.33-0.66 0.66-1.32 1-2 1.2 5.38 0.722 9.57-0.402 14.9-0.861 4.4-1.34 8.85-1.84 13.3-0.758 2.75-0.758 2.75-2.64 4.6-2.94 1.6-4.82 1.63-8.12 1.15-2.19-1.94-2.19-1.94-4-4-0.99-0.33-1.98-0.66-3-1 0.0206-0.784 0.0412-1.57 0.0625-2.38 0.124-2.61 0.124-2.61-1.06-4.62 0.66-0.33 1.32-0.66 2-1-0.0412-0.949-0.0825-1.9-0.125-2.88 0.125-3.12 0.125-3.12 2.12-5.12-0.66-0.66-1.32-1.32-2-2-1.3-4.01-0.824-6.24 1-10h2v-2z" fill="#65C1E7"/>
<path transform="translate(813,130)" d="m0 0c0.66 0.66 1.32 1.32 2 2-0.0206 1.16-0.0412 2.31-0.0625 3.5 0.0206 1.16 0.0412 2.31 0.0625 3.5 0.99 0.66 1.98 1.32 3 2-0.33-2.31-0.66-4.62-1-7 3.88 1.75 3.88 1.75 5 4 0.66 0.33 1.32 0.66 2 1-1 3-1 3-2 4 0.376 3.23 0.987 5.97 2.19 9 0.999 3.69 0.294 5.54-1.19 9 0.928 0.144 1.86 0.289 2.81 0.438 3.19 0.562 3.19 0.562 6.19 1.56v-2h3c0.33-0.99 0.66-1.98 1-3 1.65-0.33 3.3-0.66 5-1-0.66-2.31-1.32-4.62-2-7h5c0.382 3.31 0.274 5.9-1 9-5.55 4.27-12.3 6.5-19.2 7.58-2.16 0.382-2.16 0.382-4.84 2.42-5.57-0.124-8.13-2.31-12-6-1.32-2.65-0.954-4.37-0.688-7.31 0.0786-0.945 0.157-1.89 0.238-2.86 0.449-2.82 0.449-2.82 1.43-5.26 1.63-4.09 1.91-8.35 2.46-12.7 0.562-2.86 0.562-2.86 2.56-4.86z" fill="#65C3E8"/>
<path transform="translate(875,121)" d="m0 0h4c0.99 1.98 1.98 3.96 3 6h4v4c5.28-0.99 10.6-1.98 16-3 2 4 2 4 2 7h-2c-0.193 0.759-0.387 1.52-0.586 2.3-0.26 0.994-0.521 1.99-0.789 3.01-0.383 1.48-0.383 1.48-0.773 2.99-0.852 2.7-0.852 2.7-2.85 5.7 0.33-4.62 0.66-9.24 1-14h-9c-0.33-0.99-0.66-1.98-1-3-2.64 0.66-5.28 1.32-8 2-1.15 5.08-1.15 5.08 0 10 1.98 1.28 1.98 1.28 4 2-1.98 0.99-1.98 0.99-4 2 0.0619 1.42 0.0619 1.42 0.125 2.88-0.125 3.12-0.125 3.12-2.12 5.12 0.32 2.6 0.32 2.6 1 5 0.99 0.33 1.98 0.66 3 1v2c0.99 0.33 1.98 0.66 3 1v2c-3.01 0.934-3.87 1.04-7 0-0.66-0.66-1.32-1.32-2-2h-4c-1.19-1.69-1.19-1.69-2-4 0.486-0.752 0.972-1.5 1.47-2.28 1.86-3.31 1.66-4.88 1.15-8.6-0.538-4.69-0.568-8.52 0.375-13.1-1.65 0.33-3.3 0.66-5 1v-14c2.46-1.23 4.28-1.07 7-1v-2z" fill="#65C3E8"/>
<path transform="translate(49,147)" d="m0 0 1 2c0.66 0.33 1.32 0.66 2 1-0.0348 0.904-0.0696 1.81-0.105 2.74-0.0271 1.18-0.0541 2.36-0.082 3.57-0.0348 1.17-0.0696 2.34-0.105 3.55 0.00579 3.13 0.00579 3.13 1.8 5.05 0.491 0.357 0.982 0.714 1.49 1.08-0.495 0.433-0.99 0.866-1.5 1.31-1.83 1.68-1.83 1.68-1.5 4.69h-2v6c-0.66 0.33-1.32 0.66-2 1 0.33-1.65 0.66-3.3 1-5h-2c-0.33 2.31-0.66 4.62-1 7 0.784-0.0619 1.57-0.124 2.38-0.188 1.3 0.0928 1.3 0.0928 2.62 0.188 0.66 0.99 1.32 1.98 2 3h3c-0.33 1.32-0.66 2.64-1 4-1.65-0.33-3.3-0.66-5-1 0.33 1.65 0.66 3.3 1 5 1.65 0.33 3.3 0.66 5 1v5c-0.598 0.268-1.2 0.536-1.81 0.812-2.26 1.02-2.26 1.02-3.44 2.94-1.75 1.25-1.75 1.25-3.68 1.07-2.11-0.485-4.07-0.97-6.07-1.82-2.11-4.23-1.19-9.78-1.19-14.4-0.00219-2.06-0.0204-4.12-0.0393-6.18-0.0029-1.94-0.0029-1.94-0.00586-3.92-0.00411-1.19-0.00822-2.38-0.0125-3.61 0.243-2.86 0.243-2.86 2.24-4.86 0.33 0.66 0.66 1.32 1 2 0.049-1.11 0.098-2.22 0.148-3.36 0.0751-1.46 0.151-2.93 0.227-4.39 0.0309-0.73 0.0619-1.46 0.0938-2.21 0.206-3.78 0.446-6.82 2.53-10h2c0.33-0.99 0.66-1.98 1-3z" fill="#65C3E8"/>
<path transform="translate(1281 34.4)" d="m0 0c3.88 2.02 5.49 4.57 7 8.56 0.451 3.34 0.383 6.58 0.25 9.94-0.018 0.875-0.0361 1.75-0.0547 2.65-0.0467 2.14-0.118 4.28-0.195 6.41-1.98 0.33-3.96 0.66-6 1-0.66-0.99-1.32-1.98-2-3-0.66-0.33-1.32-0.66-2-1 0.451-1.46 0.911-2.92 1.38-4.38 0.255-0.812 0.51-1.62 0.773-2.46 0.852-2.16 0.852-2.16 2.85-4.16h-1v-5h-6c0.66 0.66 1.32 1.32 2 2-1 1-1 1-4.56 1.06-1.13-0.0206-2.27-0.0412-3.44-0.0625v4c-1.62 1.71-3.29 3.37-5 5-3.1 4.16-3.4 7.44-3.56 12.6-0.262 8-0.262 8-2.44 11.4-0.66-0.33-1.32-0.66-2-1-0.0872-4.56-0.14-9.12-0.188-13.7-0.0251-1.29-0.0503-2.59-0.0762-3.92-0.00967-1.25-0.0193-2.49-0.0293-3.78-0.0157-1.15-0.0314-2.29-0.0476-3.48 0.467-4.3 2.02-6.92 5.17-9.83 3.93-2.83 7.74-5.29 12.2-7.3 0.66-0.433 1.32-0.866 2-1.31 2-0.688 2-0.688 5-0.25z" fill="#64C4E9"/>
<path transform="translate(570,137)" d="m0 0c1 1 1 1 1.39 3.12-0.571 4.24-2.89 6.65-5.57 9.88-0.483 0.603-0.966 1.21-1.46 1.83-4.24 5.24-8.42 9.84-14.3 13.2-2.01 1.32-4.01 2.66-6 4-0.33-0.66-0.66-1.32-1-2-2.53-0.656-2.53-0.656-5-1-0.124-1.13-0.247-2.27-0.375-3.44-0.206-1.18-0.413-2.35-0.625-3.56-0.66-0.33-1.32-0.66-2-1 1.18-0.536 2.35-1.07 3.56-1.62 6.36-3.19 11-7.07 14.4-13.4 0.981-1.02 1.98-2.02 3-3 0.33-0.66 0.66-1.32 1-2 5.09-2.79 7.51-3.61 13-1z" fill="#65C4E8"/>
<path transform="translate(1516 58.4)" d="m0 0c1.24 0.0851 1.24 0.0851 2.51 0.172 2.02 0.14 4.04 0.295 6.06 0.453v6c-0.66 0.33-1.32 0.66-2 1-0.722 1.64-1.39 3.31-2 5h-3c-0.33 0.99-0.66 1.98-1 3-0.808 0.121-1.62 0.242-2.45 0.367-1.07 0.168-2.14 0.335-3.24 0.508-1.06 0.162-2.11 0.325-3.2 0.492-3.08 0.522-3.08 0.522-5.68 1.7-2.76 1.06-4.81 1.14-7.75 1.06-1.32-0.0271-1.32-0.0271-2.68-0.0547-0.664-0.0232-1.33-0.0464-2.01-0.0703v-2h-2c0.75-2.94 0.75-2.94 2-6 1.33-0.333 2.67-0.667 4-1 0.693-1.99 1.36-3.99 2-6 5.47-5.67 13.2-5.21 20.4-4.62z" fill="#65C3E8"/>
<path transform="translate(251,133)" d="m0 0h5v4h2c-1.19 17.1-1.19 17.1-4.88 21-2.12 1-2.12 1-6.12 1v2c0.66 0.33 1.32 0.66 2 1h-5c-0.33-0.66-0.66-1.32-1-2h-7c-1.25-7.62-1.25-7.62 1-11h-3c0-2 0-2 1-3l-2-2 5-5c0.66-0.784 1.32-1.57 2-2.38 2-1.62 2-1.62 4.75-1.38 0.743 0.248 1.49 0.495 2.25 0.75-0.33 0.66-0.66 1.32-1 2 4.1 1.02 4.1 1.02 8 0v-2c-0.99-0.33-1.98-0.66-3-1v-2z" fill="#65C1E7"/>
<path transform="translate(503,133)" d="m0 0c1.75 3.25 3.12 6.41 4 10-0.875 2.88-0.875 2.88-2 5h-1v6c0.66-0.99 1.32-1.98 2-3-0.0348 1.46-0.0348 1.46-0.0703 2.96-0.018 1.27-0.0361 2.54-0.0547 3.86-0.0232 1.26-0.0464 2.53-0.0703 3.83-0.0805 3.49-0.0805 3.49 2.2 6.36 0.99 0.33 1.98 0.66 3 1v2c0.99 0.33 1.98 0.66 3 1 0.33 0.99 0.66 1.98 1 3 2.48-0.495 2.48-0.495 5-1-0.66-0.66-1.32-1.32-2-2 4.46-0.495 4.46-0.495 9-1-0.33 1.32-0.66 2.64-1 4h7c-3.94 3.94-9.99 5.16-15.4 5.56-5.66-0.189-10.2-3.13-14.6-6.56-7.27-8.82-7.68-16.9-7-28 0.692-3.02 1.62-5.19 3-8 0.351-0.804 0.701-1.61 1.06-2.44 0.938-1.56 0.938-1.56 2.94-2.56z" fill="#64C4E9"/>
<path transform="translate(429 96.2)" d="m0 0c0.536 0.248 1.07 0.495 1.62 0.75l-4 1c0.33 0.66 0.66 1.32 1 2h8c-0.66 1.65-1.32 3.3-2 5h-2c0.156 0.664 0.312 1.33 0.473 2.01 0.292 1.32 0.292 1.32 0.59 2.68 0.296 1.31 0.296 1.31 0.598 2.64 0.36 2.84 0.0489 4.92-0.66 7.68 0.619 0.186 1.24 0.371 1.88 0.562 3.14 2.12 3.12 4.87 4.12 8.44 1.97 1.94 1.97 1.94 4 3-0.33 0.99-0.66 1.98-1 3v-2c-4.37-2.24-8.86-4.24-13.3-6.26-10.8-4.95-10.8-4.95-12.7-8.74-0.431-5.5 0.583-9.07 3-14 0.268-0.722 0.536-1.44 0.812-2.19 2.22-3.39 5.42-6 9.56-5.56z" fill="#6CC6EA"/>
<path transform="translate(399,60)" d="m0 0c4.34 3.25 6.43 6.85 8 12 0.103 3.51-0.0897 6.78-2.25 9.68-3.4 2.56-7.62 2.42-11.8 2.32-4.57-1.73-7.33-4.96-10-9-0.676-3.03-0.462-4.82 0-8 1.69-2.31 1.69-2.31 4-4 0.763-0.578 1.53-1.16 2.31-1.75 3.55-1.65 5.82-1.8 9.69-1.25z" fill="#64C4E9"/>
<path transform="translate(1070,192)" d="m0 0h1c0.309 1.09 0.619 2.19 0.938 3.31 0.646 2.24 1.32 4.47 2.06 6.69 1.11 0.0309 1.11 0.0309 2.25 0.0625 3.18 1.08 3.48 1.68 5.06 4.5 0.557 1.13 1.11 2.27 1.69 3.44 2.42 0.167 2.42 0.167 5 0 0.66-0.66 1.32-1.32 2-2-0.115 2.71-0.241 5.42-0.375 8.12-0.0464 1.14-0.0464 1.14-0.0938 2.3-0.234 4.52-0.858 8.31-2.53 12.6-4.07-0.239-6.45-0.591-9.75-3.06-4.27-5.58-5.31-11.1-6.25-17.9-0.66-0.99-1.32-1.98-2-3-0.23-2.81-0.23-2.81-0.188-6 0.00645-1.05 0.0129-2.1 0.0195-3.19 0.168-2.81 0.168-2.81 1.17-5.81z" fill="#65C2E8"/>
<path transform="translate(97,173)" d="m0 0c0.99 0.495 0.99 0.495 2 1v5c0.804 0.248 1.61 0.495 2.44 0.75 2.56 1.25 2.56 1.25 3.38 3.38 0.0619 0.619 0.124 1.24 0.188 1.88 0.66-1.32 1.32-2.64 2-4 0.33 1.98 0.66 3.96 1 6 2.14-2.14 2.43-3.13 3-6h3v-6c2.24 3.36 3.01 6.23 4.06 10.1 0.842 4.25 0.842 4.25 2.94 7.88 0.234 2.02 0.413 4.04 0.562 6.06 0.126 1.66 0.126 1.66 0.254 3.35 0.0606 0.855 0.121 1.71 0.184 2.59-0.614-0.338-1.23-0.675-1.86-1.02-2.55-1.16-3.56-0.897-6.14 0.0234v3h-5c-1.67-3.54-2.12-5.27-1-9-0.33-0.99-0.66-1.98-1-3-0.66-0.33-1.32-0.66-2-1v-2c-0.99-0.33-1.98-0.66-3-1-0.33-0.99-0.66-1.98-1-3h-2c-2.1-5.13-2.22-9.56-2-15z" fill="#65C3E8"/>
<path transform="translate(669,101)" d="m0 0c0.688 2.31 0.688 2.31 1 5-2.18 3.58-6.57 4.75-10.3 6.25-0.652 0.281-1.3 0.562-1.97 0.852-4.31 1.74-7.22 2.1-11.7 0.898v-2c-0.66-0.33-1.32-0.66-2-1 0.33-1.32 0.66-2.64 1-4-2.31-0.99-4.62-1.98-7-3 0.33-0.66 0.66-1.32 1-2h2v-3c9.73-2.19 18.6-1.11 28 2z" fill="#64C4E8"/>
<path transform="translate(909,114)" d="m0 0v4h3c-0.0116 0.687-0.0232 1.37-0.0352 2.08-0.00902 0.901-0.018 1.8-0.0273 2.73-0.0116 0.893-0.0232 1.79-0.0352 2.71-0.0124 2.61-0.0124 2.61 1.1 5.48h2c0.0412 0.619 0.0825 1.24 0.125 1.88 0.289 0.701 0.577 1.4 0.875 2.12 0.928 0.289 1.86 0.577 2.81 0.875 3.45 1.22 4.25 2.2 6.05 5.27 1.41 2.31 3.03 4.4 4.7 6.54 0.579 0.746 1.16 1.49 1.75 2.26 1.62 2.05 1.62 2.05 3.4 3.7 1.29 1.36 1.29 1.36 1.29 3.36 0.557 0.227 1.11 0.454 1.69 0.688 3.51 1.99 6.49 4.67 8.31 8.31-9.45-3.23-15.9-11.8-21.9-19.4-2.22-2.71-4.59-5.14-7.11-7.58-0.494-0.577-0.987-1.16-1.5-1.75-2.65-2.2-5.91-2.16-9.23-2.62-2.28-0.625-2.28-0.625-4.28-3.62-0.702-1.99-1.37-3.99-2-6h-3c0.334-3.12 0.948-3.95 3.38-6.06 0.866-0.639 1.73-1.28 2.62-1.94 0.536-0.578 1.07-1.16 1.62-1.75 1.38-1.25 1.38-1.25 4.38-1.25z" fill="#6CC6EA"/>
<path transform="translate(779,86)" d="m0 0c-0.33 0.99-0.66 1.98-1 3h-2c-0.33 0.33-0.66 0.66-1 1 0.516 0.371 1.03 0.743 1.56 1.12 1.44 1.88 1.44 1.88 1.12 4.44-0.227 1.13-0.454 2.27-0.688 3.44-0.0997 3.34-0.0593 6.66 0 10-0.99-0.33-1.98-0.66-3-1-0.0374-0.592-0.0748-1.18-0.113-1.79-0.477-6.66-0.477-6.66-3.89-12.2-3.46-1.08-3.46-1.08-7-1-3.42 2.28-3.8 3.38-5.19 7.12-0.516 1.37-0.516 1.37-1.04 2.76-0.254 0.699-0.508 1.4-0.77 2.12h-1v-14c-1.32-0.33-2.64-0.66-4-1v-2c7.07-6.78 20.1-7.15 28-2z" fill="#6CC6EA"/>
<path transform="translate(289,51)" d="m0 0c0.577 0.186 1.15 0.371 1.75 0.562 2.47 0.481 3.86 0.115 6.25-0.562 3.7 17.5 2.95 33.4 0 51-2-2-2-2-2.17-4.15 0.0396-0.873 0.0793-1.75 0.12-2.65 0.0425-0.959 0.0851-1.92 0.129-2.91 0.0554-1.01 0.111-2.01 0.168-3.05 0.04-0.99 0.0799-1.98 0.121-3 0.251-5.07 0.657-9.5 2.63-14.2h-4c-0.124 0.639-0.248 1.28-0.375 1.94-0.206 0.681-0.413 1.36-0.625 2.06-0.66 0.33-1.32 0.66-2 1-0.33 0.66-0.66 1.32-1 2-0.99 0.33-1.98 0.66-3 1-0.99-0.66-1.98-1.32-3-2 0.975-3.98 1.99-7.16 4.19-10.6 2.08-3.14 2.08-3.14 1.56-6.06-0.248-0.763-0.495-1.53-0.75-2.31v-4h2v-2h-2v-2z" fill="#65C3E8"/>
<path transform="translate(315,105)" d="m0 0c0.392 0.454 0.784 0.907 1.19 1.38 2.12 1.9 4.14 2.69 6.81 3.62 0.33 2.64 0.66 5.28 1 8-0.978 0.147-0.978 0.147-1.98 0.297-5.66 0.968-9.3 2.3-14 5.7-2.56 0.688-2.56 0.688-5 1-0.928 0.186-1.86 0.371-2.81 0.562-0.722 0.144-1.44 0.289-2.19 0.438 0.186-0.619 0.371-1.24 0.562-1.88 0.674-2.17 0.674-2.17-0.562-4.12-0.99-0.33-1.98-0.66-3-1 6.2-4.59 12.4-8.98 19-13 0.33-0.33 0.66-0.66 1-1z" fill="#6CC6EA"/>
<path transform="translate(795 156)" d="m0 0c0.998 0.0232 2 0.0464 3.02 0.0703 1.5 0.0271 1.5 0.0271 3.04 0.0547 0.771 0.0232 1.54 0.0464 2.34 0.0703v5h-2c-0.0412 0.577-0.0825 1.16-0.125 1.75-1.31 3.38-3.87 4.5-6.88 6.25-0.977 0.608-1.95 1.22-2.96 1.84-6.33 3.86-6.33 3.86-9.04 5.16-0.99-0.33-1.98-0.66-3-1h2c-0.33-1.65-0.66-3.3-1-5 0.99-0.33 1.98-0.66 3-1v-3-2h-14c0.33-0.99 0.66-1.98 1-3 0.893-0.121 0.893-0.121 1.8-0.244 2.69-0.368 5.38-0.75 8.07-1.13 0.937-0.126 1.87-0.253 2.84-0.383 0.896-0.129 1.79-0.258 2.71-0.391 0.827-0.115 1.65-0.23 2.51-0.349 2.98-0.726 3.45-2.46 6.66-2.7z" fill="#65C4E9"/>
<path transform="translate(1546,115)" d="m0 0c-0.33 0.66-0.66 1.32-1 2h2v-3c0.66 0.33 1.32 0.66 2 1-0.33 1.32-0.66 2.64-1 4h6c0.33 1.98 0.66 3.96 1 6-0.99 0.495-0.99 0.495-2 1-0.33-0.66-0.66-1.32-1-2h-2c0.0838 0.568 0.168 1.14 0.254 1.72 0.665 5.04 0.703 9.28-0.254 14.3-1.98-0.33-3.96-0.66-6-1v-2h-3c-0.66-0.66-1.32-1.32-2-2-0.66-0.33-1.32-0.66-2-1 0.66-2.97 1.32-5.94 2-9-0.66-0.33-1.32-0.66-2-1h2c0.0825-1.28 0.165-2.56 0.25-3.88 0.477-3.9 0.477-3.9 2.69-5.69 2.06-0.438 2.06-0.438 4.06 0.562z" fill="#65C1E7"/>
<path transform="translate(853,110)" d="m0 0c1.65 1.65 3.3 3.3 5 5 0.33-0.99 0.66-1.98 1-3 1.53 4.08 0.631 7.79 0 12 1.32 0.33 2.64 0.66 4 1-1.79 0.838-3.58 1.67-5.38 2.5-0.998 0.464-2 0.928-3.02 1.41-2.6 1.09-2.6 1.09-4.6 1.09-0.193 0.626-0.387 1.25-0.586 1.9-0.26 0.817-0.521 1.63-0.789 2.48-0.255 0.812-0.51 1.62-0.773 2.46-0.852 2.16-0.852 2.16-2.85 4.16 0.0174-1.21 0.0174-1.21 0.0352-2.45 0.00902-1.07 0.018-2.14 0.0273-3.24 0.0116-1.06 0.0232-2.11 0.0352-3.2-0.089-2.84-0.448-5.36-1.1-8.11-0.99-0.33-1.98-0.66-3-1v-2h2v-2c1.43-1.4 1.43-1.4 3.31-2.94 2.35-1.93 4.57-3.88 6.69-6.06z" fill="#65C4E9"/>
<path transform="translate(1432,131)" d="m0 0c1.32 0.33 2.64 0.66 4 1-4.92 12.2-12.7 21.9-21 32-0.841-3.1-1.09-5.78-1-9 0.66-0.33 1.32-0.66 2-1 0.656-2.53 0.656-2.53 1-5-2.47-0.99-2.47-0.99-5-2v-2c2.97 0.33 5.94 0.66 9 1 0.217-1.18 0.217-1.18 0.438-2.38 0.562-2.62 0.562-2.62 1.56-4.62h2c0.0412-0.619 0.0825-1.24 0.125-1.88 0.433-1.05 0.433-1.05 0.875-2.12 3.06-1.25 3.06-1.25 6-2v-2z" fill="#64C3E8"/>
<path transform="translate(1276,39)" d="m0 0c2.69-0.312 2.69-0.312 5 0v4h-5c0.66 0.66 1.32 1.32 2 2-1 1-1 1-4.56 1.06-1.13-0.0206-2.27-0.0412-3.44-0.0625v4c-1.62 1.71-3.29 3.37-5 5-3.1 4.16-3.4 7.44-3.56 12.6-0.262 8-0.262 8-2.44 11.4-0.66-0.33-1.32-0.66-2-1-0.0872-4.56-0.14-9.12-0.188-13.7-0.0251-1.29-0.0503-2.59-0.0762-3.92-0.00967-1.25-0.0193-2.49-0.0293-3.78-0.0157-1.15-0.0314-2.29-0.0476-3.48 0.378-3.48 1.21-5.38 3.34-8.14h2v3c3.12-1.31 3.12-1.31 5-4 0.928 0.103 1.86 0.206 2.81 0.312 1.05-0.103 2.1-0.206 3.19-0.312 1.03-1.65 2.03-3.32 3-5z" fill="#6CC6EA"/>
<path transform="translate(781,111)" d="m0 0h7c0.33 1.32 0.66 2.64 1 4 1.32 0.33 2.64 0.66 4 1 0 3.07-0.657 5.33-2.06 8.06-2.79 2.79-6.1 4.11-9.94 4.94-0.99-0.33-1.98-0.66-3-1h2v-2h-3c-1.39-1.68-1.39-1.68-2.69-3.88-0.437-0.719-0.874-1.44-1.32-2.18-0.988-1.95-0.988-1.95-0.988-3.95 3.13-1.04 3.99-0.934 7 0 0.66-1.65 1.32-3.3 2-5z" fill="#65C1E7"/>
<path transform="translate(1188,38)" d="m0 0c0.33 0.99 0.66 1.98 1 3-0.99 0.33-1.98 0.66-3 1 0.695 3 0.695 3 2 6 2.03 0.969 2.03 0.969 4 1 0.934 3.01 1.04 3.87 0 7h-2c1.17 3.81 1.17 3.81 4.12 6.31 0.619 0.227 1.24 0.454 1.88 0.688-0.66 0.33-1.32 0.66-2 1-1.9-1.66-3.79-3.32-5.69-4.98-1.53-1.33-3.07-2.66-4.62-3.97-0.722-0.614-1.44-1.23-2.19-1.86-0.67-0.563-1.34-1.13-2.03-1.71-1.47-1.48-1.47-1.48-1.47-3.48-1.32-0.66-2.64-1.32-4-2 0.188-2.88 0.188-2.88 1-6 4-2.67 8.37-2.16 13-2z" fill="#6CC6EA"/>
<path transform="translate(727,121)" d="m0 0h2c0.0606 1.28 0.121 2.56 0.184 3.88 0.0845 1.71 0.169 3.42 0.254 5.12 0.0393 0.839 0.0786 1.68 0.119 2.54 0.294 10.6 0.294 10.6 3.88 20.3 2.34 4.33 3.25 8.17 4.03 13 0.727 2.9 2.24 4.3 4.54 6.13v2h4c0.33 0.66 0.66 1.32 1 2 2.31 1.05 4.64 2.06 7 3v2c-6.89-1.03-12.5-5.01-17.1-10.2-1.94-2.75-1.94-2.75-1.94-4.75h-2c-6.88-13.8-8.2-27.7-7-43 0.33-0.66 0.66-1.32 1-2z" fill="#6CC6EA"/>
<path transform="translate(180,138)" d="m0 0c2 3 2 3 3 6-0.33 0.99-0.66 1.98-1 3 1.45 0.588 1.45 0.588 2.94 1.19 3.06 1.81 3.06 1.81 3.94 4.5 0.0619 1.14 0.0619 1.14 0.125 2.31 2.97 0.33 5.94 0.66 9 1 0.66 1.98 1.32 3.96 2 6-2 0.68-4 1.34-6 2-0.642 0.235-1.28 0.469-1.95 0.711-2.8 0.394-3.87-0.464-6.18-2.02-0.683-0.45-1.37-0.9-2.07-1.36-4.5-3.31-5.31-7.15-6.15-12.6-0.242-1.92-0.45-3.84-0.652-5.76h2c0.33-1.65 0.66-3.3 1-5z" fill="#66C3E8"/>
<path transform="translate(1435,132)" d="m0 0c2 2 2 2 2.94 5 0.822 3.27 0.822 3.27 4.06 5 0.188 2.62 0.188 2.62 0 5h3c4 12 4 12 4 17 0.297 1.67 0.621 3.34 1 5h2c1.5 2.27 2.78 4.57 4 7-5.3-2.3-9.6-6.75-11.9-12.1-0.543-1.92-0.543-1.92-1.11-4.92h-2c-3.17-6.37-5.6-11.8-6-19-0.99-0.33-1.98-0.66-3-1 0.99-2.31 1.98-4.62 3-7z" fill="#6CC6EA"/>
<path transform="translate(1085,213)" d="m0 0c2.47 0.99 2.47 0.99 5 2-0.307 2.48-0.621 4.96-0.938 7.44-0.087 0.707-0.174 1.41-0.264 2.14-0.686 5.31-0.686 5.31-1.8 6.42-4.1-0.158-6.44-0.576-9.75-3.06-2.6-3.39-4.39-6.73-5.25-10.9 0.33-0.99 0.66-1.98 1-3 0.557 0.712 0.557 0.712 1.12 1.44 2.5 2.08 4.69 2.21 7.88 2.56 0.99-1.65 1.98-3.3 3-5z" fill="#65C4E9"/>
<path transform="translate(809,145)" d="m0 0h2v2h6c-0.143 1.26-0.143 1.26-0.289 2.55-0.166 1.64-0.166 1.64-0.336 3.32-0.116 1.09-0.232 2.18-0.352 3.3-0.00773 0.931-0.0155 1.86-0.0234 2.82 0.66 0.66 1.32 1.32 2 2v4h-4v2h7c-0.66 0.66-1.32 1.32-2 2-5.57-0.127-8.13-2.31-12-6-1.32-2.65-0.954-4.37-0.688-7.31 0.0786-0.945 0.157-1.89 0.238-2.86 0.454-2.86 1.27-5.19 2.45-7.82z" fill="#64C4E9"/>
<path transform="translate(1469,146)" d="m0 0c0.402 0.824 0.402 0.824 0.812 1.66 1.33 2.61 2.76 5.16 4.19 7.71 1.73 3.13 3.06 5.82 4.12 9.25 0.433 1.18 0.433 1.18 0.875 2.38 2.03 0.969 2.03 0.969 4 1 0.981 3.05 0.981 4.95 0 8-1.32-0.33-2.64-0.66-4-1-0.33-1.32-0.66-2.64-1-4-0.949 0.0206-1.9 0.0412-2.88 0.0625-3.12-0.0625-3.12-0.0625-5.12-1.06-0.594-2.65-0.742-5.29-1-8h-2c-0.625-1.81-0.625-1.81-1-4 0.66-0.99 1.32-1.98 2-3h2c-0.351-0.928-0.701-1.86-1.06-2.81-0.938-3.19-0.938-3.19 0.0625-6.19z" fill="#65C3E8"/>
<path transform="translate(45,40)" d="m0 0c0.33 0.99 0.66 1.98 1 3-0.99 0.66-1.98 1.32-3 2 0.99 1.98 1.98 3.96 3 6-3.95 2.62-8.17 2.44-12.8 2.62-1.19 0.058-1.19 0.058-2.4 0.117-1.95 0.0939-3.9 0.177-5.85 0.258l-1-4c1.65-0.66 3.3-1.32 5-2v-2c1.03-0.398 1.03-0.398 2.08-0.805 0.901-0.353 1.8-0.706 2.73-1.07 0.893-0.348 1.79-0.696 2.71-1.05 7.12-3.07 7.12-3.07 8.48-3.07z" fill="#6CC6EA"/>
<path transform="translate(1252,180)" d="m0 0c0.99 0.33 1.98 0.66 3 1v2c0.99 0.33 1.98 0.66 3 1 0.784 0.804 1.57 1.61 2.38 2.44 2.55 2.49 4.28 3.51 7.62 4.56v2c0.969 0.144 1.94 0.289 2.94 0.438 3.06 0.562 3.06 0.562 4.06 1.56 0.33-0.66 0.66-1.32 1-2h3c1.37 2.73 1.13 4.98 1 8-1 1-1 1-4 1.44-6.29-0.129-10.9-4.43-15.2-8.59-4.04-4.33-6.84-8.23-8.75-13.8z" fill="#6CC6EA"/>
<path transform="translate(664 143)" d="m0 0c1.21 0.0271 1.21 0.0271 2.45 0.0547 0.922 0.0348 0.922 0.0348 1.86 0.0703 0.33 0.99 0.66 1.98 1 3 0.66 0.33 1.32 0.66 2 1v7h-9v2c0.619 0.124 1.24 0.248 1.88 0.375 2.12 0.625 2.12 0.625 4.12 2.62-0.33 0.99-0.66 1.98-1 3-1.65-0.33-3.3-0.66-5-1v-2c-0.99 0.33-1.98 0.66-3 1v-9c-0.66-0.33-1.32-0.66-2-1-0.625-2.56-0.625-2.56-1-5 3.2-2.14 4.02-2.23 7.69-2.12z" fill="#65C2E7"/>
<path transform="translate(389,96)" d="m0 0c7.38-0.369 7.38-0.369 10.5 1.5 0.495 0.495 0.99 0.99 1.5 1.5h-4v2c0.66 0.33 1.32 0.66 2 1 0.983 2.85 1 4.9 1 8 0.351 1.01 0.701 2.02 1.06 3.06 1.54 4.95 0.613 9.89-0.0625 14.9h-1c-0.049-0.687-0.098-1.37-0.148-2.08-0.112-1.35-0.112-1.35-0.227-2.73-0.0696-0.893-0.139-1.79-0.211-2.71-0.281-2.72-0.281-2.72-2.41-5.48 0.375-2.19 0.375-2.19 1-4h-7c0.33 0.99 0.66 1.98 1 3-0.66 0.33-1.32 0.66-2 1-1.32-1.32-2.64-2.64-4-4 0.804-0.33 1.61-0.66 2.44-1 2.69-1.69 2.69-1.69 3.12-3.98 0.233-2 0.346-4.01 0.445-6.02h-2c-0.33 0.99-0.66 1.98-1 3h-1c0.33-2.31 0.66-4.62 1-7z" fill="#65C3E8"/>
<path transform="translate(369,89)" d="m0 0c2.77 0.033 5.54 0.1 8.31 0.188 0.786 0.0058 1.57 0.0116 2.38 0.0176 2.21 0.0848 4.17 0.207 6.31 0.795 2.04 2.55 2.04 2.55 3 5-5.75 0.125-5.75 0.125-8-1 0.0232 0.759 0.0464 1.52 0.0703 2.3 0.0271 1.49 0.0271 1.49 0.0547 3.01 0.0232 0.986 0.0464 1.97 0.0703 2.99-0.195 2.7-0.195 2.7-2.2 5.7-0.66-0.33-1.32-0.66-2-1-0.0619-1.55-0.0619-1.55-0.125-3.12-1.24-5.48-4.51-7.6-8.88-10.9 0.33-1.32 0.66-2.64 1-4z" fill="#6CC6EA"/>
<path transform="translate(419 161)" d="m0 0c0.577 0.248 1.15 0.495 1.75 0.75-0.33 0.66-0.66 1.32-1 2h-2v2c1.32-0.33 2.64-0.66 4-1v3c-0.33 0.33-0.66 0.66-1 1 0.33 0.66 0.66 1.32 1 2h-2c-0.155 1.39-0.155 1.39-0.312 2.81-0.695 3.22-1.16 4.21-3.69 6.19 1.32 0.33 2.64 0.66 4 1v2c0.66 0.33 1.32 0.66 2 1-4.55-0.276-7.33-2.28-10.6-5.25-1.39-1.75-1.39-1.75-2.02-5.31 0.867-4.77 4.03-12.8 9.88-12.2z" fill="#6CC6EA"/>
<path transform="translate(457,135)" d="m0 0h6c0.33 0.99 0.66 1.98 1 3 0.639 0.144 1.28 0.289 1.94 0.438 2.06 0.562 2.06 0.562 3.17 2.3 1.86 4.69 1.71 9.91 0.0664 14.7-2.56 5.3-2.56 5.3-5.17 6.61v-3h2c-0.165-1.05-0.33-2.1-0.5-3.19-0.396-3.02-0.592-5.78-0.5-8.81h-5c0.33-0.66 0.66-1.32 1-2-0.99-0.33-1.98-0.66-3-1v-5h2c-0.33-0.33-0.66-0.66-1-1-0.66-0.99-1.32-1.98-2-3z" fill="#65C3E8"/>
<path transform="translate(132,83)" d="m0 0c0.99 0.33 1.98 0.66 3 1 0.455 2.02 0.908 4.03 1.33 6.05 0.574 2.25 0.574 2.25 3.23 3.95 2.15 1.06 2.15 1.06 3.44 1v9l-2-2c-0.66 1.32-1.32 2.64-2 4h-2c-0.33 0.99-0.66 1.98-1 3-0.99-0.33-1.98-0.66-3-1 0.0838-0.606 0.168-1.21 0.254-1.84 0.963-7.92 0.562-15.4-1.25-23.2z" fill="#65C4E9"/>
<path transform="translate(500,139)" d="m0 0c1.35 2.7 0.617 4.07 0 7-0.113 1.87-0.175 3.75-0.188 5.62-0.0142 0.941-0.0284 1.88-0.043 2.85 0.0509 2.77 0.0509 2.77 2.23 5.52-0.375 3.69-0.375 3.69-1 7 0.99 0.33 1.98 0.66 3 1 0.674 1.66 1.34 3.33 2 5 2.02 2.27 2.02 2.27 4 4-6.25-1.56-8.26-4.36-11.7-9.56-2.46-4.57-2.47-8.65-2.5-13.8-0.0142-1.29-0.0284-2.57-0.043-3.9 0.225-3.64 0.792-6.39 2.23-9.73l2-1z" fill="#6CC6EA"/>
<path transform="translate(456,95)" d="m0 0h30c0.33 2.31 0.66 4.62 1 7-0.99 0.33-1.98 0.66-3 1 0.33-1.32 0.66-2.64 1-4-0.665 0.0105-1.33 0.0209-2.02 0.0317-3.04 0.0418-6.07 0.0677-9.11 0.0933-1.57 0.0251-1.57 0.0251-3.17 0.0508-5.3 0.0335-9.76-0.00364-14.7-2.18v-2z" fill="#6CC6EA"/>
<path transform="translate(88,174)" d="m0 0c0.99 0.33 1.98 0.66 3 1 0.879 1.78 0.879 1.78 1.56 3.94 0.897 2.79 1.32 3.94 3.44 6.06 0.65 1.81 1.3 3.63 1.95 5.44 1.8 4.38 4.15 8.46 6.43 12.6 0.934 1.7 1.84 3.42 2.67 5.17 1.47 2.75 3.7 4.65 5.95 6.78-0.33 0.66-0.66 1.32-1 2-10.7-10.1-15.8-20.2-21.1-33.7-0.89-2.27-0.89-2.27-2.05-4.37-0.883-1.89-0.883-1.89-0.883-4.89z" fill="#6CC6EA"/>
<path transform="translate(853,110)" d="m0 0c1.65 1.65 3.3 3.3 5 5 0.33-0.99 0.66-1.98 1-3 1.53 4.08 0.631 7.79 0 12 1.32 0.33 2.64 0.66 4 1-5.62 3-5.62 3-9 3-0.33-0.66-0.66-1.32-1-2-2.02-1.13-2.02-1.13-4-2 0.33-1.65 0.66-3.3 1-5 0.99-0.33 1.98-0.66 3-1 0.733-2.02 0.733-2.02 1-4-0.99 0.33-1.98 0.66-3 1v-4c0.66-0.33 1.32-0.66 2-1z" fill="#6CC6EA"/>
<path transform="translate(283 165)" d="m0 0c0.557 0.227 1.11 0.454 1.69 0.688-0.66 0.66-1.32 1.32-2 2-0.167 2.58-0.167 2.58 0 5h3c-0.33-1.65-0.66-3.3-1-5 2.31-0.66 4.62-1.32 7-2 2 3.75 2 3.75 2 6 0.99 0.66 1.98 1.32 3 2-7.86 1.03-14.6 1.37-22-2 0.188-1.81 0.188-1.81 1-4 4-3.14 4-3.14 7.31-2.69z" fill="#6CC6EA"/>
<path transform="translate(376,155)" d="m0 0c0.99 0.33 1.98 0.66 3 1 0.949 2.07 0.949 2.07 1.69 4.56 0.251 0.826 0.503 1.65 0.762 2.5 0.182 0.638 0.364 1.28 0.551 1.93 1.11-0.206 2.23-0.412 3.38-0.625 1.2-0.124 2.39-0.248 3.62-0.375 0.66 0.66 1.32 1.32 2 2-0.348 3.75-0.983 7.37-2 11-2.25 0-2.25 0-5-1-1.78-2.46-2.85-5.2-4-8-0.375-0.874-0.75-1.75-1.14-2.65-2.86-6.85-2.86-6.85-2.86-10.4z" fill="#6CC6EA"/>
<path transform="translate(1313,45)" d="m0 0c0.33 1.65 0.66 3.3 1 5 2.47 0.495 2.47 0.495 5 1-0.33 0.66-0.66 1.32-1 2-6.18 1.3-12.7 1.1-19 1 0-3 0-3 1.38-4.69 1.62-1.31 1.62-1.31 3.62-1.31v-2c3.43-1.62 5.38-2.34 9-1z" fill="#6CC6EA"/>
<path transform="translate(1306,180)" d="m0 0h2c0.237 8.91-0.206 17.3-2 26h2v3h4c-0.33 0.99-0.66 1.98-1 3-5.75-3.75-5.75-3.75-8-6-0.885-7.99-0.654-18.7 3-26z" fill="#6CC6EA"/>
<path transform="translate(773,119)" d="m0 0c2 1 2 1 3.12 4.06 0.289 0.969 0.577 1.94 0.875 2.94h3c0.33 0.66 0.66 1.32 1 2 2.31-0.66 4.62-1.32 7-2-1.37 4.11-3.48 5.56-7 8-2.81-0.0625-2.81-0.0625-5-1-0.33-0.66-0.66-1.32-1-2-2.02-1.13-2.02-1.13-4-2 0.33-0.66 0.66-1.32 1-2h-3c1.12-2.97 2.22-5.33 4-8z" fill="#66C3E8"/>
<path transform="translate(545,166)" d="m0 0-2 1c-0.227 0.784-0.454 1.57-0.688 2.38-1.55 3.1-3.09 3.93-6.29 5.13-3.4 0.828-6.54 0.675-10 0.492-0.201-3.72-0.152-4.77 2-8 3.44-0.125 3.44-0.125 7 0 3.47-1.16 6.36-1.07 10-1z" fill="#65C3E8"/>
<path transform="translate(386,64)" d="m0 0c0.99 0.33 1.98 0.66 3 1h-2v3c1.11 0.0825 2.23 0.165 3.38 0.25 3.62 0.75 3.62 0.75 5.12 2.56 0.561 2.45 0.339 3.84-0.5 6.19h-7c0.33-0.66 0.66-1.32 1-2-0.33-0.33-0.66-0.66-1-1-0.33 0.99-0.66 1.98-1 3-1.32-0.66-2.64-1.32-4-2-0.369-7.51-0.369-7.51 1.5-10 0.495-0.33 0.99-0.66 1.5-1z" fill="#6CC6EA"/>
<path transform="translate(126,210)" d="m0 0c3.94 4.31 3.94 4.31 4.25 7.81-0.0825 0.722-0.165 1.44-0.25 2.19-4.43 2.35-8.27 2.41-13 1-2.5-2.06-2.5-2.06-4-4 3.85-2.57 5.59-1.83 10-1l3-6z" fill="#6CC6EA"/>
<path transform="translate(1550,75)" d="m0 0c5.25 6.16 6.54 15.1 6 23-0.557-0.474-1.11-0.949-1.69-1.44-2.56-1.95-2.56-1.95-7.31-2.56-0.33-3.63-0.66-7.26-1-11 0.99-0.33 1.98-0.66 3-1v4c0.66-0.66 1.32-1.32 2-2-0.33-0.66-0.66-1.32-1-2-0.0402-2.33-0.0432-4.67 0-7z" fill="#64C4E9"/>
<path transform="translate(254,159)" d="m0 0c-1.54 5.02-3.03 9.61-6 14-3.73-0.498-5.81-0.875-9-3v-2c0.66-0.33 1.32-0.66 2-1 0.33-0.99 0.66-1.98 1-3h8v-4c2-1 2-1 4-1z" fill="#66C4E9"/>
<path transform="translate(1113,70)" d="m0 0h2c-0.142 1.9-0.289 3.79-0.438 5.69-0.0812 1.06-0.162 2.11-0.246 3.2-0.281 2.76-0.718 5.4-1.32 8.11-0.516-0.309-1.03-0.619-1.56-0.938-3.1-1.35-6.09-1.68-9.44-2.06-0.625-1.81-0.625-1.81-1-4 2-3 2-3 4-4v2c0.969 0.124 1.94 0.248 2.94 0.375 1.01 0.206 2.02 0.412 3.06 0.625 0.33 0.66 0.66 1.32 1 2v-6c-2.97-0.495-2.97-0.495-6-1 0.33-0.66 0.66-1.32 1-2h6v-2z" fill="#65C3E8"/>
<path transform="translate(1282,35)" d="m0 0v2c-2.31 0.66-4.62 1.32-7 2-0.33 1.98-0.66 3.96-1 6-2.31-0.33-4.62-0.66-7-1-0.33 0.99-0.66 1.98-1 3-2.06 0.688-2.06 0.688-4 1-0.33-1.32-0.66-2.64-1-4 4.22-3.12 8.23-5.77 13-8 1.05-0.619 1.05-0.619 2.12-1.25 2.34-0.936 3.54-0.583 5.88 0.25z" fill="#65C4E9"/>
<path transform="translate(1346,127)" d="m0 0h1c-0.84 10.4-2.83 20.1-6 30-1.5-2.95-2.8-5.91-4-9h3v-2h3v-7h-2c-0.66-2.64-1.32-5.28-2-8 0.99-0.33 1.98-0.66 3-1 0.66 0.66 1.32 1.32 2 2 0.66-1.65 1.32-3.3 2-5z" fill="#65C3E8"/>
<path transform="translate(1408,83)" d="m0 0c2.85 3.2 3.38 5.25 3.36 9.5-6.45e-4 1.05-0.00129 2.1-0.00195 3.19-0.0161 1.09-0.0322 2.19-0.0488 3.31 0.00322 1.09 0.00645 2.19 0.00977 3.31-0.0598 8.87-0.0598 8.87-2.32 12.7-2.13-3.47-2.25-6.23-2.23-10.3 0.00193-1.2 0.00387-2.4 0.00586-3.64 0.0122-1.25 0.0245-2.5 0.0371-3.79 6.45e-4 -1.26 0.00129-2.52 0.00195-3.82 0.0453-9.35 0.0453-9.35 1.19-10.5z" fill="#6CC6EA"/>
<path transform="translate(298,119)" d="m0 0c2 3.75 2 3.75 2 6 1.65-0.33 3.3-0.66 5-1-1.35 2.94-2.9 5.29-5 7.75-0.516 0.614-1.03 1.23-1.56 1.86-1.44 1.39-1.44 1.39-3.44 1.39-1-5.35-0.849-9.62 0-15 0.99-0.33 1.98-0.66 3-1z" fill="#64C4E9"/>
<path transform="translate(1451,149)" d="m0 0 4 1c0.049 0.843 0.098 1.69 0.148 2.55 0.0748 1.1 0.15 2.19 0.227 3.32 0.0696 1.09 0.139 2.18 0.211 3.3 0.147 2.95 0.147 2.95 2.41 4.82 0.598 1.52 1.14 3.07 1.62 4.62 0.26 0.817 0.521 1.63 0.789 2.48 0.193 0.626 0.387 1.25 0.586 1.9-3.23-1.06-4.07-2.11-5.92-5.05-0.622-1.23-1.23-2.46-1.83-3.7-0.474-0.913-0.474-0.913-0.957-1.84-1.95-3.96-2.73-7.01-2.29-11.4 0.33-0.66 0.66-1.32 1-2z" fill="#65C3E8"/>
<path transform="translate(172,136)" d="m0 0c0.66 0.33 1.32 0.66 2 1v23h-2v-2h-2c-1.15-3.45-1.2-6.24-1.25-9.88-0.0387-1.82-0.0387-1.82-0.0781-3.68 0.348-3.65 1.2-5.5 3.33-8.45z" fill="#6CC6EA"/>
<path transform="translate(1243,159)" d="m0 0h4c0.337 1.6 0.669 3.21 1 4.81 0.186 0.893 0.371 1.79 0.562 2.71 0.438 2.48 0.438 2.48 0.438 5.48-0.928 0.454-1.86 0.907-2.81 1.38-3.23 1.57-3.23 1.57-6.19 3.62v-9h-2v-2h4v5c1.32-0.66 2.64-1.32 4-2-1.31-3.12-1.31-3.12-4-5 0.33-1.65 0.66-3.3 1-5z" fill="#6CC6EA"/>
<path transform="translate(635,149)" d="m0 0h3v2c-0.99 0.66-1.98 1.32-3 2 0.716 2.02 0.716 2.02 2 4 2.05 0.805 2.05 0.805 4 1-1.31 1.5-1.31 1.5-3 3h-3v-2h-3v-2c-1.64 0.0619-1.64 0.0619-3.31 0.125-3.69-0.125-3.69-0.125-6.69-2.12 0.33-0.66 0.66-1.32 1-2 2.47-0.816 2.47-0.816 5.5-1.56 3.55-0.646 3.55-0.646 6.5-2.44z" fill="#6CC6EA"/>
<path transform="translate(810,149)" d="m0 0c-0.0116 0.855-0.0232 1.71-0.0352 2.59-0.00902 1.1-0.018 2.21-0.0273 3.35-0.0116 1.1-0.0232 2.2-0.0352 3.34-0.215 2.64-0.215 2.64 1.1 3.72 2.33 0.368 4.66 0.702 7 1v2h-4v2h7c-0.66 0.66-1.32 1.32-2 2-5.57-0.127-8.13-2.31-12-6-1.35-2.7-0.949-4.57-0.688-7.56 0.0786-0.991 0.157-1.98 0.238-3 0.148-0.803 0.296-1.61 0.449-2.43 2-1 2-1 3-1z" fill="#6CC6EA"/>
<path transform="translate(589,138)" d="m0 0c-0.0116 0.831-0.0232 1.66-0.0352 2.52-0.00902 1.09-0.018 2.17-0.0273 3.29-0.0116 1.08-0.0232 2.16-0.0352 3.27-0.0386 2.98-0.0386 2.98 1.1 5.92 0.34 2 0.673 4 1 6 0.298 2.2 0.298 2.2 1 4 0.99 0.66 1.98 1.32 3 2-0.33 0.66-0.66 1.32-1 2-6.47-6.12-8.41-10.3-8.94-19.1-0.0631-3.11 0.0507-5.89 0.941-8.89 2-1 2-1 3-1z" fill="#6CC6EA"/>
<path transform="translate(644,146)" d="m0 0h3c1.33 4 2.67 8 4 12-0.722-0.351-1.44-0.701-2.19-1.06-3.17-1.06-4.63-0.692-7.81 0.0625-0.99-0.33-1.98-0.66-3-1v-2c0.619-0.433 1.24-0.866 1.88-1.31 2.52-2 3.15-3.67 4.12-6.69z" fill="#6CC6EA"/>
<path transform="translate(947,136)" d="m0 0c4.3 0.478 6.35 2.72 9 6 0.88 2.64 1.41 5.27 2 8 0.66 0.33 1.32 0.66 2 1-1.32 0.33-2.64 0.66-4 1-3.61-3.79-3.61-3.79-5-6 0.188-2.88 0.188-2.88 1-5h-5v-5z" fill="#65C1E7"/>
<path transform="translate(505,157)" d="m0 0h2v3h2c0.33-0.99 0.66-1.98 1-3 0.697 1.62 1.38 3.25 2.06 4.88 0.574 1.36 0.574 1.36 1.16 2.74 0.777 2.38 0.777 2.38-0.223 4.38-2.23 0-3.89-0.274-6-1-2.68-4.02-2.16-6.24-2-11z" fill="#66C3E8"/>
<path transform="translate(1166,35)" d="m0 0c2.07 5.42 3.6 10.1 3 16-0.66 0.66-1.32 1.32-2 2-0.33-3.3-0.66-6.6-1-10-1.13-0.268-2.27-0.536-3.44-0.812-1.18-0.392-2.35-0.784-3.56-1.19-0.33-0.99-0.66-1.98-1-3 5.75-3 5.75-3 8-3z" fill="#6CC6EA"/>
<path transform="translate(1284,43)" d="m0 0c0.99 0.33 1.98 0.66 3 1v12c-2.31 0.33-4.62 0.66-7 1 0.75-6.75 0.75-6.75 3-9-0.33-0.66-0.66-1.32-1-2h2v-3z" fill="#65C3E8"/>
<path transform="translate(1320,151)" d="m0 0c0.33 0.66 0.66 1.32 1 2 0.66 0.33 1.32 0.66 2 1v3h2c0.33-0.66 0.66-1.32 1-2v2h2v6h-7c0.66-0.66 1.32-1.32 2-2-2.07-0.149-2.07-0.149-4 1 0.33-3.63 0.66-7.26 1-11z" fill="#66C3E8"/>
<path transform="translate(895,153)" d="m0 0h1c0.16 8.29 0.16 8.29-1 11-2.55 2.38-3.44 3-7 3v-3c-0.66-0.66-1.32-1.32-2-2 0.99-1.65 1.98-3.3 3-5 2 2 2 2 2 4 0.99 0.33 1.98 0.66 3 1-0.206-1.11-0.413-2.23-0.625-3.38-0.124-1.2-0.247-2.39-0.375-3.62 0.66-0.66 1.32-1.32 2-2z" fill="#65C3E8"/>
<path transform="translate(1316,174)" d="m0 0c0.99 0.33 1.98 0.66 3 1 1.29 7.43 1.29 7.43 0 11h-5c0.141-1.63 0.288-3.25 0.438-4.88 0.0812-0.905 0.162-1.81 0.246-2.74 0.316-2.38 0.316-2.38 1.32-4.38z" fill="#65C3E8"/>
<path transform="translate(1340,181)" d="m0 0h4v6c0.99 0.33 1.98 0.66 3 1h-11c-0.33-1.65-0.66-3.3-1-5h5v-2z" fill="#66C3E8"/>
<path transform="translate(127,145)" d="m0 0c2 1 2 1 2.88 2.94 1.35 2.48 2.55 3.03 5.12 4.06-1.27 0.532-2.54 1.05-3.81 1.56-0.708 0.29-1.42 0.58-2.14 0.879-2.04 0.559-2.04 0.559-5.04-0.441 0.586-6.15 0.586-6.15 1-8 0.66-0.33 1.32-0.66 2-1z" fill="#65C3E8"/>
<path transform="translate(149,140)" d="m0 0c1.65 0.33 3.3 0.66 5 1-3.08 4.62-6.64 7.52-12 9-2.68-0.257-4.48-0.95-7-2v-1c5.44-0.99 5.44-0.99 11-2-0.33-0.66-0.66-1.32-1-2h5c-0.33-0.99-0.66-1.98-1-3z" fill="#65C3E8"/>
<path transform="translate(1032,36)" d="m0 0c0.66 0.66 1.32 1.32 2 2h2v2h2c-0.33 1.65-0.66 3.3-1 5-1.98 0.33-3.96 0.66-6 1-1.3-2.6-1.56-5.14-2-8 0.99-0.66 1.98-1.32 3-2z" fill="#6DC7EB"/>
<path transform="translate(1538,161)" d="m0 0c0.33 1.65 0.66 3.3 1 5-1.32 0.99-2.64 1.98-4 3v-2h-6c0.33-0.99 0.66-1.98 1-3h2v-2c2-1 2-1 6-1z" fill="#65C3E8"/>
<path transform="translate(631,105)" d="m0 0c1.16 3.48 0.708 5.46 0 9h-5c-0.33-0.66-0.66-1.32-1-2h-2v-3h2v-2c1.32 0.33 2.64 0.66 4 1 0.66-0.99 1.32-1.98 2-3z" fill="#66C3E8"/>
<path transform="translate(1332,203)" d="m0 0c0.99 0.33 1.98 0.66 3 1v3c1.65 0.33 3.3 0.66 5 1-0.33 0.66-0.66 1.32-1 2-2.29 0.414-2.29 0.414-5.06 0.625-0.919 0.0748-1.84 0.15-2.79 0.227-1.07 0.0735-1.07 0.0735-2.15 0.148 0.547-3.37 1.05-5.08 3-8z" fill="#64C4E9"/>
<path transform="translate(45,40)" d="m0 0c0.33 0.99 0.66 1.98 1 3-1.5 2-1.5 2-4 4-2.76 0.358-5.2 0.187-8 0v-3c0.763-0.289 1.53-0.578 2.31-0.875 7.47-3.12 7.47-3.12 8.69-3.12z" fill="#68C5EA"/>
<path transform="translate(1212,174)" d="m0 0h6c0 3.77-0.235 4.91-2 8-1.65-0.33-3.3-0.66-5-1 0.33-2.31 0.66-4.62 1-7z" fill="#66C3E8"/>
<path transform="translate(1188,161)" d="m0 0c0.99 0.33 1.98 0.66 3 1 0.121 0.687 0.242 1.37 0.367 2.08 0.168 0.901 0.335 1.8 0.508 2.73 0.162 0.893 0.325 1.79 0.492 2.71 0.545 2.71 0.545 2.71 2.63 5.48-0.33 0.99-0.66 1.98-1 3-3.19-1.6-3.85-4.79-5-8-0.812-2.67-1.43-5.26-2-8 0.33-0.33 0.66-0.66 1-1z" fill="#6CC6EA"/>
<path transform="translate(132,83)" d="m0 0c0.99 0.33 1.98 0.66 3 1 1.69 5.16 2.23 9.6 2 15-0.99-0.33-1.98-0.66-3-1-0.0606-0.664-0.121-1.33-0.184-2.01-0.615-6.54-0.615-6.54-1.82-13z" fill="#6CC6EA"/>
<path transform="translate(158,122)" d="m0 0c2.06 0.438 2.06 0.438 4 1v2h2c-0.492 6.4-0.492 6.4-3.06 9.44-0.959 0.773-0.959 0.773-1.94 1.56 0.33-3.3 0.66-6.6 1-10h-2c-0.33-0.99-0.66-1.98-1-3 0.33-0.33 0.66-0.66 1-1z" fill="#65C3E8"/>
<path transform="translate(1104,92)" d="m0 0h5c-0.33 1.98-0.66 3.96-1 6 0.99-0.33 1.98-0.66 3-1-0.33 1.98-0.66 3.96-1 6-0.66-0.33-1.32-0.66-2-1v-2c-1.32-0.33-2.64-0.66-4-1v-7z" fill="#66C3E8"/>
<path transform="translate(1473,84)" d="m0 0c2.31 0.33 4.62 0.66 7 1 0.33 0.99 0.66 1.98 1 3-0.99 0.99-1.98 1.98-3 3-1.98-0.66-3.96-1.32-6-2 0.33-1.65 0.66-3.3 1-5z" fill="#65C3E8"/>
<path transform="translate(1092 29.8)" d="m0 0c0.782-0.0142 1.56-0.0284 2.37-0.043 2.19 0.23 2.19 0.23 5.19 2.23v2h-13c-0.33-0.99-0.66-1.98-1-3 2.34-1.17 3.83-1.17 6.44-1.19z" fill="#6CC6EA"/>
<path transform="translate(1186,144)" d="m0 0c0.99 0.33 1.98 0.66 3 1v14h-2c-1.44-2.88-1.09-5.42-1.06-8.62 0.00902-1.19 0.018-2.38 0.0273-3.6 0.0116-0.915 0.0232-1.83 0.0352-2.77z" fill="#6CC6EA"/>
<path transform="translate(447,120)" d="m0 0c-0.66 1.65-1.32 3.3-2 5-0.66-0.33-1.32-0.66-2-1-0.33 0.99-0.66 1.98-1 3h-2c-1.69-2.38-1.69-2.38-3-5 0.33-0.66 0.66-1.32 1-2 3.56-0.851 5.49-1.17 9 0z" fill="#66C3E8"/>
<path transform="translate(1070,192)" d="m0 0h1c0.904 3.84 1.11 7.38 1.06 11.3-0.00902 1.07-0.018 2.14-0.0273 3.24-0.0116 0.808-0.0232 1.62-0.0352 2.45h-2c-1.14-5.69-1.86-11.4 0-17z" fill="#68C5E9"/>
<path transform="translate(646 101)" d="m0 0c1.21 0.0406 1.21 0.0406 2.45 0.082 0.615 0.0348 1.23 0.0696 1.86 0.105-2.75 4.88-2.75 4.88-5 6-2.36-0.936-4.7-1.93-7-3 2.42-2.98 3.9-3.35 7.69-3.19z" fill="#65C2E7"/>
<path transform="translate(814,92)" d="m0 0c3.12 0.375 3.12 0.375 6 1v2h-4v6h-3c-0.625-3.38-0.625-3.38-1-7 0.66-0.66 1.32-1.32 2-2z" fill="#6CC6EA"/>
<path transform="translate(191,125)" d="m0 0c4.16-0.0816 7.95 0.0175 12 1-0.639 0.124-1.28 0.248-1.94 0.375-0.681 0.206-1.36 0.412-2.06 0.625-0.33 0.66-0.66 1.32-1 2-1.05-0.0412-2.1-0.0825-3.19-0.125-3.55 0.116-5.66 0.597-8.81 2.12v-2c0.639-0.289 1.28-0.577 1.94-0.875 2.21-0.953 2.21-0.953 3.06-3.12z" fill="#66C3E8"/>
<path transform="translate(874,106)" d="m0 0c5.75-0.125 5.75-0.125 8 1 0.852 2.07 0.852 2.07 1.62 4.56 0.26 0.826 0.521 1.65 0.789 2.5 0.193 0.638 0.387 1.28 0.586 1.93-0.99 0.495-0.99 0.495-2 1-0.66-0.66-1.32-1.32-2-2h2v-2c-0.959-0.433-0.959-0.433-1.94-0.875-2.06-1.12-2.06-1.12-3.06-3.12-2.02-1.13-2.02-1.13-4-2v-1z" fill="#65C3E8"/>
<path transform="translate(666,166)" d="m0 0c0.33 0.99 0.66 1.98 1 3-1.12 2.19-1.12 2.19-3 4-2.44 0.5-2.44 0.5-5 0-2.31-2-2.31-2-4-4h10c0.33-0.99 0.66-1.98 1-3z" fill="#6CC6EA"/>
<path transform="translate(836,163)" d="m0 0c-7.61 2.64-13.9 4.14-22 4v-2h4c0.33-0.66 0.66-1.32 1-2 0.33 0.33 0.66 0.66 1 1 1.63-0.0642 3.25-0.201 4.88-0.375 0.884-0.0902 1.77-0.18 2.68-0.273 6.64-0.954 6.64-0.954 8.45-0.352z" fill="#64C4E9"/>
<path transform="translate(442,151)" d="m0 0h3c-0.25 2.38-0.25 2.38-1 5-2 1.19-2 1.19-4 2-0.33 0.66-0.66 1.32-1 2-1.32-0.33-2.64-0.66-4-1 0.33-0.99 0.66-1.98 1-3 1.65-0.33 3.3-0.66 5-1 0.33-1.32 0.66-2.64 1-4z" fill="#66C3E8"/>
<path transform="translate(274,101)" d="m0 0h3v8c-3.75 1.12-3.75 1.12-6 0 0.547-3.37 1.05-5.08 3-8z" fill="#66C4E9"/>
<path transform="translate(1276,39)" d="m0 0c2.69-0.312 2.69-0.312 5 0v4h-5c0.66 0.66 1.32 1.32 2 2-1 1-1 1-4.56 1.06-1.13-0.0206-2.27-0.0412-3.44-0.0625v-2h3c0.454-0.825 0.908-1.65 1.38-2.5 0.536-0.825 1.07-1.65 1.62-2.5z" fill="#6DC7EB"/>
<path transform="translate(1348,35)" d="m0 0c0.33 0.99 0.66 1.98 1 3-1 1-1 1-3.5 1.1-1.51-0.0174-1.51-0.0174-3.06-0.0352-1.01-0.00902-2.02-0.018-3.07-0.0273-0.782-0.0116-1.56-0.0232-2.37-0.0352 0.33-0.99 0.66-1.98 1-3 7.75-1 7.75-1 10-1z" fill="#6CC6EA"/>
<path transform="translate(209,117)" d="m0 0 2 1v2l-2 1c0.33 0.66 0.66 1.32 1 2-4.46 0.495-4.46 0.495-9 1v-2c2.95-2.74 3.77-3 8-3v-2z" fill="#66C3E8"/>
<path transform="translate(284,87)" d="m0 0h1c0.33 1.98 0.66 3.96 1 6 0.33-1.32 0.66-2.64 1-4 0.66 0.33 1.32 0.66 2 1-0.33 1.65-0.66 3.3-1 5-1.65 0.33-3.3 0.66-5 1-0.66-1.32-1.32-2.64-2-4h2c0.33-1.65 0.66-3.3 1-5z" fill="#66C3E8"/>
<path transform="translate(1318,40)" d="m0 0c2 2 2 2 2 6-2.31 0.33-4.62 0.66-7 1-0.33-0.99-0.66-1.98-1-3 1.98-1.32 3.96-2.64 6-4z" fill="#68C5E9"/>
<path transform="translate(1375,39)" d="m0 0h5v6c-1.65 0.66-3.3 1.32-5 2-0.981-3.05-0.981-4.95 0-8z" fill="#65C3E8"/>
<path transform="translate(1369,176)" d="m0 0 6 3c0.33-0.66 0.66-1.32 1-2 0.99 0.66 1.98 1.32 3 2-6.5 3-6.5 3-11 3 0.33-1.98 0.66-3.96 1-6z" fill="#66C3E8"/>
<path transform="translate(1313,153)" d="m0 0c1.04 3.21 0.941 5.41 0.188 8.69-0.257 1.18-0.257 1.18-0.52 2.39-0.668 1.93-0.668 1.93-2.67 2.93-1.04-3.21-0.941-5.41-0.188-8.69 0.171-0.788 0.343-1.58 0.52-2.39 0.668-1.93 0.668-1.93 2.67-2.93z" fill="#69C5EA"/>
<path transform="translate(307,110)" d="m0 0c3.38-0.188 3.38-0.188 7 0 0.66 0.99 1.32 1.98 2 3-0.99 0.99-1.98 1.98-3 3 0.66 0.33 1.32 0.66 2 1-3.15-0.341-4.61-0.581-6.81-2.94-1.19-2.06-1.19-2.06-1.19-4.06z" fill="#64C4E9"/>
<path transform="translate(1223,179)" d="m0 0c0.826 2.89 1 4.89 1 8h-7c0.66-0.33 1.32-0.66 2-1-0.33-0.99-0.66-1.98-1-3 1.65-0.33 3.3-0.66 5-1v-3z" fill="#66C3E8"/>
<path transform="translate(85,157)" d="m0 0h4v2h6c-0.33 0.619-0.66 1.24-1 1.88-1.14 2.04-1.14 2.04-1 4.12h-2v-2h-2v-2c-1.32-0.33-2.64-0.66-4-1v-3z" fill="#66C3E8"/>
<path transform="translate(1245,149)" d="m0 0h2c-0.99 2.97-1.98 5.94-3 9h-2c-0.33 0.99-0.66 1.98-1 3-0.66-0.33-1.32-0.66-2-1 1.98-3.63 3.96-7.26 6-11z" fill="#6AC6EA"/>
<path transform="translate(1191,117)" d="m0 0c-0.33 3.96-0.66 7.92-1 12-0.99-0.33-1.98-0.66-3-1 0.114-1.65 0.241-3.29 0.375-4.94 0.0696-0.917 0.139-1.83 0.211-2.78 0.137-0.754 0.273-1.51 0.414-2.29 2-1 2-1 3-1z" fill="#6BC6EA"/>
<path transform="translate(1116 42.9)" d="m0 0c1.21 0.0309 1.21 0.0309 2.44 0.0625v6h-5c-0.382-1.66-0.714-3.32-1-5 1-1 1-1 3.56-1.06z" fill="#65C3E8"/>
<path transform="translate(976,166)" d="m0 0c0.66 0.66 1.32 1.32 2 2-0.33 1.32-0.66 2.64-1 4-3.3 0.33-6.6 0.66-10 1-0.33-0.66-0.66-1.32-1-2 2.64-0.33 5.28-0.66 8-1v-3c0.66-0.33 1.32-0.66 2-1z" fill="#6DC7EB"/>
<path transform="translate(504,133)" d="m0 0c2.97 0.495 2.97 0.495 6 1l-2 1v6c-0.99 0.495-0.99 0.495-2 1v-3c-0.66-0.33-1.32-0.66-2-1v-5z" fill="#65C3E8"/>
<path transform="translate(212,119)" d="m0 0c2.06 0.438 2.06 0.438 4 1-0.35 3.24-0.562 4.62-3.06 6.81-0.639 0.392-1.28 0.784-1.94 1.19-0.0977-6.15-0.0977-6.15 0-8 0.33-0.33 0.66-0.66 1-1z" fill="#66C3E8"/>
<path transform="translate(375,140)" d="m0 0c0.66 3.3 1.32 6.6 2 10-1.32-0.33-2.64-0.66-4-1-0.33-2.64-0.66-5.28-1-8 2-1 2-1 3-1z" fill="#6DC7EB"/>
<path transform="translate(1187,130)" d="m0 0h3v8c-0.99 0.495-0.99 0.495-2 1-0.66-0.33-1.32-0.66-2-1-0.125-5.75-0.125-5.75 1-8z" fill="#6CC6EA"/>
<path transform="translate(80,79)" d="m0 0 2 2c-0.66 1.98-1.32 3.96-2 6h-2c-0.66-0.66-1.32-1.32-2-2h-1v-5c2.47 0.495 2.47 0.495 5 1v-2z" fill="#66C3E8"/>
<path transform="translate(615,151)" d="m0 0h2v3c0.99 0.33 1.98 0.66 3 1-1.31 2-1.31 2-3 4h-3c-1.21-3.62-0.543-4.64 1-8z" fill="#66C3E8"/>
<path transform="translate(760,136)" d="m0 0h2v4c2.31 0.33 4.62 0.66 7 1-3.13 1.86-5.37 2.2-9 2-0.66-1.32-1.32-2.64-2-4 0.66-0.99 1.32-1.98 2-3z" fill="#6CC6EA"/>
<path transform="translate(853,110)" d="m0 0c1.32 1.32 2.64 2.64 4 4-0.66 1.65-1.32 3.3-2 5h-1v-5c-0.99 0.33-1.98 0.66-3 1v-4c0.66-0.33 1.32-0.66 2-1zm-1 9 2 1z" fill="#6DC7EB"/>
<path transform="translate(1153,43)" d="m0 0h5c0.66 1.32 1.32 2.64 2 4-0.66 0.66-1.32 1.32-2 2v-2c-2.31-0.33-4.62-0.66-7-1 0.66-0.33 1.32-0.66 2-1v-2z" fill="#66C3E8"/>
<path transform="translate(1022,40)" d="m0 0h3v2h-2c-0.33 2.31-0.66 4.62-1 7-1.32-0.33-2.64-0.66-4-1 1.12-2.97 2.22-5.33 4-8z" fill="#6BC6EA"/>
<path transform="translate(1280 34.2)" d="m0 0c0.516 0.248 1.03 0.495 1.56 0.75v2c-7.43 2.14-7.43 2.14-11 3v-2c6.4-4.06 6.4-4.06 9.44-3.75z" fill="#6BC6EA"/>
<path transform="translate(564,135)" d="m0 0c5.88 1.88 5.88 1.88 7 3 0.25 2.44 0.25 2.44 0 5-0.99 0.66-1.98 1.32-3 2v-6c-1.65-0.33-3.3-0.66-5-1 0.33-0.99 0.66-1.98 1-3z" fill="#6CC6EA"/>
<path transform="translate(829,121)" d="m0 0h3c0.33 1.32 0.66 2.64 1 4 0.33-0.66 0.66-1.32 1-2 0.66 0.33 1.32 0.66 2 1-0.99 1.48-0.99 1.48-2 3h-3v3c-0.99-0.33-1.98-0.66-3-1 0.351-0.763 0.701-1.53 1.06-2.31 1.26-2.74 1.26-2.74-0.0625-5.69z" fill="#64C3E8"/>
<path transform="translate(644,108)" d="m0 0h3v2c2.31 0.33 4.62 0.66 7 1-3.06 2.62-3.73 3-8 3v-2c-0.66-0.33-1.32-0.66-2-1v-3z" fill="#66C3E8"/>
<path transform="translate(840,137)" d="m0 0c-0.33 1.32-0.66 2.64-1 4-0.99-0.33-1.98-0.66-3-1-1.66-0.348-3.33-0.684-5-1v-3c3.2-1.6 5.72-0.0317 9 1z" fill="#66C3E8"/>
<path transform="translate(1072,112)" d="m0 0h2c-0.33 2.97-0.66 5.94-1 9-0.99-0.33-1.98-0.66-3-1-0.125-2.88-0.125-2.88 0-6 0.66-0.66 1.32-1.32 2-2z" fill="#6BC6EA"/>
<path transform="translate(1256,96)" d="m0 0h2v10c-0.99-0.33-1.98-0.66-3-1-0.125-6.75-0.125-6.75 1-9z" fill="#6BC6EA"/>
<path transform="translate(124,69)" d="m0 0c3.71 1.44 4.95 3.12 6.75 6.62 0.428 0.817 0.856 1.63 1.3 2.48 0.472 0.94 0.472 0.94 0.953 1.9h-3c-1.61-1.9-1.61-1.9-3.19-4.38-0.795-1.22-0.795-1.22-1.61-2.46-1.21-2.16-1.21-2.16-1.21-4.16z" fill="#6BC6EA"/>
<path transform="translate(392,60)" d="m0 0h7c0.33 0.99 0.66 1.98 1 3-3.3 0.33-6.6 0.66-10 1 0.66-1.32 1.32-2.64 2-4z" fill="#6BC6EA"/>
</svg>