<?xml version="1.0" encoding="UTF-8"?>
<svg version="1.1" viewBox="0 0 1600 576" width="1280" height="1280" xmlns="http://www.w3.org/2000/svg">
<path transform="translate(0)" d="m0 0h1600v576h-1600v-576z" fill="#FAFDFF"/>
<path transform="translate(1536 71.2)" d="m0 0c2.17 1.8 3.96 3.68 5.79 5.82l1.95 2.25c6.25 7.89 10.2 16.9 14.2 26.1 0.695 1.68 0.695 1.68 1.81 2.68 0.0718 1.52 0.0839 3.04 0.0625 4.56-0.00902 0.826-0.018 1.65-0.0273 2.5-0.0174 0.957-0.0174 0.957-0.0352 1.93-6.43 2.79-12.2 3.61-19.1 4.06-2.06 0.16-4.12 0.323-6.18 0.488-0.986 0.0769-1.97 0.154-2.99 0.233-27.5 2.19-53.4 15.3-75.7 31.1-2.86 2.02-5.77 3.87-8.76 5.69-18.8 11.9-38 28.8-44.9 50.4-1.45 8.07-1.12 15.6 3.06 22.8 9.61 13.4 27.6 19.2 42.3 25.2 22.2 9.14 43.7 19.6 64.3 32 0.887 0.53 1.77 1.06 2.69 1.61 16.5 9.87 32 20.5 46.3 33.4 0.517 0.465 1.03 0.93 1.57 1.41 11.2 10.2 24.1 24.8 25.3 40.6 0.0445 0.998 0.0445 0.998 0.0898 2.02 0.04 0.686 0.0799 1.37 0.121 2.08 0.745 24.4-13.9 46.3-29.5 63.9-2.53 2.89-4.93 5.86-7.32 8.88-3.76 4.6-7.67 8.43-12.3 12.1-0.76 0.611-0.76 0.611-1.54 1.23-13.3 10.7-27.2 20.4-41.5 29.8-0.642 0.426-1.28 0.852-1.95 1.29-5.43 3.52-11.1 6.24-17 8.96-6.87 3.23-13.7 6.54-20.3 10.2-20.3 11-42 19.2-63.5 27.3-2.64 1-5.27 2.03-7.89 3.08-31.2 12.4-78 26.6-111 12.5-15.3-7.96-23.2-19.3-28.5-35.3-1.09 0.00444-2.19 0.00888-3.31 0.0135-10.3 0.0406-20.7 0.0706-31 0.0902-5.31 0.0104-10.6 0.0245-15.9 0.0473-5.13 0.0218-10.3 0.0337-15.4 0.0389-1.95 0.00368-3.9 0.0109-5.85 0.0217-2.74 0.0146-5.49 0.0165-8.23 0.0156-0.796 0.00719-1.59 0.0144-2.41 0.0218-5.82-0.021-11.2-0.942-16.9-2.25-1.14-3.41-1.12-5.99-1.12-9.58-0.00115-0.675-0.00231-1.35-0.0035-2.05-0.00266-2.28 0.00185-4.56 0.00629-6.84-4.36e-4 -1.64-0.00131-3.29-0.00259-4.93-0.00224-4.53 0.00177-9.06 0.00678-13.6 0.00431-4.88 0.00286-9.76 0.0021-14.6-5.25e-4 -8.46 0.00262-16.9 0.00824-25.4 0.00812-12.2 0.0107-24.5 0.012-36.7 0.00219-19.8 0.00885-39.7 0.0183-59.5 0.00917-19.3 0.0163-38.6 0.0205-57.9 2.63e-4 -1.19 5.25e-4 -2.38 7.96e-4 -3.6 0.00131-5.96 0.00257-11.9 0.00381-17.9 0.0104-49.5 0.028-98.9 0.0503-148 2.99-1.57 4.96-2.25 8.35-2.24 0.864-0.00275 1.73-0.0055 2.62-0.00833 1.41 0.0108 1.41 0.0108 2.85 0.0218 0.995-2.92e-4 1.99-5.84e-4 3.02-8.85e-4 3.29 0.00139 6.58 0.017 9.87 0.0326 2.28 0.00373 4.56 0.00658 6.84 0.00858 6 0.00764 12 0.0273 18 0.0494 6.13 0.0205 12.3 0.0296 18.4 0.0397 12 0.0214 24 0.0556 36.1 0.0977 1.72 3.44 1.12 7.38 1.1 11.2-0.00141 0.907-0.00283 1.81-0.00429 2.75-0.00561 2.9-0.0182 5.81-0.0309 8.71-0.00501 1.97-0.00958 3.93-0.0137 5.9-0.011 4.83-0.0283 9.65-0.0488 14.5-0.787-0.00222-1.57-0.00444-2.38-0.00673-7.4-0.02-14.8-0.0352-22.2-0.0451-3.81-0.00523-7.61-0.0123-11.4-0.0236-3.67-0.0108-7.34-0.0168-11-0.0194-1.4-0.00185-2.81-0.00547-4.21-0.0109-1.96-0.00721-3.92-0.00768-5.88-0.0078-1.12-0.00222-2.23-0.00444-3.38-0.00673-2.45-0.165-2.45-0.165-3.51 1.12-0.098 1.53-0.126 3.06-0.127 4.59-0.00282 0.993-0.00564 1.99-0.00854 3.01 0.00202 1.1 0.00405 2.2 0.00613 3.33-0.00175 1.15-0.0035 2.3-0.00531 3.48-0.00442 3.82-0.00148 7.64 0.00189 11.5-6.73e-4 2.64-0.00164 5.28-0.0029 7.93-0.00182 5.55 5.84e-4 11.1 0.00534 16.6 0.00544 6.42 0.00368 12.8-0.00183 19.3-0.00508 6.16-0.00455 12.3-0.00162 18.5 6.7e-4 2.63-1.6e-4 5.26-0.00248 7.89-0.00252 3.67 0.00131 7.33 0.0069 11-0.00202 1.1-0.00405 2.2-0.00613 3.33 0.00282 0.993 0.00564 1.99 0.00854 3.01 3.77e-4 0.868 7.54e-4 1.74 0.00114 2.63-0.0909 1.97-0.0909 1.97 1.13 2.96 1.93 0.0887 3.86 0.107 5.79 0.0977 1.86-0.00495 1.86-0.00495 3.75-0.01 0.666-0.00412 1.33-0.00824 2.02-0.0125 2.08-0.0127 4.15-0.0193 6.23-0.0241 4.41-0.0115 8.81-0.0307 13.2-0.051 5.1-0.0235 10.2-0.044 15.3-0.0559 2.05-0.00651 4.1-0.019 6.15-0.0317 1.86-0.00495 1.86-0.00495 3.75-0.01 1.64-0.00786 1.64-0.00786 3.32-0.0159 2.47 0.114 2.47 0.114 3.47 1.11 0.0887 3.1 0.115 6.18 0.0977 9.29-0.00141 0.931-0.00283 1.86-0.00429 2.82-0.00562 2.99-0.0182 5.97-0.0309 8.96-0.00501 2.02-0.00958 4.04-0.0137 6.06-0.0111 4.96-0.0283 9.92-0.0488 14.9-0.787-0.00222-1.57-0.00444-2.38-0.00673-7.4-0.02-14.8-0.0352-22.2-0.0451-3.81-0.00523-7.61-0.0123-11.4-0.0236-3.67-0.0108-7.34-0.0168-11-0.0194-1.4-0.00185-2.81-0.00547-4.21-0.0109-1.96-0.00721-3.92-0.00768-5.88-0.0078-1.12-0.00222-2.23-0.00444-3.38-0.00673-2.45-0.165-2.45-0.165-3.51 1.12-0.0967 1.99-0.122 3.98-0.12 5.97-0.00137 1.3-0.00275 2.59-0.00417 3.93 0.00354 1.45 0.00717 2.9 0.0109 4.35 2.82e-4 1.52 1.24e-4 3.03-4.43e-4 4.55-2.88e-4 4.13 0.00561 8.26 0.0126 12.4 0.00623 4.31 0.00684 8.63 0.00803 12.9 0.00311 8.17 0.0113 16.3 0.0213 24.5 0.0112 9.3 0.0167 18.6 0.0217 27.9 0.0105 19.1 0.0281 38.3 0.0503 57.4 4.27 0.2 8.54 0.382 12.8 0.562 1.2 0.0561 2.39 0.112 3.62 0.17 6.48 0.265 12.7 0.248 19.2-0.485 3.87-0.403 7.73-0.393 11.6-0.372l2.27-0.0117c4.59 8e-3 8.95 0.382 13.5 1.14v2h2c0.495 1.48 0.495 1.48 1 3 0.34-0.643 0.681-1.29 1.03-1.95 6.38-11.9 13.2-22.8 22-33.1 0.878-1.06 1.75-2.12 2.63-3.19 16.8-20.4 37.6-38.7 64.8-42.3 3.53-0.303 7.04-0.46 10.6-0.547 0.706-0.0205 1.41-0.0409 2.14-0.062 2.2-0.0584 4.41-0.0967 6.61-0.125 0.692-0.0132 1.38-0.0264 2.1-0.04 1.72-0.00258 3.44 0.104 5.15 0.228 2 2 2 2 2.5 5-0.489 12.5-16.2 26-24.6 34.1-1.94 1.87-1.94 1.87-3.5 4.15-0.454 0.579-0.908 1.16-1.38 1.75h-2c-0.206 0.66-0.412 1.32-0.625 2-1.18 2.58-2.28 4.29-4 6.5-2.78 3.59-5.24 7.33-7.62 11.2-0.665 1.08-1.33 2.15-2.02 3.26-2.92 5.13-4.5 9.06-3.73 15.1 4.09 4.32 9.04 6.29 14.9 6.5 29.2-0.739 61.2-18.3 87.3-30.3 2.43-1.09 4.87-2.13 7.33-3.13 24.5-9.98 60-31.2 71.7-55.7 3.01-7.55 4.25-14.1 1.31-21.8-4.91-9.86-13.5-16.7-22.6-22.6-0.561-0.365-1.12-0.731-1.7-1.11-23.7-15.2-51.4-26.4-78.1-35.2-11.7-3.86-22.4-9.83-33.2-15.7-0.971-0.518-1.94-1.04-2.94-1.57-4.79-2.57-9.39-5.15-13.7-8.43-0.897-0.673-1.79-1.35-2.72-2.04-0.856-0.647-1.71-1.29-2.59-1.96-0.815-0.585-1.63-1.17-2.47-1.77-0.732-0.529-1.46-1.06-2.22-1.6-0.965-0.692-0.965-0.692-1.95-1.4-0.45-0.405-0.9-0.81-1.36-1.23v-2c-0.558-0.208-1.12-0.415-1.69-0.629-3.14-1.86-5.08-4.44-7.25-7.31-0.44-0.579-0.88-1.16-1.33-1.75-9.57-13-12.6-27.6-10.4-43.4 2.67-14.8 9.11-28.7 17.7-40.9 0.481-0.692 0.962-1.38 1.46-2.1 5.46-7.57 11.9-14.3 18.5-20.9 1.24-1.28 1.24-1.28 2.51-2.58 6.16-6.29 12.5-12 19.5-17.4 0.938-0.755 1.88-1.51 2.84-2.29 29.4-23.2 63.3-43 98.2-56.7 1.14-0.454 2.28-0.907 3.45-1.38 38.9-14.8 38.9-14.8 50.8-8.45z" fill="#EDCC01"/>
<path transform="translate(506 109)" d="m0 0c1.11-0.0063 2.23-0.0126 3.38-0.0191 1.21 0.00405 2.42 0.0081 3.66 0.0123 1.85-0.00287 1.85-0.00287 3.74-0.0058 3.29-0.00171 6.57 0.00636 9.86 0.0175 2.02 0.0039 4.04 1.45e-5 6.05-0.00684 3.86-0.0123 7.73-0.0109 11.6-0.00488 1.21-0.00405 2.42-0.0081 3.66-0.0123 1.11 0.0063 2.23 0.0126 3.38 0.0191 1.48 0.00239 1.48 0.00239 2.98 0.00482 2.35 0.254 2.35 0.254 4.35 2.25 0.524 2.88 0.524 2.88 0.914 6.62 0.0738 0.683 0.148 1.37 0.224 2.07 0.245 2.28 0.477 4.57 0.71 6.86 0.172 1.62 0.344 3.25 0.517 4.87 0.366 3.44 0.727 6.88 1.08 10.3 0.532 5.11 1.08 10.2 1.64 15.3 1.03 9.49 2.05 19 3.06 28.5 0.295 2.75 0.589 5.51 0.884 8.26 2.49 23.2 4.96 46.5 7.36 69.7 0.889 8.6 1.79 17.2 2.73 25.8 0.0905 0.83 0.181 1.66 0.274 2.52 0.349 3.2 0.698 6.39 1.05 9.59 1.11 10.1 2.15 20.2 2.88 30.4 0.303 3.81 0.522 5.96 2.68 9.2 0.339-2.21 0.671-4.42 1-6.62 0.278-1.84 0.278-1.84 0.562-3.73 0.499-3.55 0.499-3.55 0.438-6.73 0-2.91 0-2.91 0.455-5.63 0.596-3.6 0.944-7.17 1.26-10.8 0.129-1.43 0.258-2.86 0.387-4.29 0.199-2.23 0.397-4.47 0.592-6.7 0.191-2.17 0.387-4.34 0.583-6.51 0.114-1.29 0.228-2.58 0.346-3.92 0.373-3.07 0.373-3.07 1.37-5.07 0.206-2.31 0.366-4.62 0.5-6.94 0.39-6.73 0.39-6.73 1.5-10.1 0.134-1.42 0.224-2.85 0.281-4.27 0.0561-1.24 0.0561-1.24 0.113-2.5 0.0348-0.859 0.0696-1.72 0.105-2.6 0.204-4.98 0.403-9.75 1.5-14.6 0.191-1.73 0.357-3.46 0.5-5.19 0.0825-0.958 0.165-1.92 0.25-2.9 0.0825-0.96 0.165-1.92 0.25-2.91 0.623-6.71 1.32-13.4 2.56-20 0.517-3.04 0.517-3.04 0.438-6.31 0-5.27 0.597-10.4 1.51-15.6 0.653-4.12 0.867-8.24 1.11-12.4 0.307-3 0.771-5.81 1.36-8.76 1.24-6.6 1.59-13.2 1.96-19.9 0.558-8.97 1.24-17.9 2.56-26.8 0.119-0.824 0.237-1.65 0.359-2.5 0.883-5.56 0.883-5.56 3.14-7.81 2.27-0.254 2.27-0.254 5.14-0.259 1.07-0.0063 2.14-0.0126 3.25-0.0191 1.16 0.00405 2.32 0.0081 3.52 0.0123 1.19-0.00191 2.38-0.00383 3.6-0.0058 2.52-0.00136 5.04 0.00234 7.55 0.0107 3.86 0.0107 7.72 1.13e-4 11.6-0.0127 2.44 0.00132 4.88 0.00388 7.33 0.00781 1.16-0.00405 2.32-0.0081 3.51-0.0123 1.61 0.00946 1.61 0.00946 3.26 0.0191 1.42 0.00239 1.42 0.00239 2.87 0.00482 2.4 0.254 2.4 0.254 5.4 2.25 0.373 2.83 0.373 2.83 0.369 6.52 0.00346 0.681 0.00692 1.36 0.0105 2.06 8e-3 2.3-0.00557 4.61-0.0189 6.91 0.00131 1.66 0.00393 3.32 0.00777 4.98 0.00674 4.58-0.00533 9.16-0.0203 13.7-0.0129 4.93-0.00857 9.86-0.00629 14.8 0.00158 8.55-0.00787 17.1-0.0247 25.6-0.0243 12.4-0.0322 24.7-0.036 37.1-0.00657 20.1-0.0266 40.1-0.0549 60.2-0.0275 19.5-0.0488 39-0.0615 58.5-0.00118 1.8-0.00118 1.8-0.00239 3.64-0.00392 6.02-0.00771 12-0.0114 18.1-0.0311 50-0.084 100-0.151 150-5.34 0.0495-10.7 0.0858-16 0.11-1.82 0.0101-3.63 0.0237-5.45 0.041-2.61 0.0243-5.22 0.0356-7.83 0.0444-1.22 0.0155-1.22 0.0155-2.46 0.0313-6.96 0.00138-6.96 0.00138-10.2-2.23 9.22e-4 -0.742 0.00184-1.48 0.00279-2.25 0.0224-18.3 0.0388-36.6 0.049-54.9 0.00509-8.85 0.012-17.7 0.0236-26.5 0.0132-10.2 0.0214-20.5 0.0222-30.7 6.44e-5 -0.83 1.29e-4 -1.66 1.95e-4 -2.51-0.00123-26.7-0.256-53.4-1.1-80.1-2.14 2.14-1.62 6.77-1.88 9.75-0.683 7.39-1.58 14.7-2.69 22.1-1.13 7.49-1.88 14.9-2.23 22.4-0.211 2.74-0.211 2.74-1.21 4.74-0.261 1.62-0.474 3.25-0.664 4.87-0.12 1.02-0.24 2.03-0.364 3.08-0.189 1.65-0.189 1.65-0.382 3.34-0.132 1.13-0.264 2.26-0.399 3.43-0.278 2.4-0.555 4.8-0.829 7.21-0.42 3.66-0.848 7.32-1.28 11-0.269 2.33-0.538 4.67-0.807 7-0.128 1.09-0.256 2.18-0.388 3.3-0.638 5.64-0.98 11.1-0.889 16.8-0.402 2.72-0.402 2.72-0.938 5.06-1.55 6.91-2.21 13.7-2.5 20.8-0.274 5.66-0.74 11-2.02 16.6-0.74 3.58-1.21 7.19-1.67 10.8-0.0876 0.666-0.175 1.33-0.265 2.02-0.401 3.25-0.608 6.38-0.602 9.66-0.00781 3.14-0.00781 3.14-1.01 5.14-0.226 1.7-0.409 3.41-0.562 5.12-0.146 1.62-0.292 3.25-0.438 4.88-7.78 0.912-15.3 1.03-23.1 0.625-1.56-0.0657-1.56-0.0657-3.15-0.133-7.59-0.358-7.59-0.358-8.73-1.49-0.376-2.98-0.707-5.95-1-8.94-0.163-1.66-0.33-3.31-0.5-4.96-0.0722-0.737-0.144-1.47-0.219-2.23-0.196-1.95-0.196-1.95-1.28-3.86-0.225-1.38-0.403-2.77-0.557-4.17-0.145-1.29-0.145-1.29-0.293-2.61-0.101-0.936-0.202-1.87-0.306-2.84-0.107-0.968-0.214-1.94-0.325-2.93-0.227-2.06-0.452-4.11-0.676-6.17-0.338-3.11-0.682-6.22-1.03-9.33-1.81-16.4-1.81-16.4-2.33-23.3-0.528-6.79-1.49-13.5-2.41-20.3-2.76-20.2-5.09-40.5-7.32-60.7-0.467-4.22-0.968-8.43-1.5-12.6-0.439-3.55-0.828-7.1-1.22-10.7-0.0874-0.788-0.175-1.58-0.265-2.39-0.276-2.49-0.55-4.97-0.825-7.46-0.188-1.7-0.376-3.4-0.564-5.09-0.458-4.14-0.916-8.27-1.37-12.4h-2c0.00515 0.689 0.0103 1.38 0.0156 2.09 0.126 16.9 0.252 33.8 0.376 50.7 0.0599 8.18 0.12 16.4 0.182 24.5 0.0536 7.14 0.106 14.3 0.158 21.4 0.0274 3.77 0.0551 7.54 0.0838 11.3 0.115 15.1 0.205 30.2 0.213 45.3 0.00101 1.21 0.00202 2.43 0.00306 3.68-0.00379 9.77-0.201 19.5-0.53 29.3-0.0486 1.55-0.0968 3.1-0.145 4.65-0.114 3.66-0.233 7.32-0.355 11-5.34 0.0495-10.7 0.0858-16 0.11-1.82 0.0101-3.63 0.0237-5.45 0.041-2.61 0.0243-5.22 0.0356-7.83 0.0444-1.22 0.0155-1.22 0.0155-2.46 0.0313-4.01 7.97e-4 -6.76-0.266-10.2-2.23-0.0457-50.9-0.081-102-0.102-153-0.0025-6.01-0.00509-12-0.00773-18-5.25e-4 -1.2-0.00105-2.39-0.00159-3.62-0.00871-19.4-0.0245-38.8-0.0429-58.2-0.0187-19.9-0.0298-39.8-0.0339-59.6-0.00275-12.3-0.0115-24.5-0.0277-36.8-0.0105-8.41-0.0138-16.8-0.0112-25.2 0.00129-4.86-7.47e-4 -9.71-0.0114-14.6-0.00968-4.44-0.0103-8.88-0.00339-13.3 8.51e-4 -1.61-0.00173-3.22-0.00797-4.84-0.00794-2.18-0.00375-4.36 0.00367-6.54-7.59e-4 -1.21-0.00152-2.43-0.0023-3.68 0.459-5.19 3.03-5.06 7.58-5.07z" fill="#003190"/>
<path transform="translate(358 109)" d="m0 0c0.921-0.00426 1.84-0.00853 2.79-0.0129 1.01 4.53e-4 2.02 9.06e-4 3.06 0.00137 1.6-0.00504 1.6-0.00504 3.22-0.0102 3.53-0.00952 7.05-0.0115 10.6-0.0125 2.45-0.00321 4.9-0.00658 7.34-0.0101 5.14-0.00599 10.3-0.00784 15.4-0.00725 6.58 1.02e-4 13.2-0.0135 19.7-0.0308 5.06-0.0111 10.1-0.0131 15.2-0.0126 2.43-0.00118 4.85-0.00561 7.28-0.0133 3.39-0.0098 6.79-0.00692 10.2-8.95e-4 1.5-0.00843 1.5-0.00843 3.04-0.017 4.97 0.0224 9.04 0.291 13.7 2.26 1.14 8.17 1.14 16.3 1.13 24.5 0.00115 1.58 0.00274 3.15 0.00473 4.73 0.00416 4.31 0.00212 8.63-9.86e-4 12.9-0.00227 4.66 0.00123 9.32 0.00398 14 0.00444 9.12 0.00349 18.2 5.87e-4 27.4-0.00226 7.41-0.00256 14.8-0.00148 22.2 1.53e-4 1.06 3.06e-4 2.11 4.64e-4 3.2 3.2e-4 2.14 6.44e-4 4.29 9.73e-4 6.43 0.00285 20.1-4.26e-4 40.2-0.0058 60.3-0.00447 17.2-0.00369 34.5 9.19e-4 51.7 0.00535 20 0.00746 40.1 0.00439 60.1-3.19e-4 2.14-6.33e-4 4.28-9.43e-4 6.41-2.31e-4 1.58-2.31e-4 1.58-4.68e-4 3.19-8.63e-4 7.4 5.92e-4 14.8 0.00295 22.2 0.00281 9.03 0.00204 18.1-0.00328 27.1-0.00262 4.6-0.00367 9.21-3.51e-4 13.8 0.00299 4.22 0.00132 8.44-0.00398 12.7-0.00111 1.52-5.6e-4 3.04 0.00188 4.56 0.0122 8.23-0.184 16.3-1.13 24.5-26.8 1.05-53.6 1.02-80.5 0.659-2.59-0.0345-5.17-0.067-7.76-0.0993-4.12-0.0521-8.23-0.11-12.3-0.174-1.54-0.0232-3.08-0.045-4.62-0.0652-2.12-0.0286-4.24-0.0635-6.36-0.1-1.2-0.0186-2.4-0.0371-3.63-0.0562-2.8-0.165-2.8-0.165-4.8-1.16-0.9-47.9-1.16-95.7-1.13-144 0.00441-7.39 0.00119-14.8-0.00363-22.2-0.00453-7.25-0.00518-14.5-0.00256-21.7 0.00155-4.27 0.0018-8.55-0.00154-12.8-0.00289-3.96-8.88e-4 -7.93 0.00489-11.9 0.00132-1.45 9.5e-4 -2.89-0.00126-4.34-0.00275-1.98 0.00131-3.95 0.00568-5.93 3.77e-4 -1.1 7.54e-4 -2.2 0.00114-3.34 0.136-3.46 0.613-6.79 1.13-10.2 0.016-2.13-0.0245-4.27-0.117-6.4-0.0478-1.23-0.0956-2.46-0.145-3.73-0.0275-0.653-0.0551-1.31-0.0835-1.98-0.746-18-0.815-36-0.784-54 0.00383-2.45 0.00586-4.9 0.00747-7.35 0.0173-22.4 0.173-44.8 0.559-67.2 0.0196-1.2 0.0391-2.4 0.0593-3.63 0.0562-3.32 0.12-6.65 0.187-9.97 0.0167-0.973 0.0334-1.95 0.0507-2.95 0.0199-0.879 0.0399-1.76 0.0604-2.66 0.0155-0.761 0.0311-1.52 0.0471-2.31 0.158-1.86 0.158-1.86 1.16-3.86 2.83-0.943 4.57-1.13 7.5-1.13z" fill="#003190"/>
<path transform="translate(1005 109)" d="m0 0c0.853-0.00282 1.71-0.00564 2.59-0.00854 1.4 0.00304 1.4 0.00304 2.83 0.00613 1.48-0.00263 1.48-0.00263 2.99-0.00531 3.27-0.00441 6.54-0.00148 9.81 0.00189 2.28-6.74e-4 4.55-0.00164 6.83-0.0029 4.78-0.00148 9.56 6.74e-4 14.3 0.00534 6.1 0.00567 12.2 0.00244 18.3-0.00357 4.71-0.00363 9.41-0.00245 14.1 1.28e-4 2.25 6.64e-4 4.5-1.39e-4 6.74-0.00248 25.2-0.0205 25.2-0.0205 32.3 1.14 1.85 1.85 1.13 4.92 1.14 7.4 0.00284 0.68 0.00568 1.36 0.00861 2.06 0.0084 2.31 0.00962 4.61 0.0109 6.92 0.00456 1.66 0.00956 3.32 0.015 4.98 0.0136 4.58 0.021 9.16 0.0274 13.7 0.00798 4.93 0.0217 9.86 0.0347 14.8 0.0218 8.55 0.0399 17.1 0.0556 25.7 0.0227 12.4 0.0508 24.7 0.0803 37.1 0.0477 20.1 0.091 40.1 0.131 60.2 0.0393 19.5 0.0808 39 0.125 58.5 0.00272 1.2 0.00545 2.4 0.00826 3.64 0.0137 6.02 0.0274 12 0.0411 18.1 0.114 50 0.221 100 0.323 150-5.15 0.142-10.3 0.282-15.5 0.42-1.75 0.0472-3.49 0.0948-5.24 0.143-15.8 0.434-31.5 0.623-47.3 0.437-0.966-0.011-1.93-0.0219-2.93-0.0332-6.77-0.0788-13.5-0.175-20.3-0.286-2.3-0.037-4.59-0.0709-6.89-0.102-3.23-0.0452-6.47-0.103-9.7-0.165-0.983-0.0116-1.97-0.0231-2.98-0.035-0.905-0.0199-1.81-0.0397-2.74-0.0602-0.791-0.0133-1.58-0.0266-2.4-0.0404-2.06-0.278-2.06-0.278-5.06-2.28-2.18-7.92-1.14-17.2-1.13-25.4-0.00115-1.55-0.00274-3.09-0.00473-4.64-0.00416-4.23-0.00212-8.46 9.86e-4 -12.7 0.00227-4.57-0.00123-9.14-0.00398-13.7-0.00444-8.94-0.00349-17.9-5.87e-4 -26.8 0.00226-7.27 0.00256-14.5 0.00148-21.8-1.53e-4 -1.04-3.06e-4 -2.07-4.64e-4 -3.14-3.2e-4 -2.1-6.44e-4 -4.21-9.73e-4 -6.31-0.00285-19.7 4.25e-4 -39.4 0.0058-59.2 0.00447-16.9 0.00369-33.8-9.19e-4 -50.7-0.00536-19.6-0.00746-39.3-0.00439-58.9 3.19e-4 -2.1 6.33e-4 -4.19 9.43e-4 -6.29 1.54e-4 -1.03 3.09e-4 -2.06 4.68e-4 -3.13 8.62e-4 -7.26-5.91e-4 -14.5-0.00295-21.8-0.00281-8.85-0.00203-17.7 0.00328-26.6 0.00262-4.51 0.00367-9.02 3.51e-4 -13.5-3e-3 -4.14-0.00131-8.27 0.00398-12.4 0.00111-1.49 5.67e-4 -2.98-0.00188-4.47-0.0349-23.1-0.0349-23.1 2.13-29.5 2.75-0.917 4.36-1.13 7.19-1.13z" fill="#003190"/>
<path transform="translate(705 109)" d="m0 0c1.49-0.00423 1.49-0.00423 3.01-0.00854 1.1 0.00202 2.2 0.00405 3.33 0.00613 1.72-0.00263 1.72-0.00263 3.48-0.00531 3.82-0.00442 7.64-0.00148 11.5 0.00189 2.64-6.73e-4 5.28-0.00164 7.93-0.0029 5.55-0.00182 11.1 5.84e-4 16.6 0.00534 6.42 0.00544 12.8 0.00368 19.3-0.00183 6.16-0.00508 12.3-0.00455 18.5-0.00162 2.63 6.7e-4 5.26-1.6e-4 7.89-0.00248 3.67-0.00252 7.33 0.00131 11 0.0069 1.1-0.00202 2.2-0.00405 3.33-0.00613 0.993 0.00282 1.99 0.00564 3.01 0.00854 0.868 3.77e-4 1.74 7.54e-4 2.63 0.00114 1.96 0.126 1.96 0.126 2.96 1.13 0.0989 2.11 0.126 4.23 0.126 6.34 0.00145 0.674 0.00291 1.35 0.0044 2.04 0.00369 2.29 1.62e-4 4.57-0.00326 6.86 0.00115 1.64 0.00274 3.29 0.00473 4.93 0.0042 4.54 0.0021 9.08-9.86e-4 13.6-0.00225 4.89 0.00122 9.77 0.00398 14.7 0.00446 9.58 0.00348 19.2 5.87e-4 28.7-0.00225 7.79-0.00257 15.6-0.00148 23.4 1.53e-4 1.11 3.06e-4 2.21 4.64e-4 3.35 3.2e-4 2.25 6.44e-4 4.49 9.73e-4 6.74 0.00286 21.1-4.33e-4 42.2-0.0058 63.3-0.00447 18.1-0.00369 36.2 9.19e-4 54.3 0.00535 21 0.00746 42 0.00439 63-3.19e-4 2.24-6.33e-4 4.48-9.43e-4 6.72-2.31e-4 1.65-2.31e-4 1.65-4.68e-4 3.34-8.65e-4 7.78 5.97e-4 15.6 0.00295 23.3 0.0028 9.48 0.00205 19-0.00328 28.4-0.00263 4.84-0.00365 9.68-3.51e-4 14.5 0.00297 4.43 0.00136 8.85-0.00398 13.3-0.00112 1.61-5.39e-4 3.21 0.00188 4.82 0.00302 2.17-5.94e-5 4.35-0.00472 6.52-1.62e-4 1.21-3.25e-4 2.42-4.92e-4 3.67-0.105 2.55-0.371 4.63-1.13 7.05-27.3 1.22-54.6 0.948-82 0.562-0.91-0.0128-1.82-0.0256-2.76-0.0388-11.4-0.162-22.8-0.337-34.2-0.524-1.1-3.31-1.13-5.76-1.13-9.25-0.00261-1.32-0.00522-2.63-0.0079-3.99 0.00216-1.47 0.00442-2.94 0.00676-4.41-0.00115-1.56-0.00274-3.11-0.00473-4.67-0.00419-4.29-0.0021-8.57 9.86e-4 -12.9 0.00226-4.62-0.00123-9.24-0.00398-13.9-0.00446-9.06-0.00348-18.1-5.87e-4 -27.2 0.00226-7.37 0.00257-14.7 0.00148-22.1-1.53e-4 -1.05-3.06e-4 -2.1-4.64e-4 -3.18-3.2e-4 -2.13-6.44e-4 -4.26-9.73e-4 -6.39-0.00286-20 4.32e-4 -40 0.0058-60 0.00446-17.1 0.0037-34.3-9.19e-4 -51.4-0.00536-19.9-0.00745-39.8-0.00439-59.7 3.19e-4 -2.13 6.33e-4 -4.25 9.43e-4 -6.38 1.54e-4 -1.05 3.09e-4 -2.09 4.68e-4 -3.17 8.6e-4 -7.35-5.88e-4 -14.7-0.00295-22-0.00282-8.98-0.00202-18 0.00328-26.9 0.00261-4.57 0.00369-9.15 3.51e-4 -13.7-0.021-31.6-0.021-31.6 0.578-44 0.0387-0.804 0.0775-1.61 0.117-2.44 0.376-6.43 0.376-6.43 6.03-6.43z" fill="#003190"/>
<path transform="translate(204 109)" d="m0 0c0.867 5.45e-4 1.73 0.00109 2.63 0.00165 0.994-0.00419 1.99-0.00839 3.01-0.0127 1.09 0.00562 2.19 0.0112 3.32 0.017 1.15-0.0019 2.3-0.0038 3.48-0.00575 3.82-0.00372 7.63 0.00701 11.4 0.0182 2.64 0.00119 5.28 0.00165 7.92 0.00139 5.54 9.37e-4 11.1 0.00963 16.6 0.0233 6.41 0.0157 12.8 0.021 19.2 0.0203 6.16-6.09e-4 12.3 0.0046 18.5 0.0128 2.63 0.00319 5.25 0.00516 7.88 0.00589 3.66 0.00216 7.32 0.0109 11 0.0216 1.1-4.53e-4 2.19-9.06e-4 3.32-0.00137 0.991 0.00426 1.98 0.00853 3 0.0129 1.3 0.00251 1.3 0.00251 2.63 0.00508 1.96 0.129 1.96 0.129 2.96 1.13 0.134 2.34 0.204 4.65 0.232 6.99 0.0127 0.74 0.0254 1.48 0.0385 2.24 0.0414 2.5 0.0753 5 0.109 7.5 0.0276 1.79 0.0554 3.57 0.0835 5.36 0.251 16.4 0.424 32.8 0.58 49.2 0.116 12.1 0.268 24.2 0.468 36.3 0.138 8.54 0.232 17.1 0.295 25.6 0.0389 5.08 0.0961 10.2 0.202 15.2 0.466 23.2-0.389 42.1-10.5 63.3-2.66 5.72-4.87 11.6-7.16 17.5-1.43 3.57-2.87 7.13-4.31 10.7-4.29 0.33-8.58 0.66-13 1-1.12 3.37-0.862 4.54-0.0947 7.93 0.338 1.52 0.338 1.52 0.683 3.08 0.382 1.66 0.382 1.66 0.771 3.36 0.39 1.75 0.39 1.75 0.788 3.53 0.712 3.18 1.43 6.37 2.15 9.55 1.22 5.39 2.41 10.8 3.62 16.2 0.462 2.07 0.926 4.15 1.39 6.22 2.91 13.1 5.7 26.1 8.45 39.2 0.333 1.58 0.333 1.58 0.672 3.2 0.331 1.57 0.331 1.57 0.668 3.18 0.44 2.09 0.88 4.19 1.32 6.28 0.214 1.02 0.428 2.04 0.648 3.09 1.51 7.19 3.06 14.4 4.63 21.5 0.427 1.96 0.854 3.93 1.28 5.89 0.792 3.65 1.59 7.29 2.4 10.9 0.353 1.62 0.705 3.24 1.06 4.87 0.162 0.722 0.324 1.44 0.491 2.19 0.858 3.99 1.25 7.68 1.09 11.8-5.66 0.0493-11.3 0.0857-17 0.11-1.93 0.0101-3.85 0.0237-5.78 0.041-2.77 0.0242-5.53 0.0356-8.3 0.0444-1.3 0.0155-1.3 0.0155-2.62 0.0313-2.11 3.98e-4 -4.22-0.104-6.33-0.227-2.27-2.27-2.36-2.96-2.88-6.02-0.865-4.7-1.87-9.36-2.94-14-0.352-1.54-0.705-3.09-1.06-4.63-0.276-1.21-0.276-1.21-0.558-2.44-5.73-25.1-11.1-50.3-16.1-75.6-0.541-2.68-1.13-5.35-1.73-8.02-0.247-1.11-0.495-2.22-0.749-3.37-0.262-1.17-0.524-2.35-0.794-3.56-0.268-1.2-0.535-2.41-0.811-3.65-1.2-5.41-2.41-10.8-3.63-16.2-0.273-1.22-0.273-1.22-0.552-2.46-0.329-1.47-0.66-2.94-0.993-4.41-0.859-3.84-1.6-7.67-2.21-11.6-1.36 2.72-1.16 4.91-1.21 7.96-0.0199 1.27-0.0399 2.53-0.0604 3.84-0.0171 1.41-0.0339 2.81-0.0506 4.22-0.0207 1.47-0.0417 2.94-0.063 4.4-0.0561 3.97-0.105 7.94-0.153 11.9-0.0302 2.47-0.0625 4.95-0.0955 7.42-0.234 17.7-0.41 35.3-0.4 53 5.88e-4 1.04 5.88e-4 1.04 0.00119 2.1 0.00552 7.15 0.0263 14.3 0.063 21.4 0.0554 13.3-0.188 26.5-1.04 39.7-5.5 0.0494-11 0.0857-16.5 0.11-1.87 0.0101-3.74 0.0237-5.61 0.041-2.69 0.0242-5.38 0.0356-8.06 0.0444-0.838 0.0103-1.68 0.0206-2.54 0.0313-5.94 0.00115-5.94 0.00115-9.29-2.23-0.375-2.81-0.375-2.81-0.375-6.49-0.00406-0.677-0.00812-1.35-0.0123-2.05-0.01-2.29 0.00153-4.58 0.0128-6.87-0.00274-1.65-0.00679-3.3-0.012-4.95-0.0106-4.55-0.00243-9.1 0.00875-13.7 0.00881-4.9 4.08e-4 -9.81-0.00586-14.7-0.00951-9.61-0.00287-19.2 0.00926-28.8 0.0136-11.2 0.012-22.4 0.00987-33.5-0.00319-19.9 0.0085-39.9 0.0281-59.8 0.019-19.4 0.0261-38.7 0.0205-58.1-0.00605-21.1-0.00589-42.1 0.00549-63.2 0.00121-2.25 0.00241-4.49 0.00362-6.74 6.04e-4 -1.1 0.00121-2.21 0.00183-3.35 0.00389-7.8 0.00348-15.6 0.00159-23.4-0.00212-9.5 0.00307-19 0.0176-28.5 0.00727-4.85 0.0113-9.71 0.00676-14.6-0.00405-4.44 0.00103-8.87 0.0136-13.3 0.00295-1.61 0.00247-3.22-0.00164-4.83-0.00506-2.18 0.00201-4.36 0.0123-6.53 8.67e-4 -1.21 0.00173-2.43 0.00263-3.68 0.3-3.35 0.863-4.65 4.34-5.06z" fill="#003190"/>
<path transform="translate(55.1 109)" d="m0 0c0.867 5.45e-4 1.73 0.00109 2.63 0.00165 0.994-0.00419 1.99-0.00839 3.01-0.0127 1.09 0.00562 2.19 0.0112 3.32 0.017 1.15-0.0019 2.3-0.0038 3.48-0.00575 3.82-0.00372 7.63 0.00701 11.4 0.0182 2.64 0.00119 5.28 0.00165 7.92 0.00139 5.54 9.37e-4 11.1 0.00963 16.6 0.0233 6.41 0.0157 12.8 0.021 19.2 0.0203 6.16-6.09e-4 12.3 0.0046 18.5 0.0128 2.63 0.00319 5.25 0.00516 7.88 0.00589 3.66 0.00216 7.32 0.0109 11 0.0216 1.1-4.53e-4 2.19-9.06e-4 3.32-0.00137 0.991 0.00426 1.98 0.00853 3 0.0129 1.3 0.00251 1.3 0.00251 2.63 0.00508 1.96 0.129 1.96 0.129 2.96 1.13 0.107 2.36 0.148 4.69 0.147 7.05 0.00368 0.746 0.00735 1.49 0.0111 2.26 0.0111 2.52 0.0149 5.04 0.0187 7.56 0.00626 1.8 0.0129 3.6 0.0199 5.4 0.0174 4.91 0.028 9.82 0.0362 14.7 0.00515 3.07 0.0112 6.14 0.0175 9.21 0.0191 9.61 0.0333 19.2 0.0416 28.8 0.00975 11.1 0.036 22.2 0.0765 33.2 0.0302 8.57 0.045 17.1 0.0483 25.7 0.00234 5.11 0.0112 10.2 0.0365 15.3 0.0234 4.82 0.0275 9.64 0.0172 14.5-4.92e-4 1.76 0.00574 3.52 0.0196 5.28 0.109 14.7-2.82 26.6-8.49 40.2-0.33 0.807-0.66 1.61-1 2.45-0.662 1.62-1.33 3.24-1.99 4.85-2.89 7.03-5.6 14-7.88 21.3-1.12 2.15-1.12 2.15-2.86 2.78-2.56 0.421-4.97 0.484-7.56 0.469-1.06-0.0033-2.12-0.00661-3.2-0.01-1.14-0.0083-2.27-0.0166-3.44-0.0251-1.17-0.00379-2.34-0.00757-3.54-0.0115-3.73-0.0122-7.47-0.0309-11.2-0.051-4.92-0.0265-9.84-0.0465-14.8-0.0625-1.14-0.0083-2.28-0.0166-3.46-0.0251-1.05-0.0033-2.1-0.00661-3.18-0.01-0.927-0.00524-1.85-0.0105-2.81-0.0159-2.09-0.122-2.09-0.122-3.11 1.11-0.109 2.08-0.147 4.15-0.158 6.23-0.00494 0.658-0.00988 1.32-0.015 1.99-0.0154 2.22-0.0238 4.44-0.0321 6.67-0.00957 1.59-0.0196 3.17-0.03 4.76-0.0271 4.32-0.0481 8.64-0.068 13-0.0218 4.51-0.0492 9.02-0.0761 13.5-0.05 8.55-0.0949 17.1-0.138 25.6-0.0493 9.73-0.104 19.5-0.16 29.2-0.114 20-0.221 40-0.323 60-5.18 0.218-10.4 0.414-15.5 0.592-1.76 0.0633-3.52 0.132-5.28 0.207-2.53 0.107-5.07 0.193-7.6 0.275-1.18 0.056-1.18 0.056-2.37 0.113-4.68 0.128-7.57-0.175-11.2-3.19-0.623-2.94-0.623-2.94-0.621-6.61-0.00637-0.678-0.0127-1.36-0.0193-2.06-0.0153-2.29 0.00521-4.58 0.0254-6.87-0.00361-1.65-0.00941-3.3-0.0172-4.95-0.0151-4.55 0.00112-9.1 0.0223-13.6 0.0174-4.9 0.00612-9.8-0.00167-14.7-0.0107-9.61 0.00531-19.2 0.0301-28.8 0.0279-11.2 0.0293-22.4 0.0294-33.5 0.00119-19.9 0.0262-39.9 0.0647-59.8 0.0374-19.4 0.0586-38.7 0.0615-58.1 1.83e-4 -1.19 3.66e-4 -2.39 5.54e-4 -3.61 1.79e-4 -1.19 3.58e-4 -2.38 5.42e-4 -3.61 3.65e-4 -2.4 7.38e-4 -4.79 0.00112-7.19 1.86e-4 -1.18 3.71e-4 -2.36 5.62e-4 -3.58 0.00357-18.4 0.022-36.9 0.0419-55.3 0.00703-6.69 0.0118-13.4 0.015-20.1 0.00504-10.6 0.0164-21.2 0.0413-31.8 0.0113-4.85 0.0193-9.7 0.0189-14.6-3.07e-4 -4.43 0.00855-8.87 0.025-13.3 0.00434-1.61 0.00527-3.22 0.00257-4.83-0.00313-2.18 0.00586-4.35 0.0181-6.53 0.00195-1.21 0.0039-2.43 0.00591-3.67 0.303-3.35 0.867-4.64 4.34-5.06z" fill="#003190"/>
<path transform="translate(1150 109)" d="m0 0c1.15 0.00277 1.15 0.00277 2.32 0.00559 1.32-0.00412 1.32-0.00412 2.66-0.00833 0.965 0.00719 1.93 0.0144 2.93 0.0218 1.52-4.38e-4 1.52-4.38e-4 3.07-8.85e-4 3.37 0.0014 6.73 0.017 10.1 0.0326 2.33 0.00373 4.66 0.00658 6.99 0.00858 6.14 0.00765 12.3 0.0273 18.4 0.0494 6.26 0.0204 12.5 0.0296 18.8 0.0397 12.3 0.0215 24.6 0.0556 36.9 0.0977 1.72 3.44 1.12 7.38 1.1 11.2-0.00141 0.907-0.00283 1.81-0.00429 2.75-0.00561 2.9-0.0182 5.81-0.0309 8.71-0.00501 1.97-0.00958 3.93-0.0137 5.9-0.011 4.83-0.0283 9.65-0.0488 14.5-0.787-0.00222-1.57-0.00444-2.38-0.00673-7.4-0.02-14.8-0.0352-22.2-0.0451-3.81-0.00523-7.61-0.0123-11.4-0.0236-3.67-0.0108-7.34-0.0168-11-0.0194-1.4-0.00185-2.81-0.00547-4.21-0.0109-1.96-0.00721-3.92-0.00768-5.88-0.0078-1.12-0.00222-2.23-0.00444-3.38-0.00673-2.45-0.165-2.45-0.165-3.51 1.12-0.098 1.53-0.126 3.06-0.127 4.59-0.00282 0.993-0.00564 1.99-0.00854 3.01 0.00202 1.1 0.00405 2.2 0.00613 3.33-0.00175 1.15-0.0035 2.3-0.00531 3.48-0.00442 3.82-0.00148 7.64 0.00189 11.5-6.73e-4 2.64-0.00164 5.28-0.0029 7.93-0.00182 5.55 5.84e-4 11.1 0.00534 16.6 0.00544 6.42 0.00368 12.8-0.00183 19.3-0.00508 6.16-0.00455 12.3-0.00162 18.5 6.7e-4 2.63-1.6e-4 5.26-0.00248 7.89-0.00252 3.67 0.00131 7.33 0.0069 11-0.00202 1.1-0.00405 2.2-0.00613 3.33 0.00282 0.993 0.00564 1.99 0.00854 3.01 3.77e-4 0.868 7.54e-4 1.74 0.00114 2.63-0.0909 1.97-0.0909 1.97 1.13 2.96 1.93 0.0887 3.86 0.107 5.79 0.0977 1.86-0.00495 1.86-0.00495 3.75-0.01 0.666-0.00412 1.33-0.00824 2.02-0.0125 2.08-0.0127 4.15-0.0193 6.23-0.0241 4.41-0.0115 8.81-0.0307 13.2-0.051 5.1-0.0235 10.2-0.044 15.3-0.0559 2.05-0.00651 4.1-0.019 6.15-0.0317 1.86-0.00495 1.86-0.00495 3.75-0.01 1.64-0.00786 1.64-0.00786 3.32-0.0159 2.47 0.114 2.47 0.114 3.47 1.11 0.0887 3.1 0.115 6.18 0.0977 9.29-0.00141 0.931-0.00283 1.86-0.00429 2.82-0.00562 2.99-0.0182 5.97-0.0309 8.96-0.00501 2.02-0.00958 4.04-0.0137 6.06-0.0111 4.96-0.0283 9.92-0.0488 14.9-0.787-0.00222-1.57-0.00444-2.38-0.00673-7.4-0.02-14.8-0.0352-22.2-0.0451-3.81-0.00523-7.61-0.0123-11.4-0.0236-3.67-0.0108-7.34-0.0168-11-0.0194-1.4-0.00185-2.81-0.00547-4.21-0.0109-1.96-0.00721-3.92-0.00768-5.88-0.0078-1.12-0.00222-2.23-0.00444-3.38-0.00673-2.45-0.165-2.45-0.165-3.51 1.12-0.0967 1.99-0.122 3.98-0.12 5.97-0.00137 1.3-0.00275 2.59-0.00417 3.93 0.00354 1.45 0.00717 2.9 0.0109 4.35 2.82e-4 1.52 1.24e-4 3.03-4.43e-4 4.55-2.88e-4 4.13 0.00561 8.26 0.0126 12.4 0.00623 4.31 0.00684 8.63 0.00803 12.9 0.00311 8.17 0.0113 16.3 0.0213 24.5 0.0112 9.3 0.0167 18.6 0.0217 27.9 0.0105 19.1 0.0281 38.3 0.0503 57.4 4.27 0.2 8.54 0.382 12.8 0.562 1.2 0.0561 2.39 0.112 3.62 0.17 6.48 0.265 12.7 0.248 19.2-0.485 3.87-0.403 7.73-0.393 11.6-0.372 0.75-0.00387 1.5-0.00773 2.27-0.0117 4.59 0.00799 8.98 0.216 13.5 1.14 2.8 5.59 0.671 13.3-1 19-0.516 1.2-1.03 2.39-1.56 3.62-1.6 3.96-1.81 7.92-2.03 12.1-0.0412 0.696-0.0824 1.39-0.125 2.11-0.1 1.71-0.194 3.41-0.285 5.12-11.6 0.177-23.1 0.343-34.7 0.495-5.37 0.0707-10.7 0.145-16.1 0.229-5.19 0.0807-10.4 0.151-15.6 0.214-1.97 0.0258-3.95 0.0553-5.92 0.0887-2.78 0.0463-5.55 0.0791-8.33 0.109-0.806 0.0165-1.61 0.0331-2.44 0.0501-5.85 0.043-11.3-0.859-17-2.19-1.13-3.4-1.13-5.99-1.13-9.58-0.00175-0.675-0.00351-1.35-0.00531-2.04-0.00468-2.28-0.00219-4.56 2.34e-4 -6.83-0.00187-1.64-0.00417-3.29-0.00687-4.93-0.00614-4.53-0.00598-9.05-0.00481-13.6 2.04e-4 -4.88-0.00531-9.75-0.0101-14.6-0.00832-9.56-0.0111-19.1-0.0116-28.7-4.75e-4 -7.77-0.00253-15.5-0.0057-23.3-0.00881-22-0.0134-44-0.0127-66 5.99e-5 -1.78 5.99e-5 -1.78 1.21e-4 -3.6 4.09e-5 -1.19 8.18e-5 -2.38 1.24e-4 -3.6 4.07e-4 -19.3-0.00917-38.5-0.0233-57.8-0.0143-19.8-0.0213-39.5-0.0204-59.3 3.33e-4 -11.1-0.00245-22.2-0.0132-33.3-0.00908-9.45-0.0113-18.9-0.00449-28.4 0.00328-4.83 0.00327-9.65-0.00535-14.5-0.0078-4.41-0.0065-8.82 0.00228-13.2 0.00155-1.6-3.33e-4 -3.2-0.00586-4.81-0.00698-2.17-0.00183-4.33 0.00656-6.5-2.17e-4 -1.21-4.35e-4 -2.41-6.59e-4 -3.66 0.284-3.18 0.774-4.6 4.12-5.04z" fill="#003190"/>
<path transform="translate(856 109)" d="m0 0c1.47-0.00629 1.47-0.00629 2.97-0.0127 1.07 0.00562 2.14 0.0112 3.24 0.017 1.13-0.0019 2.26-0.0038 3.43-0.00575 3.74-0.00371 7.48 0.00699 11.2 0.0182 2.59 0.00119 5.19 0.00164 7.78 0.00139 5.43 0.00156 10.9 0.00961 16.3 0.0233 6.29 0.0157 12.6 0.021 18.9 0.0203 6.05-6.09e-4 12.1 0.00459 18.1 0.0128 2.58 0.00319 5.15 0.00516 7.73 0.00589 3.59 0.00216 7.18 0.0109 10.8 0.0216 1.07-4.53e-4 2.15-9.06e-4 3.26-0.00137 1.46 0.0064 1.46 0.0064 2.94 0.0129 0.849 0.00168 1.7 0.00335 2.57 0.00508 1.92 0.129 1.92 0.129 2.92 1.13 0.0887 3.1 0.115 6.18 0.0977 9.29-0.00141 0.931-0.00283 1.86-0.00429 2.82-0.00562 2.99-0.0182 5.97-0.0309 8.96-0.00501 2.02-0.00958 4.04-0.0137 6.06-0.0111 4.96-0.0283 9.92-0.0488 14.9-0.889-0.00222-1.78-0.00444-2.69-0.00673-8.39-0.0201-16.8-0.0353-25.2-0.0451-4.31-0.00521-8.62-0.0123-12.9-0.0236-4.16-0.0109-8.33-0.0168-12.5-0.0194-1.59-0.00184-3.17-0.00544-4.76-0.0109-2.23-0.00729-4.45-0.00826-6.68-0.0078-1.27-0.00222-2.53-0.00444-3.84-0.00673-3.9 0.0608-3.9 0.0608-9.45 1.12v317h63c1.98 0.33 3.96 0.66 6 1 0.66-0.33 1.32-0.66 2-1 3.06-0.125 3.06-0.125 6 0 1 1 1 1 1.11 4.97-1.59e-4 1.77-0.00586 3.54-0.0159 5.32-0.00141 0.931-0.00283 1.86-0.00429 2.82-0.00562 2.99-0.0182 5.97-0.0309 8.96-0.00501 2.02-0.00958 4.04-0.0137 6.06-0.0111 4.96-0.0283 9.92-0.0488 14.9-1.15 0.0251-2.29 0.0501-3.47 0.0759-4.24 0.0939-8.47 0.194-12.7 0.296-1.84 0.0434-3.67 0.0851-5.51 0.125-2.63 0.0575-5.27 0.121-7.9 0.186-0.826 0.0167-1.65 0.0334-2.5 0.0506-3.76-0.256-3.76-0.256-6.91 1.27-0.0874 1.85-0.107 3.71-0.0977 5.57 0.00322 1.12 0.00645 2.25 0.00977 3.41 0.00838 1.18 0.0168 2.37 0.0254 3.59 0.00451 1.19 0.00902 2.38 0.0137 3.6 0.0118 2.95 0.0283 5.89 0.0488 8.84-3.53 1.18-6.64 1.06-10.3 0.949-0.714-0.0189-1.43-0.0377-2.16-0.0572-1.51-0.0418-3.02-0.0866-4.53-0.134-2.3-0.07-4.59-0.124-6.89-0.178-1.47-0.0427-2.94-0.0863-4.41-0.131-0.681-0.0147-1.36-0.0294-2.07-0.0445-4.19-0.149-7.82-0.6-11.6-2.4-1.25-2.67-1.11-5.34-1.06-8.26 0.0116-1.19 0.0116-1.19 0.0234-2.39 0.0129-0.816 0.0258-1.63 0.0391-2.47 0.371-5.6 0.371-5.6-1-10.9-1.08-0.0198-2.16-0.0396-3.27-0.0601-4-0.076-8-0.165-12-0.257-1.73-0.0383-3.46-0.0732-5.2-0.104-2.49-0.0456-4.97-0.104-7.46-0.164-0.777-0.0116-1.55-0.0231-2.35-0.035-5.49-0.151-5.49-0.151-7.72-2.38-0.248-2.81-0.248-2.81-0.246-6.49-0.00231-0.678-0.00462-1.36-0.00699-2.05-0.00534-2.29 0.00371-4.59 0.0126-6.88-8.71e-4 -1.65-0.00262-3.3-0.00518-4.95-0.00449-4.56 0.00355-9.11 0.0136-13.7 0.00861-4.91 0.00572-9.81 0.0042-14.7-0.00105-8.51 0.00524-17 0.0165-25.5 0.0162-12.3 0.0215-24.6 0.024-36.9 0.00438-20 0.0177-39.9 0.0366-59.9 0.0183-19.4 0.0325-38.8 0.041-58.2 5.25e-4 -1.19 0.00105-2.39 0.00159-3.62 0.00261-5.99 0.00514-12 0.00762-18 0.0207-49.7 0.056-99.5 0.101-149 3.17-1.68 5.26-2.25 8.88-2.25z" fill="#003190"/>
<path transform="translate(751 151)" d="m0 0c1.02 6.87e-4 1.02 6.87e-4 2.06 0.00139 1.43 0.00301 2.86 0.0109 4.29 0.0233 2.2 0.0183 4.4 0.0205 6.6 0.0203 10.8 0.038 10.8 0.038 11.9 1.19 1.15 8.32 1.14 16.7 1.12 25.1 8.54e-4 1.26 0.00171 2.53 0.00259 3.83 0.00222 3.47-0.00174 6.95-0.00678 10.4-0.00435 3.76-0.00286 7.52-0.0021 11.3 5.23e-4 6.5-0.0026 13-0.00824 19.5-0.00815 9.4-0.0107 18.8-0.012 28.2-0.00218 15.3-0.00883 30.5-0.0183 45.8-0.00919 14.8-0.0163 29.6-0.0205 44.4-2.63e-4 0.914-5.25e-4 1.83-7.96e-4 2.77-0.00131 4.58-0.00257 9.17-0.00381 13.8-0.0104 38-0.028 76-0.0503 114-5.11 0.0247-10.2 0.0428-15.3 0.0549-1.74 0.00504-3.48 0.0119-5.22 0.0205-2.49 0.0121-4.99 0.0178-7.48 0.0222-0.782 0.00516-1.56 0.0103-2.37 0.0156-1.87 1.96e-4 -3.74-0.0513-5.6-0.113-1-1-1-1-1.12-3.16 3.8e-4 -0.963 7.59e-4 -1.93 0.00115-2.92-0.00199-1.11-0.00398-2.21-0.00603-3.35 0.00291-1.23 0.00583-2.46 0.00883-3.73-0.00128-1.94-0.00128-1.94-0.00259-3.93-0.00225-3.61 0.00178-7.22 0.00678-10.8 0.0043-3.89 0.00286-7.78 0.0021-11.7-5.25e-4 -6.74 0.00262-13.5 0.00824-20.2 0.00811-9.75 0.0107-19.5 0.012-29.2 0.00219-15.8 0.00885-31.6 0.0183-47.5 0.00917-15.4 0.0163-30.7 0.0205-46.1 2.63e-4 -0.947 5.25e-4 -1.89 7.96e-4 -2.87 0.0013-4.75 0.00257-9.5 0.00381-14.2 0.0104-39.4 0.028-78.8 0.0503-118 3.87-2.12 6.7-2.24 11.1-2.23z" fill="#FAFDFF"/>
<path transform="translate(1046 151)" d="m0 0c0.705 0.00405 1.41 0.0081 2.14 0.0123 0.725-0.00191 1.45-0.00383 2.2-0.0058 1.53-0.00136 3.07 0.00233 4.6 0.0107 2.35 0.0107 4.7 1.04e-4 7.05-0.0127 1.49 0.00132 2.98 0.00388 4.46 0.00781 0.705-0.00405 1.41-0.0081 2.14-0.0123 4.98 0.048 4.98 0.048 7.21 2.28 0.25 1.92 0.25 1.92 0.249 4.31 0.0046 0.911 0.0092 1.82 0.0139 2.76-0.00514 1.01-0.0103 2.01-0.0156 3.05 0.00241 1.07 0.00483 2.13 0.00732 3.23 0.00567 3.6-0.00305 7.19-0.0116 10.8 0.00107 2.57 0.00301 5.14 0.00575 7.71 0.00506 6.29-6.24e-4 12.6-0.00985 18.9-0.0104 7.36-0.0103 14.7-0.00983 22.1 5.02e-4 13.2-0.00868 26.4-0.0232 39.6-0.014 12.7-0.0212 25.4-0.0205 38.1 5.99e-5 1.16 5.99e-5 1.16 1.21e-4 2.35 6.05e-5 1.16 6.05e-5 1.16 1.22e-4 2.35 7e-4 14.5-0.00527 29.1-0.0142 43.6-0.00255 4.37-0.00393 8.74-0.00433 13.1-0.00332 35.4-0.264 70.7-1.17 106-1.16 0.0426-2.31 0.0853-3.5 0.129-1.53 0.0566-3.07 0.113-4.6 0.17-1.14 0.042-1.14 0.042-2.3 0.0849-3.93 0.145-7.86 0.295-11.8 0.454-1.39 0.0469-2.78 0.093-4.17 0.138-0.724 0.0318-1.45 0.0636-2.19 0.0964-1.81 0.054-3.63 1.91e-4 -5.44-0.073-2.59-2.59-2.25-3.59-2.25-7.19-0.00522-1.11-0.0104-2.21-0.0158-3.35 0.00446-1.23 0.00892-2.45 0.0135-3.72-0.00312-1.29-0.00624-2.59-0.00945-3.92-0.00839-3.61-0.00421-7.21 0.00197-10.8 0.00451-3.88-0.00245-7.77-0.00796-11.7-0.00891-7.61-0.00696-15.2-0.00117-22.8 0.00451-6.19 0.00513-12.4 0.00295-18.6-3.06e-4 -0.879-6.13e-4 -1.76-9.29e-4 -2.66-6.39e-4 -1.79-0.00129-3.57-0.00195-5.36-0.00571-16.8 8.63e-4 -33.5 0.0116-50.3 0.00894-14.4 0.00738-28.8-0.00184-43.2-0.0107-16.7-0.0149-33.4-0.00878-50.1 6.37e-4 -1.78 0.00127-3.56 0.00189-5.34 3.09e-4 -0.875 6.17e-4 -1.75 9.35e-4 -2.65 0.00173-6.18-0.00119-12.4-0.00589-18.5-0.0056-7.53-0.00412-15.1 0.00656-22.6 0.00527-3.84 0.00729-7.69 7.02e-4 -11.5-0.00702-4.16 0.00134-8.32 0.0114-12.5-0.00446-1.23-0.00892-2.45-0.0135-3.72 0.00522-1.11 0.0104-2.21 0.0158-3.35 3.25e-4 -0.961 6.49e-4 -1.92 9.84e-4 -2.91 0.52-4.73 3.36-4.52 7.46-4.56z" fill="#FAFDFF"/>
<path transform="translate(399 151)" d="m0 0c0.708 0.00719 1.42 0.0144 2.15 0.0218 1.09 6.87e-4 1.09 6.87e-4 2.2 0.00139 1.54 0.00302 3.07 0.0109 4.61 0.0233 2.36 0.0183 4.72 0.0205 7.08 0.0203 1.49 0.00491 2.98 0.0107 4.47 0.0176 0.71 0.00111 1.42 0.00223 2.15 0.00337 4.98 0.0485 4.98 0.0485 6.09 1.16 1.21 7.92 1.14 16 1.13 24 0.00227 1.26 0.00453 2.52 0.00687 3.82 0.00607 3.47 0.00599 6.94 0.00481 10.4-2.05e-4 3.76 0.00533 7.51 0.0101 11.3 0.00828 7.34 0.0111 14.7 0.0116 22 4.76e-4 5.96 0.00254 11.9 0.0057 17.9 0.00879 16.9 0.0134 33.8 0.0127 50.7-4e-5 0.91-7.99e-5 1.82-1.21e-4 2.76-4.09e-5 0.911-8.18e-5 1.82-1.24e-4 2.76-4.07e-4 14.8 0.00919 29.6 0.0233 44.4 0.0143 15.2 0.0213 30.4 0.0204 45.6-3.32e-4 8.53 0.00244 17.1 0.0132 25.6 0.00908 7.26 0.0113 14.5 0.00449 21.8-0.00328 3.7-0.00327 7.41 0.00535 11.1 0.00924 4.01 0.00313 8.02-0.00463 12 0.00514 1.18 0.0103 2.36 0.0156 3.58-0.0069 1.6-0.0069 1.6-0.0139 3.23 2.17e-4 0.926 4.35e-4 1.85 6.59e-4 2.81-0.25 2.2-0.25 2.2-2.25 4.2-1.95 0.243-1.95 0.243-4.33 0.23-1.31-0.00193-1.31-0.00193-2.65-0.00391-1.4-0.0193-1.4-0.0193-2.83-0.0391-0.944-0.00645-1.89-0.0129-2.86-0.0195-7.14-0.0781-14.2-0.429-21.3-1.17-1.02-3.05-1.13-5.09-1.13-8.28-0.00322-1.1-0.00645-2.2-0.00977-3.34 0.00155-1.22 0.0031-2.43 0.00469-3.68-0.00227-1.29-0.00453-2.57-0.00687-3.9-0.00613-3.58-0.00598-7.16-0.00481-10.7 2.04e-4 -3.86-0.00531-7.72-0.0101-11.6-0.00831-7.56-0.0111-15.1-0.0116-22.7-4.75e-4 -6.14-0.00253-12.3-0.0057-18.4-0.00881-17.4-0.0134-34.8-0.0127-52.2 4e-5 -0.939 7.99e-5 -1.88 1.21e-4 -2.84 4.09e-5 -0.94 8.18e-5 -1.88 1.24e-4 -2.85 4.07e-4 -15.2-0.00917-30.5-0.0233-45.7-0.0143-15.6-0.0213-31.3-0.0204-46.9 3.33e-4 -8.79-0.00244-17.6-0.0132-26.4-0.00908-7.48-0.0113-15-0.00449-22.4 0.00328-3.82 0.00327-7.64-0.00535-11.5-0.00924-4.13-0.00312-8.26 0.00463-12.4-0.00514-1.22-0.0103-2.44-0.0156-3.69 0.0046-1.1 0.0092-2.2 0.0139-3.33-2.17e-4 -0.955-4.35e-4 -1.91-6.59e-4 -2.89 0.522-4.73 3.39-4.5 7.48-4.52z" fill="#FAFDFF"/>
<path transform="translate(250 151)" d="m0 0c0.708 0.00719 1.42 0.0144 2.15 0.0218 1.09 6.87e-4 1.09 6.87e-4 2.2 0.00139 1.54 0.00302 3.07 0.0109 4.61 0.0233 2.36 0.0183 4.72 0.0205 7.08 0.0203 1.49 0.00491 2.98 0.0107 4.47 0.0176 0.71 0.00111 1.42 0.00223 2.15 0.00337 4.98 0.0485 4.98 0.0485 6.09 1.16 0.157 1.38 0.247 2.76 0.311 4.15 0.0411 0.89 0.0822 1.78 0.125 2.7 0.0579 1.47 0.0579 1.47 0.117 2.97 0.042 1.03 0.0841 2.05 0.127 3.11 0.475 12.7 0.485 25.4 0.489 38 0.00322 2.61 0.00659 5.23 0.0101 7.84 0.00632 5.43 0.00789 10.9 0.00725 16.3-6.05e-4 6.25 0.0101 12.5 0.0257 18.7 0.0147 6.07 0.0182 12.1 0.0176 18.2 0.00118 2.56 0.00558 5.12 0.0133 7.68 0.00982 3.57 0.00692 7.14 8.95e-4 10.7 0.00562 1.04 0.0112 2.09 0.017 3.16-0.0356 8.32-0.339 17-6.26 23.4-3.08 0.713-3.08 0.713-6.66 0.656-1.29-0.0103-2.57-0.0206-3.9-0.0312-0.666-0.0206-1.33-0.0412-2.02-0.0625-2.04-0.0625-4.08-0.082-6.13-0.0938-9.98-0.16-9.98-0.16-12.3-2.47-0.252-2.65-0.252-2.65-0.254-6.07-0.00564-1.3-0.0113-2.59-0.0171-3.93 0.00389-1.44 0.00799-2.89 0.0123-4.33-0.00271-1.51-0.00627-3.03-0.0106-4.54-0.00914-4.12-0.00557-8.24 7.58e-4 -12.4 0.00505-4.3 3.71e-4 -8.61-0.00277-12.9-0.00364-7.23 0.00117-14.5 0.0107-21.7 0.0109-8.37 0.00736-16.7-0.00365-25.1-0.00907-7.17-0.0104-14.3-0.00512-21.5 0.00312-4.29 0.00352-8.58-0.00307-12.9-0.00576-4.03-0.0018-8.06 0.00979-12.1 0.00265-1.48 0.00187-2.97-0.00253-4.45-0.00543-2.02 0.00258-4.04 0.0114-6.05 7.54e-4 -1.13 0.00151-2.26 0.00229-3.43 0.476-5 3.06-4.88 7.48-4.9z" fill="#FAFDFF"/>
<path transform="translate(100 151)" d="m0 0c0.708 0.00719 1.42 0.0144 2.15 0.0218 1.09 6.87e-4 1.09 6.87e-4 2.2 0.00139 1.54 0.00302 3.07 0.0109 4.61 0.0233 2.36 0.0183 4.72 0.0205 7.08 0.0203 1.49 0.00491 2.98 0.0107 4.47 0.0176 0.71 0.00111 1.42 0.00223 2.15 0.00337 4.98 0.0485 4.98 0.0485 6.09 1.16 0.113 1.8 0.156 3.6 0.172 5.41 0.019 1.76 0.019 1.76 0.0384 3.56 0.0089 1.3 0.0178 2.6 0.027 3.94 0.0128 1.37 0.0261 2.75 0.0397 4.12 0.0357 3.74 0.0649 7.48 0.0924 11.2 0.0175 2.34 0.0364 4.68 0.0558 7.02 0.0676 8.17 0.13 16.3 0.188 24.5 0.0537 7.6 0.119 15.2 0.189 22.8 0.0601 6.53 0.112 13.1 0.158 19.6 0.0275 3.9 0.0582 7.8 0.097 11.7 0.0363 3.67 0.0625 7.35 0.0813 11 0.0125 1.98 0.0353 3.96 0.0584 5.93 0.0689 19.6 0.0689 19.6-6.2 26.2-3.08 0.713-3.08 0.713-6.66 0.656-1.29-0.0103-2.57-0.0206-3.9-0.0312-0.666-0.0206-1.33-0.0412-2.02-0.0625-2.04-0.0625-4.08-0.082-6.13-0.0938-9.98-0.16-9.98-0.16-12.3-2.47-0.252-2.65-0.252-2.65-0.254-6.07-0.00564-1.3-0.0113-2.59-0.0171-3.93 0.00389-1.44 0.00799-2.89 0.0123-4.33-0.00271-1.51-0.00627-3.03-0.0106-4.54-0.00914-4.12-0.00557-8.24 7.58e-4 -12.4 0.00505-4.3 3.71e-4 -8.61-0.00277-12.9-0.00364-7.23 0.00117-14.5 0.0107-21.7 0.0109-8.37 0.00736-16.7-0.00365-25.1-0.00907-7.17-0.0104-14.3-0.00512-21.5 0.00312-4.29 0.00352-8.58-0.00307-12.9-0.00576-4.03-0.0018-8.06 0.00979-12.1 0.00265-1.48 0.00187-2.97-0.00253-4.45-0.00543-2.02 0.00258-4.04 0.0114-6.05 7.54e-4 -1.13 0.00151-2.26 0.00229-3.43 0.476-5 3.06-4.88 7.48-4.9z" fill="#FAFDFF"/>
<path transform="translate(1029 45.8)" d="m0 0c1.11 0.00143 2.22 0.00285 3.37 0.00432 1.26-0.00308 2.52-0.00615 3.81-0.00932 1.38 0.0069 2.76 0.0142 4.14 0.0218 1.41 0.00119 2.81 0.00164 4.22 0.00139 2.95 0.00157 5.9 0.00986 8.85 0.0233 3.79 0.017 7.58 0.0208 11.4 0.0201 2.91 2.71e-4 5.81 0.00575 8.72 0.013 1.4 0.00319 2.8 0.00516 4.19 0.00589 1.95 0.00216 3.9 0.0117 5.85 0.0216 1.11 0.00381 2.22 0.00762 3.37 0.0116 2.5 0.134 2.5 0.134 3.5 1.13 0.0885 2.52 0.115 5.01 0.0977 7.54-0.00141 0.753-0.00283 1.51-0.00429 2.28-0.00561 2.41-0.0182 4.83-0.0309 7.24-0.00501 1.63-0.00958 3.27-0.0137 4.9-0.011 4.01-0.0283 8.02-0.0488 12-4.74 0.937-9.34 1.15-14.2 1.13-0.779 0.00136-1.56 0.00273-2.36 0.00414-2.51 0.00201-5.03-0.00426-7.54-0.0119-0.851-0.00122-1.7-0.00244-2.58-0.00369-10.1-0.017-20.1-0.0864-30.2-0.559-1.27-0.0587-1.27-0.0587-2.56-0.119-5.49-0.308-5.49-0.308-6.63-1.44-0.113-2.35-0.164-4.67-0.168-7.03-0.00333-0.704-0.00666-1.41-0.0101-2.13-0.00507-1.49-0.00741-2.98-0.00725-4.48-0.00218-2.29-0.0203-4.57-0.0393-6.86-0.00293-1.45-0.00492-2.89-0.00586-4.34-0.00719-0.687-0.0144-1.37-0.0218-2.08 0.0332-6.87 0.0332-6.87 4.88-7.33z" fill="#003190"/>
</svg>
